SplineFontDB: 3.0
FontName: NimbusMonL-BoldObli
FullName: Nimbus Mono L Bold Oblique
FamilyName: Nimbus Mono L
Weight: Bold
Copyright: Copyright (URW)++,Copyright 1999 by (URW)++ Design & Development; Cyrillic glyphs added by Valek Filippov (C) 2001-2002
Version: 1.06
ItalicAngle: -12
UnderlinePosition: -150
UnderlineWidth: 50
Ascent: 800
Descent: 200
LayerCount: 2
Layer: 0 1 "Back" 
Layer: 1 1 "Fore" 
NeedsXUIDChange: 1
XUID: [1021 548 848922286 5061204]
FSType: 0
OS2Version: 1
OS2_WeightWidthSlopeOnly: 0
OS2_UseTypoMetrics: 1
CreationTime: 1202696994
ModificationTime: 1214463965
PfmFamily: 17
TTFWeight: 700
TTFWidth: 5
LineGap: 90
VLineGap: 0
Panose: 2 0 8 3 0 0 0 0 0 0
OS2TypoAscent: 0
OS2TypoAOffset: 1
OS2TypoDescent: 0
OS2TypoDOffset: 1
OS2TypoLinegap: 90
OS2WinAscent: 0
OS2WinAOffset: 1
OS2WinDescent: 0
OS2WinDOffset: 1
HheadAscent: 0
HheadAOffset: 1
HheadDescent: 0
HheadDOffset: 1
OS2SubXSize: 650
OS2SubYSize: 700
OS2SubXOff: 29
OS2SubYOff: 140
OS2SupXSize: 650
OS2SupYSize: 700
OS2SupXOff: -99
OS2SupYOff: 480
OS2StrikeYSize: 49
OS2StrikeYPos: 258
OS2Vendor: 'PfEd'
OS2CodePages: 20000097.0fd60000
OS2UnicodeRanges: 800002af.5000204a.00000000.00000000
Lookup: 4 0 1 "'liga' Standard Ligatures in Latin lookup 0"  {"'liga' Standard Ligatures in Latin lookup 0 subtable"  } ['liga' ('latn' <'dflt' > ) ]
DEI: 0
ShortTable: maxp 16
  1
  0
  562
  354
  7
  94
  4
  2
  0
  1
  1
  0
  64
  0
  2
  1
EndShort
LangName: 1033 "" "" "" "FontForge 2.0 : Nimbus Mono L Bold Oblique : 4-6-2008" 
GaspTable: 1 65535 2
Encoding: UnicodeBmp
UnicodeInterp: none
NameList: Adobe Glyph List
DisplaySize: -36
AntiAlias: 1
FitToEm: 1
WinInfo: 364 26 11
BeginChars: 65552 636

StartChar: exclam
Encoding: 33 33 4
Width: 600
GlyphClass: 2
Flags: W
LayerCount: 2
Fore
SplineSet
490 525 m 2,0,-1
 398 228 l 2,1,2
 382 179 382 179 338 179 c 0,3,4
 298 179 298 179 298 219 c 0,5,6
 298 225 298 225 299 228 c 1,7,-1
 333 525 l 2,8,9
 339 580 339 580 361 603 c 0,10,11
 391 638 391 638 435 638 c 0,12,13
 464 638 464 638 482.5 621 c 128,-1,14
 501 604 501 604 501 577 c 0,15,16
 501 559 501 559 490 525 c 2,0,-1
305 -15 m 2,17,-1
 288 -15 l 2,18,19
 264 -15 264 -15 249 0 c 128,-1,20
 234 15 234 15 234 38 c 0,21,22
 234 68 234 68 259.5 92.5 c 128,-1,23
 285 117 285 117 316 117 c 2,24,-1
 333 117 l 2,25,26
 357 117 357 117 372 102.5 c 128,-1,27
 387 88 387 88 387 65 c 0,28,29
 387 34 387 34 362 9.5 c 128,-1,30
 337 -15 337 -15 305 -15 c 2,17,-1
EndSplineSet
EndChar

StartChar: quotedbl
Encoding: 34 34 5
Width: 600
GlyphClass: 2
Flags: W
LayerCount: 2
Fore
SplineSet
264 602 m 1,0,-1
 392 602 l 1,1,-1
 306 348 l 2,2,3
 294 312 294 312 267 312 c 0,4,5
 257 312 257 312 250 318.5 c 128,-1,6
 243 325 243 325 243 335 c 0,7,8
 243 342 243 342 244 347 c 2,9,-1
 264 602 l 1,0,-1
464 602 m 1,10,-1
 592 602 l 1,11,-1
 507 348 l 2,12,13
 495 312 495 312 467 312 c 0,14,15
 457 312 457 312 450 318.5 c 128,-1,16
 443 325 443 325 443 335 c 0,17,18
 443 342 443 342 444 347 c 2,19,-1
 464 602 l 1,10,-1
EndSplineSet
EndChar

StartChar: numbersign
Encoding: 35 35 6
Width: 600
GlyphClass: 2
Flags: W
LayerCount: 2
Fore
SplineSet
541 444 m 1,0,-1
 566 444 l 2,1,2
 589 444 589 444 601 440 c 0,3,4
 623 433 623 433 623 404 c 0,5,6
 623 379 623 379 600 359 c 0,7,8
 582 344 582 344 545 344 c 2,9,-1
 513 344 l 1,10,-1
 483 238 l 1,11,-1
 502 238 l 2,12,13
 526 238 526 238 537 234 c 0,14,15
 560 227 560 227 560 199 c 0,16,17
 560 172 560 172 537 154 c 0,18,19
 518 139 518 139 481 139 c 2,20,-1
 455 139 l 1,21,-1
 408 -29 l 2,22,23
 398 -61 398 -61 386 -73 c 0,24,25
 365 -92 365 -92 342 -92 c 0,26,27
 326 -92 326 -92 314.5 -81 c 128,-1,28
 303 -70 303 -70 303 -54 c 0,29,30
 303 -46 303 -46 310 -22 c 2,31,-1
 356 139 l 1,32,-1
 284 139 l 1,33,-1
 236 -29 l 2,34,35
 222 -92 222 -92 172 -92 c 0,36,37
 155 -92 155 -92 143.5 -81 c 128,-1,38
 132 -70 132 -70 132 -54 c 0,39,40
 132 -42 132 -42 138 -22 c 2,41,-1
 184 139 l 1,42,-1
 158 139 l 2,43,44
 127 139 127 139 114 148 c 128,-1,45
 101 157 101 157 101 179 c 0,46,47
 101 204 101 204 124 224 c 0,48,49
 142 238 142 238 179 238 c 2,50,-1
 212 238 l 1,51,-1
 242 344 l 1,52,-1
 222 344 l 2,53,54
 198 344 198 344 187 348 c 0,55,56
 165 356 165 356 165 384 c 0,57,58
 165 410 165 410 188 430 c 0,59,60
 206 444 206 444 243 444 c 2,61,-1
 270 444 l 1,62,-1
 317 612 l 2,63,64
 334 675 334 675 382 675 c 0,65,66
 398 675 398 675 410 664 c 128,-1,67
 422 653 422 653 422 638 c 0,68,69
 422 628 422 628 416 605 c 2,70,-1
 370 444 l 1,71,-1
 442 444 l 1,72,-1
 489 612 l 2,73,74
 498 644 498 644 510 656 c 0,75,76
 529 675 529 675 554 675 c 0,77,78
 571 675 571 675 582.5 663.5 c 128,-1,79
 594 652 594 652 594 635 c 0,80,81
 594 630 594 630 587 605 c 2,82,-1
 541 444 l 1,0,-1
414 344 m 1,83,-1
 342 344 l 1,84,-1
 312 238 l 1,85,-1
 383 238 l 1,86,-1
 414 344 l 1,83,-1
EndSplineSet
EndChar

StartChar: dollar
Encoding: 36 36 7
Width: 600
GlyphClass: 2
Flags: W
LayerCount: 2
Fore
SplineSet
483 618 m 2,0,-1
 477 592 l 1,1,2
 481 591 481 591 488 590 c 128,-1,3
 495 589 495 589 500 588 c 2,4,-1
 510 585 l 2,5,6
 522 580 522 580 532 577 c 0,7,8
 534 576 534 576 541 574 c 1,9,10
 558 581 558 581 570 581 c 0,11,12
 587 581 587 581 598.5 570.5 c 128,-1,13
 610 560 610 560 610 544 c 0,14,15
 610 531 610 531 606 515 c 2,16,-1
 599 483 l 2,17,18
 592 450 592 450 580 438 c 0,19,20
 560 417 560 417 535 417 c 0,21,22
 492 417 492 417 492 460 c 0,23,24
 492 474 492 474 468.5 484.5 c 128,-1,25
 445 495 445 495 415 495 c 0,26,27
 366 495 366 495 334 475 c 128,-1,28
 302 455 302 455 302 424 c 0,29,30
 302 390 302 390 366 377 c 2,31,-1
 428 363 l 2,32,33
 501 347 501 347 532.5 317.5 c 128,-1,34
 564 288 564 288 564 235 c 0,35,36
 564 159 564 159 507 101.5 c 128,-1,37
 450 44 450 44 357 27 c 1,38,-1
 339 -56 l 2,39,40
 332 -90 332 -90 320 -102 c 0,41,42
 301 -123 301 -123 276 -123 c 0,43,44
 259 -123 259 -123 247.5 -112.5 c 128,-1,45
 236 -102 236 -102 236 -86 c 0,46,47
 236 -73 236 -73 240 -56 c 2,48,-1
 258 27 l 1,49,50
 214 37 214 37 184 52 c 1,51,52
 160 34 160 34 141 34 c 0,53,54
 123 34 123 34 111.5 44.5 c 128,-1,55
 100 55 100 55 100 72 c 0,56,57
 100 80 100 80 104 101 c 2,58,-1
 117 162 l 2,59,60
 124 195 124 195 137 208 c 0,61,62
 158 229 158 229 182 229 c 0,63,64
 203 229 203 229 215 214 c 0,65,66
 221 207 221 207 222 180 c 0,67,68
 224 157 224 157 254.5 140.5 c 128,-1,69
 285 124 285 124 328 124 c 0,70,71
 381 124 381 124 419.5 150.5 c 128,-1,72
 458 177 458 177 458 214 c 128,-1,73
 458 251 458 251 389 265 c 2,74,-1
 319 280 l 2,75,76
 196 306 196 306 196 403 c 0,77,78
 196 470 196 470 248.5 524.5 c 128,-1,79
 301 579 301 579 378 592 c 1,80,-1
 384 618 l 2,81,82
 390 650 390 650 403 664 c 0,83,84
 423 684 423 684 448 684 c 0,85,86
 465 684 465 684 476 673 c 128,-1,87
 487 662 487 662 487 646 c 0,88,89
 487 637 487 637 483 618 c 2,0,-1
EndSplineSet
EndChar

StartChar: percent
Encoding: 37 37 8
Width: 600
GlyphClass: 2
Flags: W
LayerCount: 2
Fore
SplineSet
360 617 m 0,0,1
 410 617 410 617 441.5 586 c 128,-1,2
 473 555 473 555 473 506 c 0,3,4
 473 441 473 441 420 389.5 c 128,-1,5
 367 338 367 338 299 338 c 0,6,7
 251 338 251 338 219.5 369.5 c 128,-1,8
 188 401 188 401 188 449 c 0,9,10
 188 513 188 513 241 565 c 128,-1,11
 294 617 294 617 360 617 c 0,0,1
346 552 m 0,12,13
 311 552 311 552 282.5 524.5 c 128,-1,14
 254 497 254 497 254 463 c 0,15,16
 254 437 254 437 271 420 c 128,-1,17
 288 403 288 403 314 403 c 0,18,19
 350 403 350 403 378.5 430.5 c 128,-1,20
 407 458 407 458 407 493 c 0,21,22
 407 519 407 519 390 535.5 c 128,-1,23
 373 552 373 552 346 552 c 0,12,13
562 331 m 2,24,-1
 174 213 l 2,25,26
 163 209 163 209 153 209 c 128,-1,27
 143 209 143 209 137 216.5 c 128,-1,28
 131 224 131 224 131 235 c 0,29,30
 131 261 131 261 168 272 c 2,31,-1
 555 390 l 2,32,33
 568 394 568 394 576 394 c 0,34,35
 599 394 599 394 599 368 c 0,36,37
 599 341 599 341 562 331 c 2,24,-1
425 264 m 0,38,39
 475 264 475 264 506.5 233 c 128,-1,40
 538 202 538 202 538 153 c 0,41,42
 538 88 538 88 485 36.5 c 128,-1,43
 432 -15 432 -15 364 -15 c 0,44,45
 316 -15 316 -15 284.5 16.5 c 128,-1,46
 253 48 253 48 253 96 c 0,47,48
 253 160 253 160 306 212 c 128,-1,49
 359 264 359 264 425 264 c 0,38,39
411 199 m 0,50,51
 376 199 376 199 348 171 c 128,-1,52
 320 143 320 143 320 109 c 0,53,54
 320 84 320 84 337 67 c 128,-1,55
 354 50 354 50 379 50 c 0,56,57
 415 50 415 50 443.5 77.5 c 128,-1,58
 472 105 472 105 472 139 c 0,59,60
 472 166 472 166 455 182.5 c 128,-1,61
 438 199 438 199 411 199 c 0,50,51
EndSplineSet
EndChar

StartChar: ampersand
Encoding: 38 38 9
Width: 600
GlyphClass: 2
Flags: W
LayerCount: 2
Fore
SplineSet
407 198 m 1,0,-1
 448 280 l 1,1,-1
 500 280 l 2,2,3
 524 280 524 280 535 276 c 0,4,5
 557 268 557 268 557 241 c 0,6,7
 557 218 557 218 540.5 200 c 128,-1,8
 524 182 524 182 502 180 c 1,9,10
 477 127 477 127 455 100 c 1,11,-1
 463 100 l 2,12,13
 487 100 487 100 498 96 c 0,14,15
 520 89 520 89 520 60 c 0,16,17
 520 33 520 33 497 15 c 0,18,19
 480 0 480 0 442 0 c 2,20,-1
 381 0 l 1,21,-1
 373 15 l 1,22,23
 326 -14 326 -14 255 -14 c 128,-1,24
 184 -14 184 -14 143 18 c 128,-1,25
 102 50 102 50 102 106 c 0,26,27
 102 166 102 166 137.5 218.5 c 128,-1,28
 173 271 173 271 236 303 c 1,29,30
 219 346 219 346 219 374 c 0,31,32
 219 438 219 438 278.5 494 c 128,-1,33
 338 550 338 550 406 550 c 0,34,35
 439 550 439 550 473 533 c 1,36,37
 490 540 490 540 503 540 c 0,38,39
 518 540 518 540 529.5 528 c 128,-1,40
 541 516 541 516 541 501 c 0,41,42
 541 480 541 480 529.5 466.5 c 128,-1,43
 518 453 518 453 488 438 c 2,44,-1
 441 416 l 1,45,46
 412 450 412 450 385 450 c 0,47,48
 361 450 361 450 341 432 c 128,-1,49
 321 414 321 414 321 392 c 0,50,51
 321 375 321 375 338 343 c 2,52,-1
 407 198 l 1,0,-1
333 100 m 1,53,-1
 275 220 l 1,54,55
 204 189 204 189 204 129 c 0,56,57
 204 86 204 86 275 86 c 0,58,59
 306 86 306 86 333 100 c 1,53,-1
EndSplineSet
EndChar

StartChar: quoteright
Encoding: 8217 8217 10
Width: 600
GlyphClass: 2
Flags: W
LayerCount: 2
Fore
SplineSet
350 623 m 1,0,-1
 483 623 l 1,1,-1
 285 355 l 2,2,3
 267 331 267 331 248 331 c 0,4,5
 237 331 237 331 229.5 337.5 c 128,-1,6
 222 344 222 344 222 353 c 128,-1,7
 222 362 222 362 230 378 c 2,8,-1
 350 623 l 1,0,-1
EndSplineSet
EndChar

StartChar: parenleft
Encoding: 40 40 11
Width: 600
GlyphClass: 2
Flags: W
LayerCount: 2
Fore
SplineSet
572 632 m 0,0,1
 590 632 590 632 601.5 621 c 128,-1,2
 613 610 613 610 613 593 c 0,3,4
 613 573 613 573 593 549 c 0,5,6
 501 438 501 438 458.5 340 c 128,-1,7
 416 242 416 242 416 140 c 0,8,9
 416 41 416 41 461 -70 c 0,10,11
 467 -84 467 -84 467 -92 c 0,12,13
 467 -116 467 -116 448 -134.5 c 128,-1,14
 429 -153 429 -153 405 -153 c 0,15,16
 380 -153 380 -153 370 -134 c 0,17,18
 342 -87 342 -87 323 -10.5 c 128,-1,19
 304 66 304 66 304 131 c 0,20,21
 304 331 304 331 471 547 c 0,22,23
 511 598 511 598 531 615 c 128,-1,24
 551 632 551 632 572 632 c 0,0,1
EndSplineSet
EndChar

StartChar: parenright
Encoding: 41 41 12
Width: 600
GlyphClass: 2
Flags: W
LayerCount: 2
Fore
SplineSet
302 632 m 128,-1,1
 327 632 327 632 337 613 c 0,2,3
 365 566 365 566 384 489.5 c 128,-1,4
 403 413 403 413 403 348 c 0,5,6
 403 244 403 244 363.5 145 c 128,-1,7
 324 46 324 46 236 -68 c 0,8,9
 197 -118 197 -118 176.5 -135.5 c 128,-1,10
 156 -153 156 -153 135 -153 c 0,11,12
 117 -153 117 -153 105.5 -142 c 128,-1,13
 94 -131 94 -131 94 -114 c 0,14,15
 94 -94 94 -94 114 -70 c 0,16,17
 208 43 208 43 249.5 139.5 c 128,-1,18
 291 236 291 236 291 340 c 0,19,20
 291 436 291 436 246 549 c 0,21,22
 240 562 240 562 240 571 c 0,23,24
 240 595 240 595 258.5 613.5 c 128,-1,0
 277 632 277 632 302 632 c 128,-1,1
EndSplineSet
EndChar

StartChar: asterisk
Encoding: 42 42 13
Width: 600
GlyphClass: 2
Flags: W
LayerCount: 2
Fore
SplineSet
298 372 m 1,0,-1
 218 400 l 2,1,2
 195 408 195 408 186.5 416.5 c 128,-1,3
 178 425 178 425 178 441 c 0,4,5
 178 464 178 464 196.5 483 c 128,-1,6
 215 502 215 502 238 502 c 0,7,8
 246 502 246 502 269 495 c 2,9,-1
 349 467 l 1,10,-1
 368 556 l 2,11,12
 383 622 383 622 432 622 c 0,13,14
 449 622 449 622 460.5 611 c 128,-1,15
 472 600 472 600 472 584 c 0,16,17
 472 573 472 573 468 556 c 2,18,-1
 449 467 l 1,19,-1
 541 495 l 2,20,21
 567 502 567 502 576 502 c 0,22,23
 592 502 592 502 603 490.5 c 128,-1,24
 614 479 614 479 614 462 c 0,25,26
 614 419 614 419 552 400 c 2,27,-1
 460 372 l 1,28,-1
 497 301 l 2,29,30
 508 279 508 279 508 267 c 0,31,32
 508 245 508 245 488.5 226.5 c 128,-1,33
 469 208 469 208 446 208 c 0,34,35
 431 208 431 208 422.5 214.5 c 128,-1,36
 414 221 414 221 403 242 c 2,37,-1
 367 314 l 1,38,-1
 299 242 l 2,39,40
 280 221 280 221 269 214.5 c 128,-1,41
 258 208 258 208 243 208 c 0,42,43
 225 208 225 208 213.5 219.5 c 128,-1,44
 202 231 202 231 202 248 c 0,45,46
 202 269 202 269 231 301 c 2,47,-1
 298 372 l 1,0,-1
EndSplineSet
EndChar

StartChar: plus
Encoding: 43 43 14
Width: 600
GlyphClass: 2
Flags: W
LayerCount: 2
Fore
SplineSet
399 230 m 1,0,-1
 365 66 l 2,1,2
 358 33 358 33 346 21 c 0,3,4
 327 0 327 0 301 0 c 0,5,6
 284 0 284 0 272.5 10.5 c 128,-1,7
 261 21 261 21 261 37 c 0,8,9
 261 48 261 48 265 66 c 2,10,-1
 299 230 l 1,11,-1
 158 230 l 2,12,13
 127 230 127 230 114 239 c 128,-1,14
 101 248 101 248 101 270 c 0,15,16
 101 296 101 296 124 316 c 0,17,18
 142 330 142 330 179 330 c 2,19,-1
 321 330 l 1,20,-1
 355 494 l 2,21,22
 370 560 370 560 420 560 c 0,23,24
 437 560 437 560 448.5 549 c 128,-1,25
 460 538 460 538 460 522 c 0,26,27
 460 513 460 513 455 494 c 2,28,-1
 421 330 l 1,29,-1
 562 330 l 2,30,31
 588 330 588 330 597 326 c 0,32,33
 619 318 619 318 619 290 c 0,34,35
 619 265 619 265 596 245 c 0,36,37
 578 230 578 230 541 230 c 2,38,-1
 399 230 l 1,0,-1
EndSplineSet
EndChar

StartChar: comma
Encoding: 44 44 15
Width: 600
GlyphClass: 2
Flags: W
LayerCount: 2
Fore
SplineSet
246 134 m 1,0,-1
 379 134 l 1,1,-1
 181 -134 l 2,2,3
 163 -158 163 -158 144 -158 c 0,4,5
 133 -158 133 -158 125.5 -151.5 c 128,-1,6
 118 -145 118 -145 118 -136 c 128,-1,7
 118 -127 118 -127 126 -111 c 2,8,-1
 246 134 l 1,0,-1
EndSplineSet
EndChar

StartChar: hyphen
Encoding: 45 45 16
Width: 600
GlyphClass: 2
Flags: W
LayerCount: 2
Fore
SplineSet
541 229 m 2,0,-1
 158 229 l 2,1,2
 127 229 127 229 114 238 c 128,-1,3
 101 247 101 247 101 269 c 0,4,5
 101 294 101 294 124 314 c 0,6,7
 141 329 141 329 179 329 c 2,8,-1
 562 329 l 2,9,10
 586 329 586 329 597 325 c 0,11,12
 606 322 606 322 612.5 311.5 c 128,-1,13
 619 301 619 301 619 290 c 0,14,15
 619 264 619 264 596 244 c 0,16,17
 578 229 578 229 541 229 c 2,0,-1
EndSplineSet
EndChar

StartChar: period
Encoding: 46 46 17
Width: 600
GlyphClass: 2
Flags: W
LayerCount: 2
Fore
SplineSet
305 -15 m 2,0,-1
 288 -15 l 2,1,2
 264 -15 264 -15 249 0 c 128,-1,3
 234 15 234 15 234 38 c 0,4,5
 234 68 234 68 259.5 92.5 c 128,-1,6
 285 117 285 117 316 117 c 2,7,-1
 333 117 l 2,8,9
 357 117 357 117 372 102.5 c 128,-1,10
 387 88 387 88 387 65 c 0,11,12
 387 34 387 34 362 9.5 c 128,-1,13
 337 -15 337 -15 305 -15 c 2,0,-1
EndSplineSet
EndChar

StartChar: slash
Encoding: 47 47 18
Width: 600
GlyphClass: 2
Flags: W
LayerCount: 2
Fore
SplineSet
636 610 m 2,0,-1
 171 -69 l 2,1,2
 154 -94 154 -94 141 -103.5 c 128,-1,3
 128 -113 128 -113 110 -113 c 0,4,5
 93 -113 93 -113 81 -101.5 c 128,-1,6
 69 -90 69 -90 69 -74 c 0,7,8
 69 -56 69 -56 90 -27 c 2,9,-1
 555 651 l 2,10,11
 572 676 572 676 585 685.5 c 128,-1,12
 598 695 598 695 616 695 c 0,13,14
 633 695 633 695 644.5 684 c 128,-1,15
 656 673 656 673 656 656 c 0,16,17
 656 640 656 640 636 610 c 2,0,-1
EndSplineSet
EndChar

StartChar: zero
Encoding: 48 48 19
Width: 600
GlyphClass: 2
Flags: W
LayerCount: 2
Fore
SplineSet
593 359 m 2,0,-1
 573 264 l 2,1,2
 543 124 543 124 447 40 c 0,3,4
 383 -15 383 -15 296 -15 c 0,5,6
 216 -15 216 -15 173 35.5 c 128,-1,7
 130 86 130 86 130 179 c 0,8,9
 130 222 130 222 139 264 c 2,10,-1
 159 359 l 2,11,12
 189 499 189 499 285 583 c 0,13,14
 348 638 348 638 436 638 c 0,15,16
 516 638 516 638 559 587.5 c 128,-1,17
 602 537 602 537 602 444 c 0,18,19
 602 401 602 401 593 359 c 2,0,-1
260 366 m 2,20,-1
 238 257 l 2,21,22
 231 229 231 229 231 195 c 0,23,24
 231 143 231 143 254 114 c 128,-1,25
 277 85 277 85 318 85 c 0,26,27
 371 85 371 85 413 132 c 128,-1,28
 455 179 455 179 471 257 c 2,29,-1
 494 366 l 2,30,31
 501 394 501 394 501 428 c 0,32,33
 501 480 501 480 478 509 c 128,-1,34
 455 538 455 538 414 538 c 0,35,36
 361 538 361 538 319 491 c 128,-1,37
 277 444 277 444 260 366 c 2,20,-1
EndSplineSet
EndChar

StartChar: one
Encoding: 49 49 20
Width: 600
GlyphClass: 2
Flags: W
LayerCount: 2
Fore
SplineSet
486 638 m 1,0,-1
 371 100 l 1,1,-1
 472 100 l 2,2,3
 496 100 496 100 507 96 c 0,4,5
 516 93 516 93 522.5 82.5 c 128,-1,6
 529 72 529 72 529 61 c 0,7,8
 529 35 529 35 506 15 c 0,9,10
 487 0 487 0 451 0 c 2,11,-1
 150 0 l 2,12,13
 119 0 119 0 106 9.5 c 128,-1,14
 93 19 93 19 93 40 c 0,15,16
 93 65 93 65 116 85 c 0,17,18
 133 100 133 100 171 100 c 2,19,-1
 272 100 l 1,20,-1
 358 509 l 1,21,-1
 267 486 l 2,22,23
 242 480 242 480 233 480 c 0,24,25
 217 480 217 480 207 491 c 128,-1,26
 197 502 197 502 197 520 c 0,27,28
 197 546 197 546 212 560.5 c 128,-1,29
 227 575 227 575 262 583 c 2,30,-1
 486 638 l 1,0,-1
EndSplineSet
EndChar

StartChar: two
Encoding: 50 50 21
Width: 600
GlyphClass: 2
Flags: W
LayerCount: 2
Fore
SplineSet
228 100 m 1,0,-1
 430 100 l 1,1,2
 445 154 445 154 491 154 c 0,3,4
 508 154 508 154 519.5 143 c 128,-1,5
 531 132 531 132 531 116 c 0,6,7
 531 111 531 111 527 88 c 2,8,-1
 508 0 l 1,9,-1
 54 0 l 1,10,-1
 76 105 l 1,11,12
 292 257 292 257 350 301 c 0,13,14
 449 377 449 377 474.5 405 c 128,-1,15
 500 433 500 433 500 465 c 128,-1,16
 500 497 500 497 472.5 517.5 c 128,-1,17
 445 538 445 538 403 538 c 0,18,19
 340 538 340 538 297 497 c 0,20,21
 284 485 284 485 265 451 c 0,22,23
 250 422 250 422 214 422 c 0,24,25
 197 422 197 422 185 433 c 128,-1,26
 173 444 173 444 173 460 c 0,27,28
 173 483 173 483 198 519 c 128,-1,29
 223 555 223 555 258 582 c 0,30,31
 331 638 331 638 426 638 c 0,32,33
 504 638 504 638 553 595 c 128,-1,34
 602 552 602 552 602 484 c 0,35,36
 602 412 602 412 551 352 c 0,37,38
 511 307 511 307 352 189 c 2,39,-1
 276 135 l 1,40,-1
 228 100 l 1,0,-1
EndSplineSet
EndChar

StartChar: three
Encoding: 51 51 22
Width: 600
GlyphClass: 2
Flags: W
LayerCount: 2
Fore
SplineSet
357 383 m 2,0,-1
 398 383 l 2,1,2
 440 383 440 383 473.5 412 c 128,-1,3
 507 441 507 441 507 477 c 0,4,5
 507 505 507 505 481 521.5 c 128,-1,6
 455 538 455 538 410 538 c 0,7,8
 368 538 368 538 341 528 c 128,-1,9
 314 518 314 518 284 492 c 0,10,11
 267 477 267 477 246 477 c 0,12,13
 229 477 229 477 217.5 488.5 c 128,-1,14
 206 500 206 500 206 516 c 0,15,16
 206 563 206 563 278 600.5 c 128,-1,17
 350 638 350 638 438 638 c 0,18,19
 517 638 517 638 563 599 c 128,-1,20
 609 560 609 560 609 495 c 0,21,22
 609 397 609 397 494 336 c 1,23,24
 492 336 492 336 487 333 c 1,25,26
 571 287 571 287 571 211 c 0,27,28
 571 175 571 175 549.5 132 c 128,-1,29
 528 89 528 89 494 58 c 0,30,31
 452 19 452 19 399 2 c 128,-1,32
 346 -15 346 -15 268 -15 c 0,33,34
 184 -15 184 -15 132 5.5 c 128,-1,35
 80 26 80 26 80 58 c 0,36,37
 80 83 80 83 98.5 101.5 c 128,-1,38
 117 120 117 120 142 120 c 0,39,40
 155 120 155 120 171 108 c 0,41,42
 201 85 201 85 286 85 c 0,43,44
 382 85 382 85 426 119 c 0,45,46
 469 152 469 152 469 201 c 0,47,48
 469 222 469 222 453 242.5 c 128,-1,49
 437 263 437 263 411 275 c 0,50,51
 388 284 388 284 337 287 c 0,52,53
 294 290 294 290 294 324 c 0,54,55
 294 347 294 347 313 365 c 128,-1,56
 332 383 332 383 357 383 c 2,0,-1
EndSplineSet
EndChar

StartChar: four
Encoding: 52 52 23
Width: 600
GlyphClass: 2
Flags: W
LayerCount: 2
Fore
SplineSet
579 622 m 1,0,-1
 497 238 l 1,1,2
 549 238 549 238 549 198 c 0,3,4
 549 173 549 173 526 153 c 0,5,6
 508 138 508 138 476 138 c 1,7,-1
 468 100 l 1,8,9
 520 100 520 100 520 60 c 0,10,11
 520 35 520 35 497 15 c 0,12,13
 478 0 478 0 441 0 c 2,14,-1
 309 0 l 2,15,16
 278 0 278 0 265 9.5 c 128,-1,17
 252 19 252 19 252 40 c 0,18,19
 252 65 252 65 275 85 c 0,20,21
 294 100 294 100 330 100 c 2,22,-1
 368 100 l 1,23,-1
 376 138 l 1,24,-1
 104 138 l 1,25,-1
 122 221 l 1,26,-1
 448 622 l 1,27,-1
 579 622 l 1,0,-1
397 238 m 1,28,-1
 449 480 l 1,29,-1
 248 238 l 1,30,-1
 397 238 l 1,28,-1
EndSplineSet
EndChar

StartChar: five
Encoding: 53 53 24
Width: 600
GlyphClass: 2
Flags: W
LayerCount: 2
Fore
SplineSet
330 522 m 1,0,-1
 306 407 l 1,1,2
 366 424 366 424 410 424 c 0,3,4
 486 424 486 424 532 377.5 c 128,-1,5
 578 331 578 331 578 255 c 0,6,7
 578 156 578 156 512 79 c 0,8,9
 469 30 469 30 413 7.5 c 128,-1,10
 357 -15 357 -15 274 -15 c 0,11,12
 192 -15 192 -15 137.5 10 c 128,-1,13
 83 35 83 35 83 72 c 0,14,15
 83 96 83 96 102 114.5 c 128,-1,16
 121 133 121 133 145 133 c 0,17,18
 162 133 162 133 177 118 c 0,19,20
 196 99 196 99 221 92 c 128,-1,21
 246 85 246 85 295 85 c 0,22,23
 403 85 403 85 446 142 c 0,24,25
 476 181 476 181 476 236 c 0,26,27
 476 276 476 276 452 300 c 128,-1,28
 428 324 428 324 387 324 c 0,29,30
 334 324 334 324 258 290 c 0,31,32
 239 282 239 282 229 282 c 0,33,34
 212 282 212 282 200 294 c 128,-1,35
 188 306 188 306 189 322 c 0,36,37
 189 326 189 326 191 338 c 2,38,-1
 252 622 l 1,39,-1
 553 622 l 2,40,41
 576 622 576 622 588 618 c 0,42,43
 610 610 610 610 610 583 c 0,44,45
 610 557 610 557 587 537 c 0,46,47
 571 522 571 522 532 522 c 2,48,-1
 330 522 l 1,0,-1
EndSplineSet
EndChar

StartChar: six
Encoding: 54 54 25
Width: 600
GlyphClass: 2
Flags: W
LayerCount: 2
Fore
SplineSet
276 324 m 1,0,1
 359 394 359 394 428 394 c 0,2,3
 493 394 493 394 537 349.5 c 128,-1,4
 581 305 581 305 581 238 c 0,5,6
 581 144 581 144 518 70 c 0,7,8
 446 -15 446 -15 328 -15 c 0,9,10
 154 -15 154 -15 154 180 c 0,11,12
 154 328 154 328 231 443 c 0,13,14
 297 538 297 538 398 594 c 0,15,16
 477 638 477 638 559 638 c 0,17,18
 606 638 606 638 634.5 623 c 128,-1,19
 663 608 663 608 663 583 c 0,20,21
 663 560 663 560 643.5 541 c 128,-1,22
 624 522 624 522 600 522 c 0,23,24
 586 522 586 522 566 530 c 0,25,26
 554 535 554 535 543 535 c 0,27,28
 475 535 475 535 404.5 487 c 128,-1,29
 334 439 334 439 295 366 c 0,30,31
 289 354 289 354 276 324 c 1,0,1
262 209 m 1,32,33
 261 202 261 202 261 194 c 0,34,35
 261 141 261 141 283 110 c 0,36,37
 305 85 305 85 352 85 c 0,38,39
 416 85 416 85 450 134 c 0,40,41
 478 171 478 171 478 214 c 0,42,43
 478 248 478 248 456 271 c 128,-1,44
 434 294 434 294 401 294 c 128,-1,45
 368 294 368 294 329.5 270.5 c 128,-1,46
 291 247 291 247 262 209 c 1,32,33
EndSplineSet
EndChar

StartChar: seven
Encoding: 55 55 26
Width: 600
GlyphClass: 2
Flags: W
LayerCount: 2
Fore
SplineSet
513 522 m 1,0,-1
 285 522 l 1,1,2
 270 468 270 468 224 468 c 0,3,4
 207 468 207 468 195.5 479 c 128,-1,5
 184 490 184 490 184 506 c 0,6,7
 184 517 184 517 188 534 c 2,8,-1
 207 622 l 1,9,-1
 640 622 l 1,10,-1
 619 523 l 1,11,-1
 359 48 l 2,12,13
 332 -1 332 -1 295 -1 c 0,14,15
 279 -1 279 -1 266.5 10.5 c 128,-1,16
 254 22 254 22 254 37 c 0,17,18
 254 51 254 51 270 81 c 2,19,-1
 513 522 l 1,0,-1
EndSplineSet
EndChar

StartChar: eight
Encoding: 56 56 27
Width: 600
GlyphClass: 2
Flags: W
LayerCount: 2
Fore
SplineSet
487 319 m 1,0,1
 556 271 556 271 556 198 c 0,2,3
 556 126 556 126 499 64 c 0,4,5
 465 28 465 28 410 6.5 c 128,-1,6
 355 -15 355 -15 295 -15 c 0,7,8
 211 -15 211 -15 162.5 23.5 c 128,-1,9
 114 62 114 62 114 129 c 0,10,11
 114 245 114 245 248 319 c 1,12,13
 185 368 185 368 185 429 c 0,14,15
 185 463 185 463 205 502 c 128,-1,16
 225 541 225 541 258 570 c 0,17,18
 332 638 332 638 435 638 c 0,19,20
 511 638 511 638 559.5 596 c 128,-1,21
 608 554 608 554 608 489 c 0,22,23
 608 390 608 390 487 319 c 1,0,1
413 538 m 0,24,25
 359 538 359 538 322 507.5 c 128,-1,26
 285 477 285 477 285 433 c 0,27,28
 285 402 285 402 310 383 c 128,-1,29
 335 364 335 364 376 364 c 0,30,31
 429 364 429 364 467 394 c 128,-1,32
 505 424 505 424 505 466 c 0,33,34
 505 500 505 500 480.5 519 c 128,-1,35
 456 538 456 538 413 538 c 0,24,25
357 263 m 0,36,37
 301 263 301 263 259.5 231.5 c 128,-1,38
 218 200 218 200 218 158 c 0,39,40
 218 124 218 124 245 104.5 c 128,-1,41
 272 85 272 85 318 85 c 0,42,43
 375 85 375 85 415.5 115 c 128,-1,44
 456 145 456 145 456 187 c 0,45,46
 456 220 456 220 428 241.5 c 128,-1,47
 400 263 400 263 357 263 c 0,36,37
EndSplineSet
EndChar

StartChar: nine
Encoding: 57 57 28
Width: 600
GlyphClass: 2
Flags: W
LayerCount: 2
Fore
SplineSet
502 299 m 1,0,1
 420 229 420 229 350 229 c 0,2,3
 285 229 285 229 241 273.5 c 128,-1,4
 197 318 197 318 197 385 c 0,5,6
 197 479 197 479 260 553 c 0,7,8
 333 638 333 638 450 638 c 0,9,10
 624 638 624 638 624 443 c 0,11,12
 624 296 624 296 547 180 c 0,13,14
 481 85 481 85 380 29 c 0,15,16
 301 -15 301 -15 219 -15 c 0,17,18
 172 -15 172 -15 143.5 0 c 128,-1,19
 115 15 115 15 115 40 c 0,20,21
 115 63 115 63 134.5 82 c 128,-1,22
 154 101 154 101 178 101 c 0,23,24
 192 101 192 101 212 93 c 0,25,26
 224 88 224 88 235 88 c 0,27,28
 303 88 303 88 373.5 136 c 128,-1,29
 444 184 444 184 483 257 c 0,30,31
 489 269 489 269 502 299 c 1,0,1
516 414 m 1,32,33
 517 420 517 420 517 428 c 0,34,35
 517 484 517 484 495 513 c 0,36,37
 473 538 473 538 426 538 c 0,38,39
 362 538 362 538 328 489 c 0,40,41
 300 449 300 449 300 408 c 0,42,43
 300 374 300 374 322 351.5 c 128,-1,44
 344 329 344 329 377 329 c 128,-1,45
 410 329 410 329 448.5 352.5 c 128,-1,46
 487 376 487 376 516 414 c 1,32,33
EndSplineSet
EndChar

StartChar: colon
Encoding: 58 58 29
Width: 600
GlyphClass: 2
Flags: W
LayerCount: 2
Fore
SplineSet
305 -15 m 2,0,-1
 288 -15 l 2,1,2
 264 -15 264 -15 249 0 c 128,-1,3
 234 15 234 15 234 38 c 0,4,5
 234 68 234 68 259.5 92.5 c 128,-1,6
 285 117 285 117 316 117 c 2,7,-1
 333 117 l 2,8,9
 357 117 357 117 372 102.5 c 128,-1,10
 387 88 387 88 387 65 c 0,11,12
 387 34 387 34 362 9.5 c 128,-1,13
 337 -15 337 -15 305 -15 c 2,0,-1
373 304 m 2,14,-1
 356 304 l 2,15,16
 332 304 332 304 317 319 c 128,-1,17
 302 334 302 334 302 357 c 0,18,19
 302 388 302 388 327 412.5 c 128,-1,20
 352 437 352 437 384 437 c 2,21,-1
 401 437 l 2,22,23
 425 437 425 437 440 422 c 128,-1,24
 455 407 455 407 455 384 c 0,25,26
 455 353 455 353 430 328.5 c 128,-1,27
 405 304 405 304 373 304 c 2,14,-1
EndSplineSet
EndChar

StartChar: semicolon
Encoding: 59 59 30
Width: 600
GlyphClass: 2
Flags: W
LayerCount: 2
Fore
SplineSet
247 134 m 1,0,-1
 379 134 l 1,1,-1
 181 -134 l 2,2,3
 163 -158 163 -158 144 -158 c 0,4,5
 133 -158 133 -158 125.5 -151.5 c 128,-1,6
 118 -145 118 -145 118 -136 c 128,-1,7
 118 -127 118 -127 126 -111 c 2,8,-1
 247 134 l 1,0,-1
368 437 m 0,9,10
 431 437 431 437 431 384 c 0,11,12
 431 350 431 350 404.5 327 c 128,-1,13
 378 304 378 304 340 304 c 0,14,15
 278 304 278 304 278 357 c 0,16,17
 278 390 278 390 304.5 413.5 c 128,-1,18
 331 437 331 437 368 437 c 0,9,10
EndSplineSet
EndChar

StartChar: less
Encoding: 60 60 31
Width: 600
GlyphClass: 2
Flags: W
LayerCount: 2
Fore
SplineSet
311 279 m 1,0,-1
 543 143 l 2,1,2
 567 128 567 128 567 109 c 0,3,4
 567 96 567 96 557 81 c 2,5,-1
 556 79 l 1,6,7
 538 54 538 54 514 54 c 0,8,9
 501 54 501 54 486 63 c 2,10,-1
 102 280 l 1,11,-1
 577 492 l 2,12,13
 597 501 597 501 609 501 c 0,14,15
 633 501 633 501 640 476 c 1,16,-1
 641 474 l 1,17,18
 642 470 642 470 642 463 c 0,19,20
 642 431 642 431 600 412 c 2,21,-1
 311 279 l 1,0,-1
EndSplineSet
EndChar

StartChar: equal
Encoding: 61 61 32
Width: 600
GlyphClass: 2
Flags: W
LayerCount: 2
Fore
SplineSet
198 422 m 2,0,-1
 581 422 l 2,1,2
 607 422 607 422 616 418 c 0,3,4
 638 410 638 410 638 382 c 0,5,6
 638 357 638 357 615 337 c 0,7,8
 598 322 598 322 560 322 c 2,9,-1
 177 322 l 2,10,11
 146 322 146 322 133 331 c 128,-1,12
 120 340 120 340 120 362 c 0,13,14
 120 388 120 388 143 408 c 0,15,16
 160 422 160 422 198 422 c 2,0,-1
159 238 m 2,17,-1
 542 238 l 2,18,19
 568 238 568 238 577 234 c 0,20,21
 599 226 599 226 599 198 c 0,22,23
 599 171 599 171 576 153 c 0,24,25
 558 138 558 138 521 138 c 2,26,-1
 138 138 l 2,27,28
 107 138 107 138 94 147 c 128,-1,29
 81 156 81 156 81 178 c 0,30,31
 81 204 81 204 104 224 c 0,32,33
 122 238 122 238 159 238 c 2,17,-1
EndSplineSet
EndChar

StartChar: greater
Encoding: 62 62 33
Width: 600
GlyphClass: 2
Flags: W
LayerCount: 2
Fore
SplineSet
407 275 m 1,0,-1
 175 412 l 2,1,2
 151 425 151 425 151 445 c 0,3,4
 151 459 151 459 161 473 c 1,5,-1
 162 475 l 2,6,7
 179 500 179 500 204 500 c 0,8,9
 217 500 217 500 232 491 c 2,10,-1
 616 274 l 1,11,-1
 141 62 l 2,12,13
 122 53 122 53 109 53 c 0,14,15
 85 53 85 53 78 78 c 1,16,-1
 77 80 l 1,17,18
 76 84 76 84 76 91 c 0,19,20
 76 123 76 123 118 142 c 2,21,-1
 407 275 l 1,0,-1
EndSplineSet
EndChar

StartChar: question
Encoding: 63 63 34
Width: 600
GlyphClass: 2
Flags: W
LayerCount: 2
Fore
SplineSet
201 460 m 2,0,-1
 218 539 l 1,1,2
 300 574 300 574 343.5 586 c 128,-1,3
 387 598 387 598 436 598 c 0,4,5
 516 598 516 598 562 558.5 c 128,-1,6
 608 519 608 519 608 450 c 0,7,8
 608 364 608 364 547 309 c 0,9,10
 498 267 498 267 401 228 c 1,11,12
 383 174 383 174 339 174 c 0,13,14
 323 174 323 174 311 185 c 128,-1,15
 299 196 299 196 299 211 c 0,16,17
 299 221 299 221 304 240 c 2,18,-1
 315 296 l 1,19,20
 428 336 428 336 467 363 c 128,-1,21
 506 390 506 390 506 428 c 0,22,23
 506 461 506 461 482 479.5 c 128,-1,24
 458 498 458 498 415 498 c 0,25,26
 358 498 358 498 304 474 c 1,27,-1
 301 460 l 2,28,29
 294 427 294 427 282 415 c 0,30,31
 263 394 263 394 237 394 c 0,32,33
 220 394 220 394 208.5 404.5 c 128,-1,34
 197 415 197 415 197 431 c 0,35,36
 197 443 197 443 201 460 c 2,0,-1
308 -15 m 2,37,-1
 290 -15 l 2,38,39
 266 -15 266 -15 251 0 c 128,-1,40
 236 15 236 15 236 38 c 0,41,42
 236 68 236 68 261.5 92.5 c 128,-1,43
 287 117 287 117 318 117 c 2,44,-1
 336 117 l 2,45,46
 359 117 359 117 374 102.5 c 128,-1,47
 389 88 389 88 389 65 c 0,48,49
 389 34 389 34 364 9.5 c 128,-1,50
 339 -15 339 -15 308 -15 c 2,37,-1
EndSplineSet
EndChar

StartChar: at
Encoding: 64 64 35
Width: 600
GlyphClass: 2
Flags: W
LayerCount: 2
Fore
SplineSet
492 398 m 1,0,-1
 498 429 l 2,1,2
 501 444 501 444 501 458 c 0,3,4
 501 496 501 496 478.5 518.5 c 128,-1,5
 456 541 456 541 417 541 c 0,6,7
 354 541 354 541 298 477 c 128,-1,8
 242 413 242 413 222 317 c 2,9,-1
 189 161 l 2,10,11
 179 117 179 117 179 78 c 0,12,13
 179 -13 179 -13 220 -51 c 0,14,15
 244 -74 244 -74 289 -74 c 0,16,17
 362 -74 362 -74 399 -42 c 0,18,19
 420 -25 420 -25 434 -25 c 128,-1,20
 448 -25 448 -25 457 -34 c 128,-1,21
 466 -43 466 -43 466 -57 c 0,22,23
 466 -95 466 -95 406.5 -123.5 c 128,-1,24
 347 -152 347 -152 269 -152 c 0,25,26
 174 -152 174 -152 133 -85 c 0,27,28
 98 -27 98 -27 98 59 c 0,29,30
 98 108 98 108 108 154 c 2,31,-1
 144 323 l 2,32,33
 172 452 172 452 253.5 536 c 128,-1,34
 335 620 335 620 433 620 c 0,35,36
 501 620 501 620 541.5 580 c 128,-1,37
 582 540 582 540 582 473 c 0,38,39
 582 454 582 454 577 429 c 2,40,-1
 517 148 l 1,41,42
 534 140 534 140 534 122 c 0,43,44
 534 100 534 100 515 84 c 0,45,46
 501 72 501 72 469 72 c 2,47,-1
 396 72 l 2,48,49
 336 72 336 72 299 106 c 128,-1,50
 262 140 262 140 262 196 c 0,51,52
 262 273 262 273 329 332 c 128,-1,53
 396 391 396 391 492 398 c 1,0,-1
440 155 m 1,54,-1
 474 316 l 1,55,56
 418 311 418 311 380.5 281 c 128,-1,57
 343 251 343 251 343 211 c 0,58,59
 343 186 343 186 362.5 169.5 c 128,-1,60
 382 153 382 153 413 153 c 0,61,62
 426 153 426 153 440 155 c 1,54,-1
EndSplineSet
EndChar

StartChar: A
Encoding: 65 65 36
Width: 600
GlyphClass: 2
Flags: W
LayerCount: 2
Fore
SplineSet
450 158 m 1,0,-1
 212 158 l 1,1,-1
 176 100 l 1,2,-1
 199 100 l 2,3,4
 223 100 223 100 234 96 c 0,5,6
 256 89 256 89 256 60 c 0,7,8
 256 35 256 35 233 15 c 0,9,10
 216 0 216 0 178 0 c 2,11,-1
 46 0 l 2,12,13
 15 0 15 0 2 9 c 128,-1,14
 -11 18 -11 18 -11 40 c 0,15,16
 -11 67 -11 67 12 85 c 0,17,18
 31 100 31 100 68 100 c 1,19,-1
 304 483 l 1,20,-1
 241 483 l 2,21,22
 210 483 210 483 197 492 c 128,-1,23
 184 501 184 501 184 523 c 0,24,25
 184 549 184 549 207 569 c 0,26,27
 224 583 224 583 262 583 c 2,28,-1
 478 583 l 1,29,-1
 575 100 l 1,30,31
 599 100 599 100 611 96 c 0,32,33
 633 88 633 88 633 60 c 0,34,35
 633 33 633 33 610 15 c 0,36,37
 593 0 593 0 555 0 c 2,38,-1
 416 0 l 2,39,40
 386 0 386 0 373 9 c 128,-1,41
 360 18 360 18 360 40 c 0,42,43
 360 65 360 65 383 85 c 0,44,45
 400 100 400 100 438 100 c 2,46,-1
 461 100 l 1,47,-1
 450 158 l 1,0,-1
430 258 m 1,48,-1
 392 450 l 1,49,-1
 273 258 l 1,50,-1
 430 258 l 1,48,-1
EndSplineSet
EndChar

StartChar: B
Encoding: 66 66 37
Width: 600
GlyphClass: 2
Flags: W
LayerCount: 2
Fore
SplineSet
115 100 m 1,0,-1
 196 483 l 1,1,-1
 181 483 l 2,2,3
 150 483 150 483 137.5 492 c 128,-1,4
 125 501 125 501 125 523 c 0,5,6
 125 548 125 548 148 569 c 0,7,8
 166 583 166 583 203 583 c 2,9,-1
 455 583 l 2,10,11
 538 583 538 583 582 539 c 0,12,13
 620 501 620 501 620 448 c 0,14,15
 620 365 620 365 529 305 c 1,16,17
 608 262 608 262 608 189 c 0,18,19
 608 119 608 119 549 63 c 0,20,21
 483 0 483 0 374 0 c 2,22,-1
 79 0 l 2,23,24
 48 0 48 0 35 9.5 c 128,-1,25
 22 19 22 19 22 40 c 0,26,27
 22 65 22 65 45 85 c 0,28,29
 62 100 62 100 100 100 c 2,30,-1
 115 100 l 1,0,-1
266 342 m 1,31,-1
 379 342 l 2,32,33
 438 342 438 342 478 367.5 c 128,-1,34
 518 393 518 393 518 431 c 0,35,36
 518 456 518 456 494.5 469.5 c 128,-1,37
 471 483 471 483 429 483 c 2,38,-1
 296 483 l 1,39,-1
 266 342 l 1,31,-1
215 100 m 1,40,-1
 390 100 l 2,41,42
 504 100 504 100 504 166 c 0,43,44
 504 201 504 201 470.5 221.5 c 128,-1,45
 437 242 437 242 380 242 c 2,46,-1
 245 242 l 1,47,-1
 215 100 l 1,40,-1
EndSplineSet
EndChar

StartChar: C
Encoding: 67 67 38
Width: 600
GlyphClass: 2
Flags: W
LayerCount: 2
Fore
SplineSet
567 563 m 2,0,-1
 576 559 l 1,1,2
 600 583 600 583 623 583 c 0,3,4
 640 583 640 583 651.5 572 c 128,-1,5
 663 561 663 561 663 545 c 0,6,7
 663 534 663 534 659 517 c 2,8,-1
 641 433 l 2,9,10
 633 399 633 399 622 388 c 0,11,12
 603 367 603 367 577 367 c 0,13,14
 559 367 559 367 548 378 c 128,-1,15
 537 389 537 389 538 406 c 2,16,-1
 539 425 l 2,17,18
 540 453 540 453 502.5 475 c 128,-1,19
 465 497 465 497 415 497 c 0,20,21
 338 497 338 497 277 445.5 c 128,-1,22
 216 394 216 394 200 315 c 2,23,-1
 186 251 l 2,24,25
 182 234 182 234 182 214 c 0,26,27
 182 155 182 155 226.5 120.5 c 128,-1,28
 271 86 271 86 347 86 c 0,29,30
 419 86 419 86 463 109 c 0,31,32
 478 118 478 118 508 143 c 0,33,34
 528 159 528 159 547 159 c 0,35,36
 564 159 564 159 576 147 c 128,-1,37
 588 135 588 135 588 118 c 0,38,39
 588 90 588 90 550 59 c 0,40,41
 463 -14 463 -14 324 -14 c 0,42,43
 213 -14 213 -14 146.5 43 c 128,-1,44
 80 100 80 100 80 195 c 0,45,46
 80 222 80 222 86 249 c 2,47,-1
 100 315 l 2,48,49
 126 435 126 435 221 516 c 128,-1,50
 316 597 316 597 432 597 c 0,51,52
 502 597 502 597 567 563 c 2,0,-1
EndSplineSet
EndChar

StartChar: D
Encoding: 68 68 39
Width: 600
GlyphClass: 2
Flags: W
LayerCount: 2
Fore
SplineSet
96 100 m 1,0,-1
 177 483 l 1,1,2
 126 483 126 483 126 523 c 0,3,4
 126 548 126 548 149 569 c 0,5,6
 167 583 167 583 204 583 c 2,7,-1
 417 583 l 2,8,9
 509 583 509 583 565.5 524 c 128,-1,10
 622 465 622 465 622 369 c 0,11,12
 622 334 622 334 615 305 c 2,13,-1
 605 258 l 2,14,15
 582 148 582 148 497 75 c 0,16,17
 410 0 410 0 285 0 c 2,18,-1
 80 0 l 2,19,20
 49 0 49 0 36 9.5 c 128,-1,21
 23 19 23 19 23 40 c 0,22,23
 23 65 23 65 46 85 c 0,24,25
 64 100 64 100 96 100 c 1,0,-1
196 100 m 1,26,-1
 306 100 l 2,27,28
 386 100 386 100 440 144 c 0,29,30
 490 187 490 187 506 261 c 2,31,-1
 516 307 l 2,32,33
 520 326 520 326 520 350 c 0,34,35
 520 420 520 420 475 457 c 0,36,37
 446 483 446 483 387 483 c 2,38,-1
 277 483 l 1,39,-1
 196 100 l 1,26,-1
EndSplineSet
EndChar

StartChar: E
Encoding: 69 69 40
Width: 600
GlyphClass: 2
Flags: W
LayerCount: 2
Fore
SplineSet
246 243 m 1,0,-1
 216 100 l 1,1,-1
 471 100 l 1,2,-1
 483 152 l 2,3,4
 489 185 489 185 502 198 c 0,5,6
 520 219 520 219 546 219 c 0,7,8
 563 219 563 219 575 208.5 c 128,-1,9
 587 198 587 198 587 182 c 0,10,11
 587 176 587 176 583 152 c 2,12,-1
 550 0 l 1,13,-1
 80 0 l 2,14,15
 23 0 23 0 23 40 c 0,16,17
 23 67 23 67 46 85 c 0,18,19
 63 100 63 100 101 100 c 2,20,-1
 116 100 l 1,21,-1
 197 483 l 1,22,-1
 182 483 l 2,23,24
 151 483 151 483 138 492 c 128,-1,25
 125 501 125 501 125 523 c 0,26,27
 125 550 125 550 149 569 c 0,28,29
 165 583 165 583 204 583 c 2,30,-1
 652 583 l 1,31,-1
 620 433 l 2,32,33
 613 399 613 399 601 387 c 0,34,35
 582 366 582 366 556 366 c 0,36,37
 539 366 539 366 527.5 377 c 128,-1,38
 516 388 516 388 516 404 c 0,39,40
 516 416 516 416 520 433 c 2,41,-1
 531 483 l 1,42,-1
 297 483 l 1,43,-1
 267 342 l 1,44,-1
 352 342 l 1,45,-1
 353 349 l 2,46,47
 360 383 360 383 372 395 c 0,48,49
 393 416 393 416 417 416 c 0,50,51
 434 416 434 416 445.5 405 c 128,-1,52
 457 394 457 394 457 378 c 0,53,54
 457 369 457 369 453 349 c 2,55,-1
 428 236 l 2,56,57
 421 203 421 203 409 190 c 0,58,59
 389 170 389 170 365 170 c 0,60,61
 348 170 348 170 336.5 180.5 c 128,-1,62
 325 191 325 191 325 207 c 0,63,64
 325 217 325 217 329 236 c 2,65,-1
 331 243 l 1,66,-1
 246 243 l 1,0,-1
EndSplineSet
EndChar

StartChar: F
Encoding: 70 70 41
Width: 600
GlyphClass: 2
Flags: W
LayerCount: 2
Fore
SplineSet
246 243 m 1,0,-1
 216 100 l 1,1,-1
 315 100 l 2,2,3
 339 100 339 100 350 96 c 0,4,5
 372 89 372 89 372 61 c 0,6,7
 372 35 372 35 349 15 c 0,8,9
 330 0 330 0 294 0 c 2,10,-1
 80 0 l 2,11,12
 49 0 49 0 36 9.5 c 128,-1,13
 23 19 23 19 23 40 c 0,14,15
 23 65 23 65 46 85 c 0,16,17
 65 100 65 100 101 100 c 2,18,-1
 116 100 l 1,19,-1
 197 483 l 1,20,-1
 182 483 l 2,21,22
 151 483 151 483 138 492 c 128,-1,23
 125 501 125 501 125 523 c 0,24,25
 125 548 125 548 148 569 c 0,26,27
 165 583 165 583 204 583 c 2,28,-1
 674 583 l 1,29,-1
 642 432 l 2,30,31
 635 399 635 399 623 387 c 0,32,33
 602 366 602 366 578 366 c 0,34,35
 561 366 561 366 549.5 376.5 c 128,-1,36
 538 387 538 387 538 403 c 0,37,38
 538 410 538 410 542 432 c 2,39,-1
 553 483 l 1,40,-1
 297 483 l 1,41,-1
 267 342 l 1,42,-1
 351 342 l 1,43,-1
 353 349 l 2,44,45
 359 379 359 379 372 394 c 0,46,47
 391 415 391 415 417 415 c 0,48,49
 434 415 434 415 445.5 404 c 128,-1,50
 457 393 457 393 457 377 c 0,51,52
 457 368 457 368 452 349 c 2,53,-1
 428 236 l 2,54,55
 422 203 422 203 409 190 c 0,56,57
 390 169 390 169 364 169 c 0,58,59
 347 169 347 169 336 179.5 c 128,-1,60
 325 190 325 190 325 206 c 0,61,62
 325 214 325 214 329 236 c 2,63,-1
 331 243 l 1,64,-1
 246 243 l 1,0,-1
EndSplineSet
EndChar

StartChar: G
Encoding: 71 71 42
Width: 600
GlyphClass: 2
Flags: W
LayerCount: 2
Fore
SplineSet
588 180 m 1,0,-1
 560 48 l 1,1,2
 485 12 485 12 436 -1 c 128,-1,3
 387 -14 387 -14 327 -14 c 0,4,5
 216 -14 216 -14 149 32 c 0,6,7
 79 79 79 79 79 184 c 0,8,9
 79 217 79 217 86 246 c 2,10,-1
 101 317 l 2,11,12
 126 437 126 437 228 520 c 0,13,14
 323 597 323 597 444 597 c 0,15,16
 526 597 526 597 583 565 c 1,17,18
 604 597 604 597 630 597 c 0,19,20
 646 597 646 597 656.5 586.5 c 128,-1,21
 667 576 667 576 667 560 c 0,22,23
 667 550 667 550 663 531 c 2,24,-1
 646 453 l 2,25,26
 639 420 639 420 627 408 c 0,27,28
 608 387 608 387 582 387 c 0,29,30
 559 387 559 387 551 402 c 0,31,32
 546 409 546 409 544 440 c 0,33,34
 542 466 542 466 510 481.5 c 128,-1,35
 478 497 478 497 423 497 c 0,36,37
 340 497 340 497 278.5 447.5 c 128,-1,38
 217 398 217 398 201 317 c 2,39,-1
 187 253 l 2,40,41
 181 224 181 224 181 199 c 0,42,43
 181 145 181 145 223 115.5 c 128,-1,44
 265 86 265 86 342 86 c 0,45,46
 411 86 411 86 474 111 c 1,47,-1
 488 180 l 1,48,-1
 389 180 l 2,49,50
 358 180 358 180 345 189 c 128,-1,51
 332 198 332 198 332 220 c 0,52,53
 332 246 332 246 355 266 c 0,54,55
 372 280 372 280 410 280 c 2,56,-1
 585 280 l 2,57,58
 608 280 608 280 620 276 c 0,59,60
 642 269 642 269 642 241 c 0,61,62
 642 195 642 195 588 180 c 1,0,-1
EndSplineSet
EndChar

StartChar: H
Encoding: 72 72 43
Width: 600
GlyphClass: 2
Flags: W
LayerCount: 2
Fore
SplineSet
460 241 m 1,0,-1
 246 241 l 1,1,-1
 216 100 l 1,2,-1
 230 100 l 2,3,4
 254 100 254 100 265 96 c 0,5,6
 287 89 287 89 287 60 c 0,7,8
 287 35 287 35 264 15 c 0,9,10
 246 0 246 0 209 0 c 2,11,-1
 88 0 l 2,12,13
 58 0 58 0 45 9 c 128,-1,14
 32 18 32 18 32 40 c 0,15,16
 32 65 32 65 55 85 c 0,17,18
 72 100 72 100 110 100 c 2,19,-1
 116 100 l 1,20,-1
 197 483 l 1,21,22
 155 486 155 486 155 523 c 0,23,24
 155 548 155 548 178 569 c 0,25,26
 196 583 196 583 233 583 c 2,27,-1
 333 583 l 2,28,29
 357 583 357 583 368 579 c 0,30,31
 390 572 390 572 390 544 c 128,-1,32
 390 516 390 516 367 498 c 0,33,34
 348 483 348 483 312 483 c 2,35,-1
 297 483 l 1,36,-1
 267 341 l 1,37,-1
 481 341 l 1,38,-1
 511 483 l 1,39,-1
 496 483 l 2,40,41
 474 483 474 483 462 487 c 0,42,43
 440 495 440 495 440 523 c 0,44,45
 440 548 440 548 463 569 c 0,46,47
 479 583 479 583 518 583 c 2,48,-1
 618 583 l 2,49,50
 642 583 642 583 653 579 c 0,51,52
 675 572 675 572 675 544 c 0,53,54
 675 519 675 519 657 502 c 128,-1,55
 639 485 639 485 611 483 c 1,56,-1
 530 100 l 1,57,-1
 536 100 l 2,58,59
 559 100 559 100 570 96 c 0,60,61
 592 89 592 89 592 60 c 0,62,63
 592 35 592 35 569 15 c 0,64,65
 553 0 553 0 515 0 c 2,66,-1
 394 0 l 2,67,68
 363 0 363 0 350 9 c 128,-1,69
 337 18 337 18 337 40 c 0,70,71
 337 65 337 65 360 85 c 0,72,73
 379 100 379 100 415 100 c 2,74,-1
 430 100 l 1,75,-1
 460 241 l 1,0,-1
EndSplineSet
EndChar

StartChar: I
Encoding: 73 73 44
Width: 600
GlyphClass: 2
Flags: W
LayerCount: 2
Fore
SplineSet
453 483 m 1,0,-1
 372 100 l 1,1,-1
 472 100 l 2,2,3
 496 100 496 100 507 96 c 0,4,5
 529 89 529 89 529 61 c 0,6,7
 529 35 529 35 506 15 c 0,8,9
 488 0 488 0 451 0 c 2,10,-1
 150 0 l 2,11,12
 119 0 119 0 106 9 c 128,-1,13
 93 18 93 18 93 40 c 0,14,15
 93 65 93 65 116 85 c 0,16,17
 133 100 133 100 171 100 c 2,18,-1
 272 100 l 1,19,-1
 353 483 l 1,20,-1
 252 483 l 2,21,22
 221 483 221 483 208.5 492 c 128,-1,23
 196 501 196 501 196 523 c 0,24,25
 196 550 196 550 219 568 c 0,26,27
 236 583 236 583 274 583 c 2,28,-1
 575 583 l 2,29,30
 599 583 599 583 610 579 c 0,31,32
 619 576 619 576 625.5 565.5 c 128,-1,33
 632 555 632 555 632 544 c 0,34,35
 632 516 632 516 609 498 c 0,36,37
 590 483 590 483 554 483 c 2,38,-1
 453 483 l 1,0,-1
EndSplineSet
EndChar

StartChar: J
Encoding: 74 74 45
Width: 600
GlyphClass: 2
Flags: W
LayerCount: 2
Fore
SplineSet
592 483 m 1,0,-1
 529 187 l 2,1,2
 518 137 518 137 497 105 c 128,-1,3
 476 73 476 73 434 43 c 0,4,5
 357 -14 357 -14 266 -14 c 0,6,7
 182 -14 182 -14 64 51 c 1,8,-1
 98 213 l 2,9,10
 105 246 105 246 118 259 c 0,11,12
 137 280 137 280 163 280 c 0,13,14
 180 280 180 280 191.5 269.5 c 128,-1,15
 203 259 203 259 203 243 c 0,16,17
 203 238 203 238 199 213 c 2,18,-1
 178 117 l 1,19,20
 241 86 241 86 288 86 c 0,21,22
 345 86 345 86 391 122 c 0,23,24
 411 138 411 138 417.5 151 c 128,-1,25
 424 164 424 164 431 198 c 2,26,-1
 492 483 l 1,27,-1
 373 483 l 2,28,29
 342 483 342 483 329 492 c 128,-1,30
 316 501 316 501 316 523 c 0,31,32
 316 548 316 548 339 569 c 0,33,34
 356 583 356 583 394 583 c 2,35,-1
 670 583 l 2,36,37
 694 583 694 583 705 579 c 0,38,39
 727 572 727 572 727 543 c 0,40,41
 727 516 727 516 704 498 c 0,42,43
 686 483 686 483 649 483 c 2,44,-1
 592 483 l 1,0,-1
EndSplineSet
EndChar

StartChar: K
Encoding: 75 75 46
Width: 600
GlyphClass: 2
Flags: W
LayerCount: 2
Fore
SplineSet
238 208 m 1,0,-1
 215 100 l 1,1,-1
 250 100 l 2,2,3
 273 100 273 100 284 96 c 0,4,5
 306 89 306 89 306 60 c 0,6,7
 306 35 306 35 283 15 c 0,8,9
 265 0 265 0 228 0 c 2,10,-1
 79 0 l 2,11,12
 48 0 48 0 35 9.5 c 128,-1,13
 22 19 22 19 22 40 c 0,14,15
 22 65 22 65 45 85 c 0,16,17
 62 100 62 100 100 100 c 2,18,-1
 115 100 l 1,19,-1
 196 483 l 1,20,-1
 181 483 l 2,21,22
 150 483 150 483 137.5 492 c 128,-1,23
 125 501 125 501 125 523 c 0,24,25
 125 548 125 548 148 569 c 0,26,27
 165 583 165 583 203 583 c 2,28,-1
 352 583 l 2,29,30
 376 583 376 583 387 579 c 0,31,32
 409 572 409 572 409 543 c 0,33,34
 409 516 409 516 386 498 c 0,35,36
 368 483 368 483 331 483 c 2,37,-1
 296 483 l 1,38,-1
 265 334 l 1,39,-1
 475 487 l 1,40,41
 452 496 452 496 452 520 c 0,42,43
 452 549 452 549 476 568 c 0,44,45
 492 583 492 583 530 583 c 2,46,-1
 631 583 l 2,47,48
 654 583 654 583 665 579 c 0,49,50
 687 572 687 572 687 544 c 0,51,52
 687 518 687 518 664 498 c 0,53,54
 646 483 646 483 613 483 c 1,55,-1
 404 330 l 1,56,57
 445 306 445 306 477 246 c 128,-1,58
 509 186 509 186 525 100 c 1,59,-1
 557 100 l 2,60,61
 580 100 580 100 592 96 c 0,62,63
 601 93 601 93 607.5 82.5 c 128,-1,64
 614 72 614 72 614 61 c 0,65,66
 614 33 614 33 591 15 c 0,67,68
 572 0 572 0 535 0 c 2,69,-1
 426 0 l 1,70,71
 413 107 413 107 382 176 c 128,-1,72
 351 245 351 245 308 259 c 1,73,-1
 238 208 l 1,0,-1
EndSplineSet
EndChar

StartChar: L
Encoding: 76 76 47
Width: 600
GlyphClass: 2
Flags: W
LayerCount: 2
Fore
SplineSet
358 483 m 1,0,-1
 277 100 l 1,1,-1
 492 100 l 1,2,-1
 512 192 l 2,3,4
 518 225 518 225 531 238 c 0,5,6
 550 259 550 259 576 259 c 0,7,8
 593 259 593 259 604.5 248 c 128,-1,9
 616 237 616 237 616 221 c 0,10,11
 616 212 616 212 612 192 c 2,12,-1
 571 0 l 1,13,-1
 99 0 l 2,14,15
 68 0 68 0 55 9.5 c 128,-1,16
 42 19 42 19 42 40 c 0,17,18
 42 67 42 67 65 85 c 0,19,20
 82 100 82 100 120 100 c 2,21,-1
 177 100 l 1,22,-1
 258 483 l 1,23,-1
 202 483 l 2,24,25
 171 483 171 483 158 492 c 128,-1,26
 145 501 145 501 145 523 c 0,27,28
 145 549 145 549 168 569 c 0,29,30
 186 583 186 583 223 583 c 2,31,-1
 436 583 l 2,32,33
 460 583 460 583 471 579 c 0,34,35
 493 572 493 572 493 543 c 0,36,37
 493 516 493 516 470 498 c 0,38,39
 451 483 451 483 415 483 c 2,40,-1
 358 483 l 1,0,-1
EndSplineSet
EndChar

StartChar: M
Encoding: 77 77 48
Width: 600
GlyphClass: 2
Flags: W
LayerCount: 2
Fore
SplineSet
224 389 m 1,0,-1
 163 100 l 1,1,-1
 198 100 l 2,2,3
 221 100 221 100 232 96 c 0,4,5
 254 89 254 89 254 61 c 0,6,7
 254 35 254 35 231 15 c 0,8,9
 212 0 212 0 176 0 c 2,10,-1
 47 0 l 2,11,12
 16 0 16 0 3 9 c 128,-1,13
 -10 18 -10 18 -10 40 c 0,14,15
 -10 67 -10 67 13 85 c 0,16,17
 31 100 31 100 63 100 c 1,18,-1
 144 483 l 1,19,20
 102 487 102 487 102 523 c 0,21,22
 102 549 102 549 125 569 c 0,23,24
 143 583 143 583 180 583 c 2,25,-1
 288 583 l 1,26,-1
 363 286 l 1,27,-1
 562 583 l 1,28,-1
 671 583 l 2,29,30
 695 583 695 583 706 579 c 0,31,32
 728 572 728 572 728 544 c 0,33,34
 728 521 728 521 711 504 c 0,35,36
 694 485 694 485 664 483 c 1,37,-1
 583 100 l 1,38,39
 634 100 634 100 634 61 c 0,40,41
 634 33 634 33 611 15 c 0,42,43
 592 0 592 0 556 0 c 2,44,-1
 427 0 l 2,45,46
 396 0 396 0 383 9 c 128,-1,47
 370 18 370 18 370 40 c 0,48,49
 370 65 370 65 393 85 c 0,50,51
 410 100 410 100 448 100 c 2,52,-1
 483 100 l 1,53,-1
 544 389 l 1,54,-1
 380 138 l 1,55,-1
 289 138 l 1,56,-1
 224 389 l 1,0,-1
EndSplineSet
EndChar

StartChar: N
Encoding: 78 78 49
Width: 600
GlyphClass: 2
Flags: W
LayerCount: 2
Fore
SplineSet
256 394 m 1,0,-1
 194 100 l 1,1,-1
 229 100 l 2,2,3
 252 100 252 100 263 96 c 0,4,5
 285 89 285 89 285 61 c 0,6,7
 285 35 285 35 262 15 c 0,8,9
 244 0 244 0 207 0 c 2,10,-1
 78 0 l 2,11,12
 47 0 47 0 34 9 c 128,-1,13
 21 18 21 18 21 40 c 0,14,15
 21 65 21 65 44 85 c 0,16,17
 62 100 62 100 94 100 c 1,18,-1
 175 483 l 1,19,-1
 160 483 l 2,20,21
 129 483 129 483 116.5 492 c 128,-1,22
 104 501 104 501 104 523 c 0,23,24
 104 548 104 548 127 568 c 0,25,26
 144 583 144 583 182 583 c 2,27,-1
 296 583 l 1,28,-1
 471 191 l 1,29,-1
 533 483 l 1,30,-1
 498 483 l 2,31,32
 467 483 467 483 454.5 492 c 128,-1,33
 442 501 442 501 442 523 c 0,34,35
 442 548 442 548 465 569 c 0,36,37
 482 583 482 583 519 583 c 2,38,-1
 649 583 l 2,39,40
 673 583 673 583 684 579 c 0,41,42
 706 572 706 572 706 543 c 0,43,44
 706 518 706 518 683 498 c 0,45,46
 666 483 666 483 633 483 c 1,47,-1
 530 0 l 1,48,-1
 432 0 l 1,49,-1
 256 394 l 1,0,-1
EndSplineSet
EndChar

StartChar: O
Encoding: 79 79 50
Width: 600
GlyphClass: 2
Flags: W
LayerCount: 2
Fore
SplineSet
426 597 m 0,0,1
 522 597 522 597 585.5 531 c 128,-1,2
 649 465 649 465 649 366 c 0,3,4
 649 215 649 215 541 102 c 0,5,6
 489 48 489 48 424 17 c 128,-1,7
 359 -14 359 -14 297 -14 c 0,8,9
 202 -14 202 -14 138.5 53 c 128,-1,10
 75 120 75 120 75 220 c 0,11,12
 75 289 75 289 103.5 358.5 c 128,-1,13
 132 428 132 428 182 481 c 0,14,15
 233 534 233 534 299 565.5 c 128,-1,16
 365 597 365 597 426 597 c 0,0,1
405 497 m 0,17,18
 319 497 319 497 248.5 418 c 128,-1,19
 178 339 178 339 178 243 c 0,20,21
 178 175 178 175 217.5 130.5 c 128,-1,22
 257 86 257 86 317 86 c 0,23,24
 405 86 405 86 475.5 165 c 128,-1,25
 546 244 546 244 546 342 c 0,26,27
 546 409 546 409 506 453 c 128,-1,28
 466 497 466 497 405 497 c 0,17,18
EndSplineSet
EndChar

StartChar: P
Encoding: 80 80 51
Width: 600
GlyphClass: 2
Flags: W
LayerCount: 2
Fore
SplineSet
237 200 m 1,0,-1
 216 100 l 1,1,-1
 314 100 l 2,2,3
 338 100 338 100 349 96 c 0,4,5
 358 93 358 93 364.5 82.5 c 128,-1,6
 371 72 371 72 371 61 c 0,7,8
 371 33 371 33 348 15 c 0,9,10
 330 0 330 0 293 0 c 2,11,-1
 80 0 l 2,12,13
 49 0 49 0 36 9.5 c 128,-1,14
 23 19 23 19 23 40 c 0,15,16
 23 65 23 65 46 85 c 0,17,18
 64 100 64 100 101 100 c 2,19,-1
 116 100 l 1,20,-1
 197 483 l 1,21,-1
 182 483 l 2,22,23
 151 483 151 483 138 492 c 128,-1,24
 125 501 125 501 125 523 c 0,25,26
 125 548 125 548 148 569 c 0,27,28
 165 583 165 583 203 583 c 2,29,-1
 436 583 l 2,30,31
 520 583 520 583 568.5 542.5 c 128,-1,32
 617 502 617 502 617 431 c 0,33,34
 617 354 617 354 558 289 c 0,35,36
 516 241 516 241 465 220.5 c 128,-1,37
 414 200 414 200 335 200 c 2,38,-1
 237 200 l 1,0,-1
297 483 m 1,39,-1
 258 300 l 1,40,-1
 376 300 l 2,41,42
 435 300 435 300 472 332 c 128,-1,43
 509 364 509 364 509 414 c 0,44,45
 509 446 509 446 484 464.5 c 128,-1,46
 459 483 459 483 415 483 c 2,47,-1
 297 483 l 1,39,-1
EndSplineSet
EndChar

StartChar: Q
Encoding: 81 81 52
Width: 600
GlyphClass: 2
Flags: W
LayerCount: 2
Fore
SplineSet
269 -6 m 1,0,-1
 261 -30 l 1,1,2
 292 -25 292 -25 312 -25 c 0,3,4
 349 -25 349 -25 394 -38 c 0,5,6
 420 -45 420 -45 434 -45 c 0,7,8
 452 -45 452 -45 480 -30 c 0,9,10
 509 -13 509 -13 524 -13 c 0,11,12
 542 -13 542 -13 553.5 -24 c 128,-1,13
 565 -35 565 -35 565 -52 c 0,14,15
 565 -83 565 -83 536 -102 c 0,16,17
 472 -145 472 -145 413 -145 c 0,18,19
 386 -145 386 -145 340 -125 c 0,20,21
 320 -117 320 -117 295 -117 c 0,22,23
 253 -117 253 -117 163 -138 c 0,24,25
 143 -143 143 -143 134 -143 c 0,26,27
 118 -143 118 -143 107 -131.5 c 128,-1,28
 96 -120 96 -120 96 -104 c 0,29,30
 96 -77 96 -77 125 -53 c 2,31,-1
 200 7 l 1,32,33
 158 34 158 34 136.5 55 c 128,-1,34
 115 76 115 76 102 101 c 0,35,36
 75 155 75 155 75 220 c 0,37,38
 75 315 75 315 125 402.5 c 128,-1,39
 175 490 175 490 256.5 543.5 c 128,-1,40
 338 597 338 597 427 597 c 0,41,42
 523 597 523 597 586 530.5 c 128,-1,43
 649 464 649 464 649 363 c 0,44,45
 649 273 649 273 603.5 192 c 128,-1,46
 558 111 558 111 476 53 c 0,47,48
 392 -7 392 -7 286 -7 c 0,49,50
 277 -7 277 -7 269 -6 c 1,0,-1
405 497 m 0,51,52
 319 497 319 497 248 418 c 128,-1,53
 177 339 177 339 177 242 c 0,54,55
 177 175 177 175 217 130 c 128,-1,56
 257 85 257 85 317 85 c 0,57,58
 405 85 405 85 475.5 164 c 128,-1,59
 546 243 546 243 546 342 c 0,60,61
 546 409 546 409 506 453 c 128,-1,62
 466 497 466 497 405 497 c 0,51,52
EndSplineSet
EndChar

StartChar: R
Encoding: 82 82 53
Width: 600
GlyphClass: 2
Flags: W
LayerCount: 2
Fore
SplineSet
242 222 m 1,0,-1
 216 100 l 1,1,-1
 251 100 l 2,2,3
 274 100 274 100 285 96 c 0,4,5
 307 89 307 89 307 60 c 0,6,7
 307 35 307 35 284 15 c 0,8,9
 266 0 266 0 229 0 c 2,10,-1
 80 0 l 2,11,12
 49 0 49 0 36 9 c 128,-1,13
 23 18 23 18 23 40 c 0,14,15
 23 65 23 65 46 85 c 0,16,17
 65 100 65 100 101 100 c 2,18,-1
 116 100 l 1,19,-1
 197 483 l 1,20,-1
 182 483 l 2,21,22
 151 483 151 483 138.5 492 c 128,-1,23
 126 501 126 501 126 523 c 0,24,25
 126 548 126 548 149 569 c 0,26,27
 167 583 167 583 204 583 c 2,28,-1
 427 583 l 2,29,30
 513 583 513 583 562.5 544.5 c 128,-1,31
 612 506 612 506 612 438 c 0,32,33
 612 325 612 325 469 254 c 1,34,35
 521 198 521 198 561 100 c 1,36,-1
 574 100 l 2,37,38
 606 100 606 100 618.5 91 c 128,-1,39
 631 82 631 82 631 60 c 0,40,41
 631 35 631 35 608 15 c 0,42,43
 590 0 590 0 553 0 c 2,44,-1
 475 0 l 1,45,46
 452 74 452 74 409.5 142.5 c 128,-1,47
 367 211 367 211 338 222 c 1,48,-1
 242 222 l 1,0,-1
263 322 m 1,49,-1
 339 322 l 2,50,51
 407 322 407 322 455.5 350.5 c 128,-1,52
 504 379 504 379 504 420 c 0,53,54
 504 448 504 448 478 465.5 c 128,-1,55
 452 483 452 483 409 483 c 2,56,-1
 297 483 l 1,57,-1
 263 322 l 1,49,-1
EndSplineSet
EndChar

StartChar: S
Encoding: 83 83 54
Width: 600
GlyphClass: 2
Flags: W
LayerCount: 2
Fore
SplineSet
630 531 m 2,0,-1
 611 443 l 2,1,2
 604 410 604 410 592 397 c 0,3,4
 571 376 571 376 547 376 c 0,5,6
 526 376 526 376 514 391 c 0,7,8
 509 398 509 398 508 430 c 0,9,10
 508 460 508 460 479.5 478.5 c 128,-1,11
 451 497 451 497 404 497 c 0,12,13
 351 497 351 497 312 471 c 128,-1,14
 273 445 273 445 273 411 c 0,15,16
 273 387 273 387 293 370 c 0,17,18
 303 361 303 361 319.5 356 c 128,-1,19
 336 351 336 351 394 340 c 0,20,21
 469 325 469 325 504 309 c 0,22,23
 576 275 576 275 576 199 c 0,24,25
 576 107 576 107 499 46.5 c 128,-1,26
 422 -14 422 -14 306 -14 c 0,27,28
 224 -14 224 -14 158 25 c 1,29,30
 131 1 131 1 112 1 c 0,31,32
 95 1 95 1 83.5 11.5 c 128,-1,33
 72 22 72 22 72 38 c 0,34,35
 72 43 72 43 76 67 c 2,36,-1
 90 133 l 2,37,38
 105 199 105 199 155 199 c 0,39,40
 176 199 176 199 187 185 c 0,41,42
 192 178 192 178 194 151 c 128,-1,43
 196 124 196 124 233 105 c 128,-1,44
 270 86 270 86 319 86 c 0,45,46
 381 86 381 86 425.5 111.5 c 128,-1,47
 470 137 470 137 470 173 c 0,48,49
 470 195 470 195 450 210 c 0,50,51
 430 226 430 226 345 242 c 0,52,53
 261 256 261 256 223 281 c 0,54,55
 167 319 167 319 167 385 c 0,56,57
 167 472 167 472 243 534.5 c 128,-1,58
 319 597 319 597 425 597 c 0,59,60
 503 597 503 597 548 564 c 1,61,62
 569 597 569 597 594 597 c 0,63,64
 612 597 612 597 623 587 c 128,-1,65
 634 577 634 577 634 561 c 0,66,67
 634 555 634 555 630 531 c 2,0,-1
EndSplineSet
EndChar

StartChar: T
Encoding: 84 84 55
Width: 600
GlyphClass: 2
Flags: W
LayerCount: 2
Fore
SplineSet
452 483 m 1,0,-1
 370 100 l 1,1,-1
 436 100 l 2,2,3
 459 100 459 100 471 96 c 0,4,5
 493 89 493 89 493 61 c 0,6,7
 493 35 493 35 470 15 c 0,8,9
 451 0 451 0 415 0 c 2,10,-1
 184 0 l 2,11,12
 128 0 128 0 128 40 c 0,13,14
 128 65 128 65 151 85 c 0,15,16
 168 100 168 100 206 100 c 2,17,-1
 270 100 l 1,18,-1
 352 483 l 1,19,-1
 245 483 l 1,20,-1
 225 390 l 2,21,22
 218 357 218 357 206 345 c 0,23,24
 185 324 185 324 161 324 c 0,25,26
 145 324 145 324 133 335 c 128,-1,27
 121 346 121 346 121 361 c 0,28,29
 121 374 121 374 125 390 c 2,30,-1
 166 583 l 1,31,-1
 682 583 l 1,32,-1
 641 390 l 2,33,34
 634 357 634 357 622 345 c 0,35,36
 603 324 603 324 577 324 c 0,37,38
 560 324 560 324 548.5 334.5 c 128,-1,39
 537 345 537 345 537 361 c 0,40,41
 537 373 537 373 541 390 c 2,42,-1
 561 483 l 1,43,-1
 452 483 l 1,0,-1
EndSplineSet
EndChar

StartChar: U
Encoding: 85 85 56
Width: 600
GlyphClass: 2
Flags: W
LayerCount: 2
Fore
SplineSet
632 483 m 1,0,-1
 573 205 l 2,1,2
 554 112 554 112 474.5 49 c 128,-1,3
 395 -14 395 -14 298 -14 c 0,4,5
 216 -14 216 -14 163 35 c 128,-1,6
 110 84 110 84 110 158 c 0,7,8
 110 177 110 177 115 205 c 2,9,-1
 174 483 l 1,10,11
 123 483 123 483 123 523 c 0,12,13
 123 549 123 549 146 569 c 0,14,15
 163 583 163 583 201 583 c 2,16,-1
 331 583 l 2,17,18
 357 583 357 583 365 579 c 1,19,20
 387 572 387 572 387 544 c 128,-1,21
 387 516 387 516 364 498 c 0,22,23
 346 483 346 483 309 483 c 2,24,-1
 274 483 l 1,25,-1
 213 196 l 2,26,27
 211 182 211 182 211 176 c 0,28,29
 211 137 211 137 241.5 111.5 c 128,-1,30
 272 86 272 86 319 86 c 0,31,32
 372 86 372 86 416.5 118 c 128,-1,33
 461 150 461 150 471 196 c 2,34,-1
 532 483 l 1,35,-1
 497 483 l 2,36,37
 466 483 466 483 453.5 492 c 128,-1,38
 441 501 441 501 441 523 c 0,39,40
 441 548 441 548 464 569 c 0,41,42
 482 583 482 583 519 583 c 2,43,-1
 648 583 l 2,44,45
 672 583 672 583 683 579 c 0,46,47
 705 572 705 572 705 544 c 128,-1,48
 705 516 705 516 682 498 c 0,49,50
 663 483 663 483 632 483 c 1,0,-1
EndSplineSet
EndChar

StartChar: V
Encoding: 86 86 57
Width: 600
GlyphClass: 2
Flags: W
LayerCount: 2
Fore
SplineSet
333 144 m 1,0,-1
 550 483 l 1,1,-1
 525 483 l 2,2,3
 502 483 502 483 491 487 c 0,4,5
 469 495 469 495 469 523 c 0,6,7
 469 549 469 549 492 569 c 0,8,9
 510 583 510 583 547 583 c 2,10,-1
 678 583 l 2,11,12
 702 583 702 583 713 579 c 0,13,14
 735 572 735 572 735 543 c 0,15,16
 735 509 735 509 701 490 c 0,17,18
 688 483 688 483 655 483 c 1,19,-1
 347 0 l 1,20,-1
 249 0 l 1,21,-1
 149 483 l 1,22,-1
 137 483 l 2,23,24
 91 486 91 486 91 523 c 0,25,26
 91 549 91 549 114 569 c 0,27,28
 132 583 132 583 169 583 c 2,29,-1
 302 583 l 2,30,31
 325 583 325 583 336 579 c 0,32,33
 358 572 358 572 358 543 c 0,34,35
 358 518 358 518 335 498 c 0,36,37
 318 483 318 483 280 483 c 2,38,-1
 261 483 l 1,39,-1
 333 144 l 1,0,-1
EndSplineSet
EndChar

StartChar: W
Encoding: 87 87 58
Width: 600
GlyphClass: 2
Flags: W
LayerCount: 2
Fore
SplineSet
359 277 m 1,0,-1
 209 0 l 1,1,-1
 98 0 l 1,2,-1
 139 483 l 1,3,4
 102 487 102 487 102 519 c 0,5,6
 102 548 102 548 126 569 c 0,7,8
 143 583 143 583 180 583 c 2,9,-1
 312 583 l 2,10,11
 335 583 335 583 347 579 c 0,12,13
 369 572 369 572 369 543 c 0,14,15
 369 516 369 516 346 498 c 0,16,17
 327 483 327 483 290 483 c 2,18,-1
 242 483 l 1,19,-1
 221 211 l 1,20,-1
 345 437 l 1,21,-1
 448 437 l 1,22,-1
 476 211 l 1,23,-1
 570 483 l 1,24,-1
 516 483 l 2,25,26
 485 483 485 483 472.5 492 c 128,-1,27
 460 501 460 501 460 523 c 0,28,29
 460 548 460 548 483 569 c 0,30,31
 499 583 499 583 538 583 c 2,32,-1
 668 583 l 2,33,34
 692 583 692 583 703 579 c 0,35,36
 725 572 725 572 725 544 c 0,37,38
 725 521 725 521 709 504.5 c 128,-1,39
 693 488 693 488 667 483 c 1,40,-1
 504 0 l 1,41,-1
 394 0 l 1,42,-1
 359 277 l 1,0,-1
EndSplineSet
EndChar

StartChar: X
Encoding: 88 88 59
Width: 600
GlyphClass: 2
Flags: W
LayerCount: 2
Fore
SplineSet
427 297 m 1,0,-1
 552 100 l 1,1,2
 601 100 601 100 601 60 c 0,3,4
 601 35 601 35 578 15 c 0,5,6
 560 0 560 0 523 0 c 2,7,-1
 413 0 l 2,8,9
 382 0 382 0 369 9 c 128,-1,10
 356 18 356 18 356 40 c 128,-1,11
 356 62 356 62 373 79 c 0,12,13
 389 97 389 97 423 100 c 1,14,-1
 347 220 l 1,15,-1
 219 100 l 1,16,17
 264 98 264 98 264 60 c 0,18,19
 264 33 264 33 241 15 c 0,20,21
 224 0 224 0 186 0 c 2,22,-1
 76 0 l 2,23,24
 45 0 45 0 32 9 c 128,-1,25
 19 18 19 18 19 40 c 0,26,27
 19 66 19 66 38.5 83 c 128,-1,28
 58 100 58 100 89 100 c 1,29,-1
 298 298 l 1,30,-1
 179 483 l 1,31,32
 131 484 131 484 131 523 c 0,33,34
 131 549 131 549 154 569 c 0,35,36
 172 583 172 583 209 583 c 2,37,-1
 300 583 l 2,38,39
 323 583 323 583 335 579 c 0,40,41
 344 576 344 576 350.5 566 c 128,-1,42
 357 556 357 556 357 544 c 0,43,44
 357 507 357 507 308 484 c 1,45,-1
 379 375 l 1,46,-1
 495 484 l 1,47,48
 478 494 478 494 472.5 501.5 c 128,-1,49
 467 509 467 509 467 523 c 0,50,51
 467 548 467 548 490 569 c 0,52,53
 509 583 509 583 545 583 c 2,54,-1
 635 583 l 2,55,56
 659 583 659 583 670 579 c 0,57,58
 692 572 692 572 692 544 c 0,59,60
 692 518 692 518 672.5 501 c 128,-1,61
 653 484 653 484 623 483 c 1,62,-1
 427 297 l 1,0,-1
EndSplineSet
EndChar

StartChar: Y
Encoding: 89 89 60
Width: 600
GlyphClass: 2
Flags: W
LayerCount: 2
Fore
SplineSet
402 245 m 1,0,-1
 372 100 l 1,1,-1
 437 100 l 2,2,3
 461 100 461 100 472 96 c 0,4,5
 494 89 494 89 494 61 c 128,-1,6
 494 33 494 33 471 15 c 0,7,8
 452 0 452 0 416 0 c 2,9,-1
 185 0 l 2,10,11
 154 0 154 0 141 9.5 c 128,-1,12
 128 19 128 19 128 40 c 0,13,14
 128 67 128 67 151 85 c 0,15,16
 168 100 168 100 206 100 c 2,17,-1
 272 100 l 1,18,-1
 302 245 l 1,19,-1
 188 483 l 1,20,-1
 182 483 l 2,21,22
 134 483 134 483 134 523 c 0,23,24
 134 550 134 550 157 568 c 0,25,26
 174 583 174 583 212 583 c 2,27,-1
 302 583 l 2,28,29
 325 583 325 583 336 579 c 0,30,31
 358 572 358 572 358 544 c 0,32,33
 358 503 358 503 308 483 c 1,34,-1
 374 348 l 1,35,-1
 497 483 l 1,36,37
 467 495 467 495 467 523 c 0,38,39
 467 548 467 548 490 569 c 0,40,41
 508 583 508 583 545 583 c 2,42,-1
 638 583 l 2,43,44
 661 583 661 583 672 579 c 0,45,46
 694 572 694 572 694 544 c 0,47,48
 694 518 694 518 671 498 c 0,49,50
 654 483 654 483 620 483 c 2,51,-1
 617 483 l 1,52,-1
 402 245 l 1,0,-1
EndSplineSet
EndChar

StartChar: Z
Encoding: 90 90 61
Width: 600
GlyphClass: 2
Flags: W
LayerCount: 2
Fore
SplineSet
222 100 m 1,0,-1
 448 100 l 1,1,-1
 464 172 l 2,2,3
 470 204 470 204 483 218 c 0,4,5
 503 238 503 238 528 238 c 0,6,7
 545 238 545 238 556.5 227 c 128,-1,8
 568 216 568 216 568 200 c 0,9,10
 568 191 568 191 564 172 c 2,11,-1
 527 0 l 1,12,-1
 73 0 l 1,13,-1
 94 100 l 1,14,-1
 477 483 l 1,15,-1
 299 483 l 1,16,-1
 284 413 l 2,17,18
 276 379 276 379 265 368 c 0,19,20
 244 347 244 347 219 347 c 0,21,22
 203 347 203 347 191 358 c 128,-1,23
 179 369 179 369 179 384 c 0,24,25
 179 394 179 394 184 413 c 2,26,-1
 220 583 l 1,27,-1
 628 583 l 1,28,-1
 607 486 l 1,29,-1
 222 100 l 1,0,-1
EndSplineSet
EndChar

StartChar: bracketleft
Encoding: 91 91 62
Width: 600
GlyphClass: 2
Flags: W
LayerCount: 2
Fore
SplineSet
462 527 m 1,0,-1
 340 -48 l 1,1,-1
 399 -48 l 2,2,3
 422 -48 422 -48 434 -52 c 0,4,5
 456 -59 456 -59 456 -87 c 0,6,7
 456 -113 456 -113 433 -133 c 0,8,9
 416 -148 416 -148 378 -148 c 2,10,-1
 219 -148 l 1,11,-1
 384 627 l 1,12,-1
 542 627 l 2,13,14
 565 627 565 627 576 623 c 0,15,16
 598 615 598 615 598 588 c 0,17,18
 598 562 598 562 575 542 c 0,19,20
 558 527 558 527 520 527 c 2,21,-1
 462 527 l 1,0,-1
EndSplineSet
EndChar

StartChar: backslash
Encoding: 92 92 63
Width: 600
GlyphClass: 2
Flags: W
LayerCount: 2
Fore
SplineSet
322 651 m 2,0,-1
 499 -27 l 2,1,2
 504 -45 504 -45 504 -54 c 0,3,4
 504 -76 504 -76 485 -94.5 c 128,-1,5
 466 -113 466 -113 443 -113 c 0,6,7
 424 -113 424 -113 415 -103.5 c 128,-1,8
 406 -94 406 -94 400 -69 c 2,9,-1
 224 610 l 2,10,11
 219 626 219 626 219 636 c 0,12,13
 219 658 219 658 238 676.5 c 128,-1,14
 257 695 257 695 280 695 c 0,15,16
 298 695 298 695 307 685.5 c 128,-1,17
 316 676 316 676 322 651 c 2,0,-1
EndSplineSet
EndChar

StartChar: bracketright
Encoding: 93 93 64
Width: 600
GlyphClass: 2
Flags: W
LayerCount: 2
Fore
SplineSet
240 -48 m 1,0,-1
 362 527 l 1,1,-1
 303 527 l 2,2,3
 280 527 280 527 268 531 c 0,4,5
 246 538 246 538 246 566 c 0,6,7
 246 592 246 592 269 612 c 0,8,9
 286 627 286 627 324 627 c 2,10,-1
 483 627 l 1,11,-1
 318 -148 l 1,12,-1
 160 -148 l 2,13,14
 137 -148 137 -148 126 -144 c 0,15,16
 104 -136 104 -136 104 -109 c 0,17,18
 104 -83 104 -83 127 -63 c 0,19,20
 144 -48 144 -48 182 -48 c 2,21,-1
 240 -48 l 1,0,-1
EndSplineSet
EndChar

StartChar: asciicircum
Encoding: 94 94 65
Width: 600
GlyphClass: 2
Flags: W
LayerCount: 2
Fore
SplineSet
404 494 m 1,0,-1
 257 356 l 2,1,2
 236 336 236 336 226 330.5 c 128,-1,3
 216 325 216 325 202 325 c 0,4,5
 184 325 184 325 172.5 336.5 c 128,-1,6
 161 348 161 348 161 365 c 0,7,8
 161 388 161 388 193 419 c 2,9,-1
 438 652 l 1,10,-1
 584 419 l 2,11,12
 598 397 598 397 598 384 c 0,13,14
 598 362 598 362 578.5 343.5 c 128,-1,15
 559 325 559 325 536 325 c 0,16,17
 522 325 522 325 514 330.5 c 128,-1,18
 506 336 506 336 494 355 c 2,19,-1
 404 494 l 1,0,-1
EndSplineSet
EndChar

StartChar: underscore
Encoding: 95 95 66
Width: 600
GlyphClass: 2
Flags: W
LayerCount: 2
Fore
SplineSet
564 -75 m 1,0,-1
 564 -125 l 1,1,-1
 -61 -125 l 1,2,-1
 -61 -75 l 1,3,-1
 564 -75 l 1,0,-1
EndSplineSet
EndChar

StartChar: quoteleft
Encoding: 8216 8216 67
Width: 600
GlyphClass: 2
Flags: W
LayerCount: 2
Fore
SplineSet
509 602 m 1,0,-1
 534 395 l 1,1,-1
 534 387 l 2,2,3
 534 371 534 371 523 359.5 c 128,-1,4
 512 348 512 348 496 348 c 128,-1,5
 480 348 480 348 469 372 c 2,6,-1
 377 602 l 1,7,-1
 509 602 l 1,0,-1
EndSplineSet
EndChar

StartChar: a
Encoding: 97 97 68
Width: 600
GlyphClass: 2
Flags: W
LayerCount: 2
Fore
SplineSet
388 0 m 1,0,-1
 393 23 l 1,1,2
 310 -16 310 -16 219 -16 c 0,3,4
 152 -16 152 -16 108.5 16.5 c 128,-1,5
 65 49 65 49 65 98 c 0,6,7
 65 142 65 142 105 190 c 0,8,9
 187 288 187 288 346 288 c 0,10,11
 391 288 391 288 447 278 c 1,12,-1
 452 301 l 2,13,14
 453 305 453 305 453 311 c 0,15,16
 453 350 453 350 369 350 c 0,17,18
 320 350 320 350 249 333 c 0,19,20
 224 327 224 327 207 327 c 256,21,22
 190 327 190 327 179.5 338 c 128,-1,23
 169 349 169 349 169 366 c 0,24,25
 169 402 169 402 202 417 c 0,26,27
 227 429 227 429 287 439.5 c 128,-1,28
 347 450 347 450 389 450 c 0,29,30
 467 450 467 450 512 419.5 c 128,-1,31
 557 389 557 389 557 337 c 0,32,33
 557 318 557 318 553 302 c 2,34,-1
 510 100 l 1,35,-1
 527 100 l 2,36,37
 550 100 550 100 561 96 c 0,38,39
 583 89 583 89 583 61 c 0,40,41
 583 35 583 35 560 15 c 0,42,43
 544 0 544 0 505 0 c 2,44,-1
 388 0 l 1,0,-1
418 135 m 1,45,-1
 428 185 l 1,46,47
 368 196 368 196 320 196 c 0,48,49
 247 196 247 196 198 156 c 0,50,51
 174 135 174 135 174 118 c 0,52,53
 174 104 174 104 193.5 94 c 128,-1,54
 213 84 213 84 241 84 c 0,55,56
 324 84 324 84 418 135 c 1,45,-1
EndSplineSet
EndChar

StartChar: b
Encoding: 98 98 69
Width: 600
GlyphClass: 2
Flags: W
LayerCount: 2
Fore
SplineSet
307 624 m 1,0,-1
 259 401 l 1,1,2
 333 451 333 451 418 451 c 0,3,4
 512 451 512 451 560 409 c 0,5,6
 623 357 623 357 623 269 c 0,7,8
 623 161 623 161 541 77 c 0,9,10
 451 -14 451 -14 321 -14 c 0,11,12
 242 -14 242 -14 182 35 c 1,13,-1
 174 0 l 1,14,-1
 58 0 l 2,15,16
 28 0 28 0 15 9 c 128,-1,17
 2 18 2 18 2 40 c 0,18,19
 2 65 2 65 25 85 c 0,20,21
 43 100 43 100 80 100 c 2,22,-1
 96 100 l 1,23,-1
 186 524 l 1,24,-1
 170 524 l 2,25,26
 139 524 139 524 126 533 c 128,-1,27
 113 542 113 542 113 564 c 0,28,29
 113 590 113 590 136 610 c 0,30,31
 154 624 154 624 191 624 c 2,32,-1
 307 624 l 1,0,-1
395 351 m 0,33,34
 309 351 309 351 255 286 c 0,35,36
 218 243 218 243 218 193 c 128,-1,37
 218 143 218 143 251 114.5 c 128,-1,38
 284 86 284 86 343 86 c 0,39,40
 430 86 430 86 483 151 c 0,41,42
 520 196 520 196 520 244 c 0,43,44
 520 299 520 299 478 330 c 0,45,46
 451 351 451 351 395 351 c 0,33,34
EndSplineSet
EndChar

StartChar: c
Encoding: 99 99 70
Width: 600
GlyphClass: 2
Flags: W
LayerCount: 2
Fore
SplineSet
622 384 m 2,0,-1
 606 307 l 2,1,2
 598 273 598 273 586 261 c 0,3,4
 566 241 566 241 541 241 c 0,5,6
 520 241 520 241 508 255 c 0,7,8
 501 263 501 263 501 289 c 0,9,10
 501 313 501 313 486 325 c 0,11,12
 450 350 450 350 385 350 c 0,13,14
 290 350 290 350 234 282 c 0,15,16
 195 233 195 233 195 178 c 0,17,18
 195 84 195 84 348 84 c 0,19,20
 408 84 408 84 442 93 c 128,-1,21
 476 102 476 102 512 128 c 0,22,23
 528 140 528 140 545 140 c 128,-1,24
 562 140 562 140 573.5 128.5 c 128,-1,25
 585 117 585 117 585 99 c 0,26,27
 585 67 585 67 544 39 c 0,28,29
 465 -16 465 -16 317 -16 c 0,30,31
 207 -16 207 -16 154 26 c 0,32,33
 93 73 93 73 93 156 c 0,34,35
 93 206 93 206 114.5 258 c 128,-1,36
 136 310 136 310 174 351 c 0,37,38
 265 450 265 450 407 450 c 0,39,40
 492 450 492 450 544 420 c 1,41,42
 558 450 558 450 588 450 c 0,43,44
 626 450 626 450 626 412 c 0,45,46
 626 405 626 405 622 384 c 2,0,-1
EndSplineSet
EndChar

StartChar: d
Encoding: 100 100 71
Width: 600
GlyphClass: 2
Flags: W
LayerCount: 2
Fore
SplineSet
664 624 m 1,0,-1
 553 100 l 1,1,-1
 569 100 l 2,2,3
 592 100 592 100 603 96 c 0,4,5
 625 89 625 89 625 60 c 0,6,7
 625 33 625 33 602 15 c 0,8,9
 584 0 584 0 547 0 c 2,10,-1
 431 0 l 1,11,-1
 439 35 l 1,12,13
 357 -14 357 -14 278 -14 c 0,14,15
 186 -14 186 -14 137 28 c 0,16,17
 74 80 74 80 74 168 c 0,18,19
 74 276 74 276 156 360 c 0,20,21
 246 451 246 451 378 451 c 0,22,23
 464 451 464 451 517 401 c 1,24,-1
 543 525 l 1,25,-1
 527 525 l 2,26,27
 503 525 503 525 492 529 c 0,28,29
 470 536 470 536 470 565 c 0,30,31
 470 590 470 590 493 610 c 0,32,33
 510 624 510 624 548 624 c 2,34,-1
 664 624 l 1,0,-1
354 351 m 0,35,36
 268 351 268 351 214 286 c 0,37,38
 177 241 177 241 177 193 c 0,39,40
 177 143 177 143 210 114.5 c 128,-1,41
 243 86 243 86 302 86 c 0,42,43
 390 86 390 86 444 151 c 0,44,45
 481 196 481 196 481 244 c 0,46,47
 481 299 481 299 439 330 c 0,48,49
 412 351 412 351 354 351 c 0,35,36
EndSplineSet
EndChar

StartChar: e
Encoding: 101 101 72
Width: 600
GlyphClass: 2
Flags: W
LayerCount: 2
Fore
SplineSet
587 172 m 1,0,-1
 178 172 l 1,1,2
 194 84 194 84 325 84 c 0,3,4
 377 84 377 84 493 112 c 0,5,6
 515 117 515 117 528 117 c 0,7,8
 545 117 545 117 555.5 106.5 c 128,-1,9
 566 96 566 96 566 79 c 0,10,11
 566 45 566 45 533 28 c 0,12,13
 501 11 501 11 427.5 -2.5 c 128,-1,14
 354 -16 354 -16 294 -16 c 0,15,16
 192 -16 192 -16 133 33.5 c 128,-1,17
 74 83 74 83 74 169 c 0,18,19
 74 281 74 281 168.5 365.5 c 128,-1,20
 263 450 263 450 387 450 c 0,21,22
 484 450 484 450 542 398 c 128,-1,23
 600 346 600 346 600 259 c 0,24,25
 600 238 600 238 595 211 c 2,26,-1
 587 172 l 1,0,-1
200 260 m 1,27,-1
 495 260 l 1,28,29
 491 301 491 301 456 325.5 c 128,-1,30
 421 350 421 350 367 350 c 0,31,32
 311 350 311 350 266 325.5 c 128,-1,33
 221 301 221 301 200 260 c 1,27,-1
EndSplineSet
EndChar

StartChar: f
Encoding: 102 102 73
Width: 600
GlyphClass: 2
Flags: W
LayerCount: 2
Fore
SplineSet
370 337 m 1,0,-1
 320 100 l 1,1,-1
 459 100 l 2,2,3
 483 100 483 100 494 96 c 0,4,5
 516 89 516 89 516 61 c 0,6,7
 516 35 516 35 493 15 c 0,8,9
 474 0 474 0 438 0 c 2,10,-1
 140 0 l 2,11,12
 84 0 84 0 84 40 c 0,13,14
 84 65 84 65 107 85 c 0,15,16
 124 100 124 100 162 100 c 2,17,-1
 220 100 l 1,18,-1
 270 337 l 1,19,-1
 224 337 l 2,20,21
 192 337 192 337 179 346 c 128,-1,22
 166 355 166 355 166 377 c 0,23,24
 166 403 166 403 189 423 c 0,25,26
 207 437 207 437 245 437 c 2,27,-1
 291 437 l 1,28,-1
 299 474 l 2,29,30
 314 543 314 543 374.5 583 c 128,-1,31
 435 623 435 623 525 623 c 0,32,33
 605 623 605 623 658 607 c 0,34,35
 691 598 691 598 691 570 c 0,36,37
 691 547 691 547 672.5 528 c 128,-1,38
 654 509 654 509 632 509 c 0,39,40
 623 509 623 509 605 512 c 0,41,42
 550 523 550 523 494 523 c 0,43,44
 411 523 411 523 399 474 c 2,45,-1
 392 437 l 1,46,-1
 542 437 l 2,47,48
 566 437 566 437 577 433 c 0,49,50
 599 426 599 426 599 397 c 0,51,52
 599 372 599 372 576 352 c 0,53,54
 558 337 558 337 521 337 c 2,55,-1
 370 337 l 1,0,-1
EndSplineSet
EndChar

StartChar: g
Encoding: 103 103 74
Width: 600
GlyphClass: 2
Flags: W
LayerCount: 2
Fore
SplineSet
495 401 m 1,0,-1
 502 437 l 1,1,-1
 619 437 l 2,2,3
 642 437 642 437 653 433 c 0,4,5
 675 426 675 426 675 397 c 0,6,7
 675 372 675 372 652 352 c 0,8,9
 635 337 635 337 597 337 c 2,10,-1
 581 337 l 1,11,-1
 505 -20 l 2,12,13
 489 -99 489 -99 423 -152 c 128,-1,14
 357 -205 357 -205 274 -205 c 2,15,-1
 163 -205 l 2,16,17
 132 -205 132 -205 119 -196 c 128,-1,18
 106 -187 106 -187 106 -165 c 0,19,20
 106 -138 106 -138 129 -120 c 0,21,22
 146 -105 146 -105 184 -105 c 2,23,-1
 293 -105 l 2,24,25
 336 -105 336 -105 366.5 -82 c 128,-1,26
 397 -59 397 -59 405 -20 c 2,27,-1
 417 35 l 1,28,29
 339 -14 339 -14 265 -14 c 0,30,31
 180 -14 180 -14 126.5 36.5 c 128,-1,32
 73 87 73 87 73 168 c 0,33,34
 73 280 73 280 161 365.5 c 128,-1,35
 249 451 249 451 365 451 c 0,36,37
 447 451 447 451 495 401 c 1,0,-1
345 351 m 0,38,39
 280 351 280 351 228 302.5 c 128,-1,40
 176 254 176 254 176 193 c 0,41,42
 176 146 176 146 207.5 116 c 128,-1,43
 239 86 239 86 289 86 c 0,44,45
 355 86 355 86 407 134.5 c 128,-1,46
 459 183 459 183 459 244 c 0,47,48
 459 291 459 291 427 321 c 128,-1,49
 395 351 395 351 345 351 c 0,38,39
EndSplineSet
EndChar

StartChar: h
Encoding: 104 104 75
Width: 600
GlyphClass: 2
Flags: W
LayerCount: 2
Fore
SplineSet
328 624 m 1,0,-1
 278 389 l 1,1,2
 351 450 351 450 428 450 c 0,3,4
 494 450 494 450 534 416 c 128,-1,5
 574 382 574 382 574 325 c 0,6,7
 574 303 574 303 570 284 c 2,8,-1
 530 100 l 1,9,-1
 536 100 l 2,10,11
 560 100 560 100 571 96 c 0,12,13
 593 88 593 88 593 60 c 0,14,15
 593 35 593 35 570 15 c 0,16,17
 552 0 552 0 515 0 c 2,18,-1
 403 0 l 2,19,20
 372 0 372 0 359 9 c 128,-1,21
 346 18 346 18 346 40 c 0,22,23
 346 65 346 65 369 85 c 0,24,25
 388 100 388 100 425 100 c 2,26,-1
 431 100 l 1,27,-1
 467 271 l 2,28,29
 471 287 471 287 471 302 c 0,30,31
 471 324 471 324 450.5 337 c 128,-1,32
 430 350 430 350 396 350 c 0,33,34
 360 350 360 350 333.5 337.5 c 128,-1,35
 307 325 307 325 256 283 c 1,36,-1
 217 100 l 1,37,-1
 223 100 l 2,38,39
 246 100 246 100 258 96 c 0,40,41
 280 87 280 87 280 60 c 128,-1,42
 280 33 280 33 257 15 c 0,43,44
 240 0 240 0 201 0 c 2,45,-1
 89 0 l 2,46,47
 59 0 59 0 46 9 c 128,-1,48
 33 18 33 18 33 40 c 0,49,50
 33 65 33 65 56 85 c 0,51,52
 75 100 75 100 111 100 c 2,53,-1
 117 100 l 1,54,-1
 207 524 l 1,55,-1
 191 524 l 2,56,57
 160 524 160 524 147 533 c 128,-1,58
 134 542 134 542 134 564 c 0,59,60
 134 590 134 590 157 610 c 0,61,62
 175 624 175 624 212 624 c 2,63,-1
 328 624 l 1,0,-1
EndSplineSet
EndChar

StartChar: i
Encoding: 105 105 76
Width: 600
GlyphClass: 2
Flags: W
LayerCount: 2
Fore
SplineSet
443 437 m 1,0,-1
 372 100 l 1,1,-1
 493 100 l 2,2,3
 517 100 517 100 528 96 c 0,4,5
 550 89 550 89 550 60 c 0,6,7
 550 35 550 35 527 15 c 0,8,9
 508 0 508 0 472 0 c 2,10,-1
 129 0 l 2,11,12
 98 0 98 0 85 9 c 128,-1,13
 72 18 72 18 72 40 c 0,14,15
 72 65 72 65 95 85 c 0,16,17
 112 100 112 100 150 100 c 2,18,-1
 272 100 l 1,19,-1
 322 337 l 1,20,-1
 244 337 l 2,21,22
 212 337 212 337 199 346 c 128,-1,23
 186 355 186 355 186 377 c 0,24,25
 186 404 186 404 209 422 c 0,26,27
 226 437 226 437 265 437 c 2,28,-1
 443 437 l 1,0,-1
469 623 m 1,29,-1
 446 518 l 1,30,-1
 328 518 l 1,31,-1
 351 623 l 1,32,-1
 469 623 l 1,29,-1
EndSplineSet
EndChar

StartChar: j
Encoding: 106 106 77
Width: 600
GlyphClass: 2
Flags: W
LayerCount: 2
Fore
SplineSet
460 337 m 1,0,-1
 258 337 l 2,1,2
 227 337 227 337 214 346 c 128,-1,3
 201 355 201 355 201 377 c 0,4,5
 201 402 201 402 224 422 c 0,6,7
 241 437 241 437 279 437 c 2,8,-1
 581 437 l 1,9,-1
 484 -20 l 2,10,11
 468 -99 468 -99 401.5 -152 c 128,-1,12
 335 -205 335 -205 253 -205 c 2,13,-1
 140 -205 l 2,14,15
 109 -205 109 -205 96 -196 c 128,-1,16
 83 -187 83 -187 83 -165 c 0,17,18
 83 -140 83 -140 106 -120 c 0,19,20
 123 -105 123 -105 161 -105 c 2,21,-1
 271 -105 l 2,22,23
 315 -105 315 -105 345.5 -82 c 128,-1,24
 376 -59 376 -59 384 -20 c 2,25,-1
 460 337 l 1,0,-1
563 623 m 1,26,-1
 540 518 l 1,27,-1
 421 518 l 1,28,-1
 443 623 l 1,29,-1
 563 623 l 1,26,-1
EndSplineSet
EndChar

StartChar: k
Encoding: 107 107 78
Width: 600
GlyphClass: 2
Flags: W
LayerCount: 2
Fore
SplineSet
249 164 m 1,0,-1
 215 0 l 1,1,-1
 98 0 l 2,2,3
 68 0 68 0 55 9 c 128,-1,4
 42 18 42 18 42 40 c 0,5,6
 42 65 42 65 65 85 c 0,7,8
 82 100 82 100 120 100 c 2,9,-1
 136 100 l 1,10,-1
 226 524 l 1,11,-1
 210 524 l 2,12,13
 186 524 186 524 175 528 c 0,14,15
 153 535 153 535 153 563 c 0,16,17
 153 590 153 590 176 610 c 0,18,19
 194 624 194 624 231 624 c 2,20,-1
 347 624 l 1,21,-1
 275 287 l 1,22,-1
 367 350 l 1,23,24
 359 365 359 365 359 376 c 0,25,26
 359 404 359 404 382 422 c 0,27,28
 400 437 400 437 437 437 c 2,29,-1
 549 437 l 2,30,31
 580 437 580 437 593 428 c 128,-1,32
 606 419 606 419 606 398 c 0,33,34
 606 372 606 372 583 352 c 0,35,36
 564 337 564 337 528 337 c 2,37,-1
 501 337 l 1,38,-1
 362 241 l 1,39,-1
 492 100 l 1,40,-1
 525 100 l 2,41,42
 549 100 549 100 560 96 c 0,43,44
 582 89 582 89 582 60 c 0,45,46
 582 35 582 35 559 15 c 0,47,48
 542 0 542 0 504 0 c 2,49,-1
 386 0 l 2,50,51
 355 0 355 0 342 9 c 128,-1,52
 329 18 329 18 329 40 c 0,53,54
 329 65 329 65 354 87 c 1,55,-1
 270 178 l 1,56,-1
 249 164 l 1,0,-1
EndSplineSet
EndChar

StartChar: l
Encoding: 108 108 79
Width: 600
GlyphClass: 2
Flags: W
LayerCount: 2
Fore
SplineSet
483 624 m 1,0,-1
 372 100 l 1,1,-1
 493 100 l 2,2,3
 517 100 517 100 528 96 c 0,4,5
 550 89 550 89 550 60 c 0,6,7
 550 35 550 35 527 15 c 0,8,9
 508 0 508 0 472 0 c 2,10,-1
 129 0 l 2,11,12
 98 0 98 0 85 9 c 128,-1,13
 72 18 72 18 72 40 c 0,14,15
 72 65 72 65 95 85 c 0,16,17
 112 100 112 100 150 100 c 2,18,-1
 272 100 l 1,19,-1
 362 524 l 1,20,-1
 283 524 l 2,21,22
 258 524 258 524 249 528 c 0,23,24
 239 531 239 531 232.5 541.5 c 128,-1,25
 226 552 226 552 226 564 c 0,26,27
 226 591 226 591 250 610 c 0,28,29
 268 624 268 624 305 624 c 2,30,-1
 483 624 l 1,0,-1
EndSplineSet
EndChar

StartChar: m
Encoding: 109 109 80
Width: 600
GlyphClass: 2
Flags: W
LayerCount: 2
Fore
SplineSet
234 437 m 1,0,-1
 229 413 l 1,1,2
 283 450 283 450 322 450 c 0,3,4
 380 450 380 450 413 401 c 1,5,6
 469 450 469 450 527 450 c 0,7,8
 574 450 574 450 604 422 c 128,-1,9
 634 394 634 394 634 350 c 0,10,11
 634 336 634 336 631 319 c 2,12,-1
 584 100 l 1,13,14
 635 100 635 100 635 60 c 0,15,16
 635 35 635 35 612 15 c 0,17,18
 594 0 594 0 557 0 c 2,19,-1
 463 0 l 1,20,-1
 529 311 l 2,21,22
 531 318 531 318 531 330 c 0,23,24
 529 350 529 350 503 350 c 0,25,26
 483 350 483 350 466 341 c 128,-1,27
 449 332 449 332 417 305 c 1,28,-1
 374 100 l 1,29,30
 424 100 424 100 424 60 c 0,31,32
 424 35 424 35 401 15 c 0,33,34
 384 0 384 0 346 0 c 2,35,-1
 252 0 l 1,36,-1
 318 311 l 2,37,38
 321 322 321 322 321 329 c 0,39,40
 321 350 321 350 293 350 c 0,41,42
 255 350 255 350 206 305 c 1,43,-1
 163 100 l 1,44,45
 214 100 214 100 214 60 c 0,46,47
 214 35 214 35 191 15 c 0,48,49
 174 0 174 0 136 0 c 2,50,-1
 48 0 l 2,51,52
 17 0 17 0 4 9 c 128,-1,53
 -9 18 -9 18 -9 40 c 0,54,55
 -9 66 -9 66 11.5 83 c 128,-1,56
 32 100 32 100 63 100 c 1,57,-1
 113 337 l 1,58,59
 62 337 62 337 62 377 c 0,60,61
 62 403 62 403 86 422 c 0,62,63
 104 437 104 437 141 437 c 2,64,-1
 234 437 l 1,0,-1
EndSplineSet
EndChar

StartChar: n
Encoding: 110 110 81
Width: 600
GlyphClass: 2
Flags: W
LayerCount: 2
Fore
SplineSet
288 437 m 1,0,-1
 278 389 l 1,1,2
 321 423 321 423 354 436.5 c 128,-1,3
 387 450 387 450 428 450 c 0,4,5
 494 450 494 450 534.5 416.5 c 128,-1,6
 575 383 575 383 575 328 c 0,7,8
 575 309 575 309 570 282 c 2,9,-1
 531 100 l 1,10,11
 583 100 583 100 583 60 c 0,12,13
 583 35 583 35 560 15 c 0,14,15
 542 0 542 0 505 0 c 2,16,-1
 416 0 l 2,17,18
 385 0 385 0 372 9 c 128,-1,19
 359 18 359 18 359 40 c 0,20,21
 359 65 359 65 382 85 c 0,22,23
 400 100 400 100 432 100 c 1,24,-1
 469 278 l 2,25,26
 472 291 472 291 472 301 c 0,27,28
 472 350 472 350 394 350 c 0,29,30
 359 350 359 350 328.5 335 c 128,-1,31
 298 320 298 320 255 282 c 1,32,-1
 217 100 l 1,33,-1
 223 100 l 2,34,35
 246 100 246 100 257 96 c 0,36,37
 279 88 279 88 279 60 c 0,38,39
 279 35 279 35 256 15 c 0,40,41
 238 0 238 0 201 0 c 2,42,-1
 89 0 l 2,43,44
 59 0 59 0 46 9 c 128,-1,45
 33 18 33 18 33 40 c 0,46,47
 33 65 33 65 56 85 c 0,48,49
 74 100 74 100 111 100 c 2,50,-1
 117 100 l 1,51,-1
 167 337 l 1,52,53
 115 337 115 337 115 377 c 0,54,55
 115 404 115 404 138 422 c 0,56,57
 157 437 157 437 194 437 c 2,58,-1
 288 437 l 1,0,-1
EndSplineSet
EndChar

StartChar: o
Encoding: 111 111 82
Width: 600
GlyphClass: 2
Flags: W
LayerCount: 2
Fore
SplineSet
399 450 m 0,0,1
 492 450 492 450 550.5 397 c 128,-1,2
 609 344 609 344 609 260 c 0,3,4
 609 151 609 151 514 67.5 c 128,-1,5
 419 -16 419 -16 297 -16 c 0,6,7
 201 -16 201 -16 142.5 36 c 128,-1,8
 84 88 84 88 84 174 c 0,9,10
 84 266 84 266 158 346 c 0,11,12
 202 394 202 394 266.5 422 c 128,-1,13
 331 450 331 450 399 450 c 0,0,1
376 350 m 0,14,15
 299 350 299 350 242.5 303 c 128,-1,16
 186 256 186 256 186 192 c 0,17,18
 186 145 186 145 223 114.5 c 128,-1,19
 260 84 260 84 318 84 c 0,20,21
 394 84 394 84 450.5 131.5 c 128,-1,22
 507 179 507 179 507 242 c 0,23,24
 507 289 507 289 470 319.5 c 128,-1,25
 433 350 433 350 376 350 c 0,14,15
EndSplineSet
EndChar

StartChar: p
Encoding: 112 112 83
Width: 600
GlyphClass: 2
Flags: W
LayerCount: 2
Fore
SplineSet
188 66 m 1,0,-1
 152 -105 l 1,1,-1
 210 -105 l 2,2,3
 233 -105 233 -105 244 -109 c 0,4,5
 266 -116 266 -116 266 -144 c 0,6,7
 266 -170 266 -170 243 -190 c 0,8,9
 225 -205 225 -205 188 -205 c 2,10,-1
 14 -205 l 2,11,12
 -16 -205 -16 -205 -29 -196 c 128,-1,13
 -42 -187 -42 -187 -42 -165 c 0,14,15
 -42 -140 -42 -140 -19 -120 c 0,16,17
 -1 -105 -1 -105 36 -105 c 2,18,-1
 52 -105 l 1,19,-1
 146 337 l 1,20,-1
 129 337 l 2,21,22
 98 337 98 337 85.5 346 c 128,-1,23
 73 355 73 355 73 377 c 0,24,25
 73 402 73 402 96 422 c 0,26,27
 113 437 113 437 151 437 c 2,28,-1
 267 437 l 1,29,-1
 257 392 l 1,30,31
 337 450 337 450 423 450 c 0,32,33
 514 450 514 450 568.5 401 c 128,-1,34
 623 352 623 352 623 269 c 0,35,36
 623 163 623 163 536.5 86.5 c 128,-1,37
 450 10 450 10 329 10 c 0,38,39
 250 10 250 10 188 66 c 1,0,-1
398 350 m 0,40,41
 325 350 325 350 274.5 310 c 128,-1,42
 224 270 224 270 221 211 c 0,43,44
 219 169 219 169 251 139 c 0,45,46
 285 110 285 110 346 110 c 128,-1,47
 407 110 407 110 453 139 c 0,48,49
 484 159 484 159 503 190 c 128,-1,50
 522 221 522 221 522 252 c 0,51,52
 522 297 522 297 488 323.5 c 128,-1,53
 454 350 454 350 398 350 c 0,40,41
EndSplineSet
EndChar

StartChar: q
Encoding: 113 113 84
Width: 600
GlyphClass: 2
Flags: W
LayerCount: 2
Fore
SplineSet
408 -105 m 1,0,-1
 444 66 l 1,1,2
 360 10 360 10 277 10 c 0,3,4
 188 10 188 10 131.5 56.5 c 128,-1,5
 75 103 75 103 75 177 c 0,6,7
 75 232 75 232 102.5 286.5 c 128,-1,8
 130 341 130 341 177 381 c 0,9,10
 260 450 260 450 373 450 c 0,11,12
 459 450 459 450 514 392 c 1,13,-1
 523 437 l 1,14,-1
 640 437 l 2,15,16
 663 437 663 437 674 433 c 0,17,18
 696 425 696 425 696 397 c 0,19,20
 696 372 696 372 673 352 c 0,21,22
 656 337 656 337 618 337 c 2,23,-1
 602 337 l 1,24,-1
 508 -105 l 1,25,-1
 524 -105 l 2,26,27
 547 -105 547 -105 559 -109 c 0,28,29
 581 -117 581 -117 581 -145 c 0,30,31
 581 -170 581 -170 558 -190 c 0,32,33
 540 -205 540 -205 503 -205 c 2,34,-1
 329 -205 l 2,35,36
 303 -205 303 -205 294 -201 c 0,37,38
 285 -198 285 -198 278.5 -187.5 c 128,-1,39
 272 -177 272 -177 272 -166 c 0,40,41
 272 -138 272 -138 295 -120 c 0,42,43
 312 -105 312 -105 350 -105 c 2,44,-1
 408 -105 l 1,0,-1
356 350 m 0,45,46
 295 350 295 350 248 321 c 0,47,48
 217 301 217 301 198 270 c 128,-1,49
 179 239 179 239 179 208 c 0,50,51
 179 163 179 163 213 136.5 c 128,-1,52
 247 110 247 110 305 110 c 0,53,54
 367 110 367 110 413 139 c 0,55,56
 443 159 443 159 462.5 190 c 128,-1,57
 482 221 482 221 482 249 c 0,58,59
 482 297 482 297 448.5 323.5 c 128,-1,60
 415 350 415 350 356 350 c 0,45,46
EndSplineSet
EndChar

StartChar: r
Encoding: 114 114 85
Width: 600
GlyphClass: 2
Flags: W
LayerCount: 2
Fore
SplineSet
371 437 m 1,0,-1
 358 373 l 1,1,2
 430 419 430 419 467 434 c 128,-1,3
 504 449 504 449 541 449 c 0,4,5
 581 449 581 449 615.5 425 c 128,-1,6
 650 401 650 401 650 375 c 0,7,8
 650 352 650 352 630.5 333 c 128,-1,9
 611 314 611 314 588 314 c 0,10,11
 570 314 570 314 553 332 c 128,-1,12
 536 350 536 350 517 350 c 0,13,14
 494 350 494 350 453 327.5 c 128,-1,15
 412 305 412 305 331 248 c 1,16,-1
 300 100 l 1,17,-1
 439 100 l 2,18,19
 463 100 463 100 474 96 c 0,20,21
 496 89 496 89 496 60 c 0,22,23
 496 35 496 35 473 15 c 0,24,25
 454 0 454 0 418 0 c 2,26,-1
 120 0 l 2,27,28
 90 0 90 0 77 9 c 128,-1,29
 64 18 64 18 64 40 c 0,30,31
 64 65 64 65 87 85 c 0,32,33
 103 100 103 100 141 100 c 2,34,-1
 200 100 l 1,35,-1
 250 338 l 1,36,-1
 215 338 l 2,37,38
 185 338 185 338 172 347 c 128,-1,39
 159 356 159 356 159 377 c 0,40,41
 159 402 159 402 182 422 c 0,42,43
 200 437 200 437 236 437 c 2,44,-1
 371 437 l 1,0,-1
EndSplineSet
EndChar

StartChar: s
Encoding: 115 115 86
Width: 600
GlyphClass: 2
Flags: W
LayerCount: 2
Fore
SplineSet
475 312 m 2,0,-1
 472 321 l 1,1,2
 439 350 439 350 376 350 c 0,3,4
 335 350 335 350 302 338 c 128,-1,5
 269 326 269 326 269 312 c 0,6,7
 269 299 269 299 291 291 c 0,8,9
 303 286 303 286 371 276 c 0,10,11
 469 263 469 263 507 239 c 0,12,13
 556 207 556 207 556 150 c 0,14,15
 556 80 556 80 482.5 32 c 128,-1,16
 409 -16 409 -16 301 -16 c 0,17,18
 214 -16 214 -16 159 13 c 1,19,20
 140 1 140 1 124 1 c 0,21,22
 106 1 106 1 94.5 11.5 c 128,-1,23
 83 22 83 22 83 39 c 0,24,25
 83 47 83 47 87 67 c 2,26,-1
 94 100 l 2,27,28
 109 167 109 167 159 167 c 0,29,30
 197 167 197 167 201 123 c 1,31,32
 236 84 236 84 318 84 c 0,33,34
 369 84 369 84 406.5 98 c 128,-1,35
 444 112 444 112 444 131 c 0,36,37
 444 151 444 151 417 162 c 0,38,39
 397 171 397 171 328 179 c 0,40,41
 237 189 237 189 196.5 214.5 c 128,-1,42
 156 240 156 240 156 289 c 0,43,44
 156 357 156 357 225 403.5 c 128,-1,45
 294 450 294 450 394 450 c 0,46,47
 466 450 466 450 517 424 c 1,48,49
 534 450 534 450 555 450 c 0,50,51
 572 450 572 450 582 440 c 128,-1,52
 592 430 592 430 592 414 c 0,53,54
 592 403 592 403 588 384 c 2,55,-1
 580 347 l 2,56,57
 572 312 572 312 561 301 c 0,58,59
 539 281 539 281 516 281 c 0,60,61
 486 281 486 281 475 312 c 2,0,-1
EndSplineSet
EndChar

StartChar: t
Encoding: 116 116 87
Width: 600
GlyphClass: 2
Flags: W
LayerCount: 2
Fore
SplineSet
286 337 m 1,0,-1
 244 141 l 2,1,2
 241 127 241 127 241 117 c 0,3,4
 241 84 241 84 318 84 c 0,5,6
 398 84 398 84 472 118 c 0,7,8
 494 129 494 129 508 129 c 0,9,10
 525 129 525 129 536 118 c 128,-1,11
 547 107 547 107 547 89 c 0,12,13
 547 56 547 56 512 37 c 0,14,15
 471 15 471 15 407.5 -0.5 c 128,-1,16
 344 -16 344 -16 291 -16 c 0,17,18
 220 -16 220 -16 174 16 c 0,19,20
 137 42 137 42 137 92 c 0,21,22
 137 107 137 107 140 122 c 2,23,-1
 186 337 l 1,24,-1
 151 337 l 2,25,26
 120 337 120 337 107 346 c 128,-1,27
 94 355 94 355 94 377 c 0,28,29
 94 403 94 403 117 423 c 0,30,31
 134 437 134 437 172 437 c 2,32,-1
 207 437 l 1,33,-1
 226 525 l 2,34,35
 232 558 232 558 245 571 c 0,36,37
 265 591 265 591 290 591 c 0,38,39
 307 591 307 591 318.5 580 c 128,-1,40
 330 569 330 569 330 553 c 0,41,42
 330 544 330 544 326 525 c 2,43,-1
 307 437 l 1,44,-1
 488 437 l 2,45,46
 511 437 511 437 523 433 c 0,47,48
 545 426 545 426 545 397 c 0,49,50
 545 372 545 372 522 352 c 0,51,52
 505 337 505 337 467 337 c 2,53,-1
 286 337 l 1,0,-1
EndSplineSet
EndChar

StartChar: u
Encoding: 117 117 88
Width: 600
GlyphClass: 2
Flags: W
LayerCount: 2
Fore
SplineSet
603 437 m 1,0,-1
 531 100 l 1,1,2
 583 100 583 100 583 61 c 0,3,4
 583 33 583 33 559 15 c 0,5,6
 543 0 543 0 504 0 c 2,7,-1
 410 0 l 1,8,-1
 420 48 l 1,9,10
 375 13 375 13 343.5 0 c 128,-1,11
 312 -13 312 -13 270 -13 c 0,12,13
 204 -13 204 -13 163.5 21 c 128,-1,14
 123 55 123 55 123 110 c 0,15,16
 123 136 123 136 128 156 c 2,17,-1
 166 338 l 1,18,-1
 150 338 l 2,19,20
 120 338 120 338 107 347 c 128,-1,21
 94 356 94 356 94 378 c 0,22,23
 94 403 94 403 117 423 c 0,24,25
 135 437 135 437 172 437 c 2,26,-1
 288 437 l 1,27,-1
 229 159 l 2,28,29
 226 147 226 147 226 136 c 0,30,31
 226 87 226 87 301 87 c 0,32,33
 338 87 338 87 367 100.5 c 128,-1,34
 396 114 396 114 443 155 c 1,35,-1
 482 338 l 1,36,-1
 447 338 l 2,37,38
 416 338 416 338 403 347 c 128,-1,39
 390 356 390 356 390 377 c 0,40,41
 390 403 390 403 413 423 c 0,42,43
 432 437 432 437 468 437 c 2,44,-1
 603 437 l 1,0,-1
EndSplineSet
EndChar

StartChar: v
Encoding: 118 118 89
Width: 600
GlyphClass: 2
Flags: W
LayerCount: 2
Fore
SplineSet
327 122 m 1,0,-1
 481 337 l 1,1,-1
 471 337 l 2,2,3
 440 337 440 337 427 346 c 128,-1,4
 414 355 414 355 414 377 c 0,5,6
 414 402 414 402 437 422 c 0,7,8
 454 437 454 437 492 437 c 2,9,-1
 626 437 l 2,10,11
 650 437 650 437 661 433 c 0,12,13
 683 426 683 426 683 398 c 0,14,15
 683 372 683 372 660 352 c 0,16,17
 642 337 642 337 605 337 c 2,18,-1
 589 337 l 1,19,-1
 350 0 l 1,20,-1
 247 0 l 1,21,-1
 151 337 l 1,22,-1
 138 337 l 2,23,24
 107 337 107 337 94 346 c 128,-1,25
 81 355 81 355 81 377 c 0,26,27
 81 402 81 402 104 422 c 0,28,29
 121 437 121 437 159 437 c 2,30,-1
 291 437 l 2,31,32
 314 437 314 437 325 433 c 0,33,34
 347 426 347 426 347 397 c 0,35,36
 347 372 347 372 324 352 c 0,37,38
 306 337 306 337 270 337 c 2,39,-1
 264 337 l 1,40,-1
 327 122 l 1,0,-1
EndSplineSet
EndChar

StartChar: w
Encoding: 119 119 90
Width: 600
GlyphClass: 2
Flags: W
LayerCount: 2
Fore
SplineSet
340 181 m 1,0,-1
 234 0 l 1,1,-1
 140 0 l 1,2,-1
 127 338 l 1,3,4
 82 340 82 340 82 377 c 0,5,6
 82 404 82 404 105 422 c 0,7,8
 122 437 122 437 160 437 c 2,9,-1
 252 437 l 2,10,11
 275 437 275 437 286 433 c 0,12,13
 308 426 308 426 308 398 c 0,14,15
 308 372 308 372 286 352 c 0,16,17
 268 338 268 338 233 338 c 1,18,-1
 239 185 l 1,19,-1
 332 343 l 1,20,-1
 421 343 l 1,21,-1
 448 185 l 1,22,-1
 521 338 l 1,23,-1
 514 338 l 2,24,25
 490 338 490 338 479 342 c 0,26,27
 457 349 457 349 457 377 c 0,28,29
 457 404 457 404 480 422 c 0,30,31
 498 437 498 437 535 437 c 2,32,-1
 627 437 l 2,33,34
 651 437 651 437 662 433 c 0,35,36
 684 426 684 426 684 397 c 0,37,38
 684 375 684 375 667 358 c 0,39,40
 651 341 651 341 620 338 c 1,41,-1
 465 0 l 1,42,-1
 373 0 l 1,43,-1
 340 181 l 1,0,-1
EndSplineSet
EndChar

StartChar: x
Encoding: 120 120 91
Width: 600
GlyphClass: 2
Flags: W
LayerCount: 2
Fore
SplineSet
421 227 m 1,0,-1
 545 100 l 1,1,2
 590 98 590 98 590 60 c 0,3,4
 590 35 590 35 567 15 c 0,5,6
 550 0 550 0 512 0 c 2,7,-1
 400 0 l 2,8,9
 369 0 369 0 356 9 c 128,-1,10
 343 18 343 18 343 40 c 0,11,12
 343 60 343 60 357.5 77 c 128,-1,13
 372 94 372 94 395 100 c 1,14,-1
 333 161 l 1,15,-1
 246 100 l 1,16,17
 263 92 263 92 269.5 84 c 128,-1,18
 276 76 276 76 276 62 c 0,19,20
 276 35 276 35 253 15 c 0,21,22
 236 0 236 0 197 0 c 2,23,-1
 87 0 l 2,24,25
 56 0 56 0 43 9 c 128,-1,26
 30 18 30 18 30 40 c 128,-1,27
 30 62 30 62 47 79 c 0,28,29
 63 97 63 97 96 100 c 1,30,-1
 268 228 l 1,31,-1
 163 337 l 1,32,33
 120 341 120 341 120 377 c 0,34,35
 120 404 120 404 143 422 c 0,36,37
 162 437 162 437 198 437 c 2,38,-1
 291 437 l 2,39,40
 314 437 314 437 325 433 c 0,41,42
 347 425 347 425 347 397 c 0,43,44
 347 363 347 363 310 342 c 1,45,-1
 361 293 l 1,46,-1
 432 343 l 1,47,48
 414 358 414 358 414 376 c 0,49,50
 414 402 414 402 437 422 c 0,51,52
 456 437 456 437 492 437 c 2,53,-1
 584 437 l 2,54,55
 607 437 607 437 619 433 c 0,56,57
 641 426 641 426 641 398 c 0,58,59
 641 373 641 373 623 356.5 c 128,-1,60
 605 340 605 340 576 337 c 1,61,-1
 421 227 l 1,0,-1
EndSplineSet
EndChar

StartChar: y
Encoding: 121 121 92
Width: 600
GlyphClass: 2
Flags: W
LayerCount: 2
Fore
SplineSet
243 3 m 1,0,-1
 142 337 l 1,1,2
 102 343 102 343 102 377 c 0,3,4
 102 404 102 404 125 422 c 0,5,6
 144 437 144 437 180 437 c 2,7,-1
 270 437 l 2,8,9
 293 437 293 437 304 433 c 0,10,11
 326 426 326 426 326 398 c 0,12,13
 326 371 326 371 306.5 354.5 c 128,-1,14
 287 338 287 338 255 337 c 1,15,-1
 323 114 l 1,16,-1
 489 337 l 1,17,-1
 484 337 l 2,18,19
 435 337 435 337 435 377 c 0,20,21
 435 404 435 404 458 422 c 0,22,23
 476 437 476 437 513 437 c 2,24,-1
 605 437 l 2,25,26
 629 437 629 437 640 433 c 0,27,28
 662 426 662 426 662 397 c 0,29,30
 662 373 662 373 644.5 356.5 c 128,-1,31
 627 340 627 340 599 337 c 1,32,-1
 274 -105 l 1,33,-1
 279 -105 l 2,34,35
 303 -105 303 -105 314 -109 c 0,36,37
 336 -116 336 -116 336 -144 c 0,38,39
 336 -170 336 -170 313 -190 c 0,40,41
 296 -205 296 -205 258 -205 c 2,42,-1
 44 -205 l 2,43,44
 13 -205 13 -205 0 -196 c 128,-1,45
 -13 -187 -13 -187 -13 -165 c 0,46,47
 -13 -140 -13 -140 10 -120 c 0,48,49
 29 -105 29 -105 65 -105 c 2,50,-1
 165 -105 l 1,51,-1
 243 3 l 1,0,-1
EndSplineSet
EndChar

StartChar: z
Encoding: 122 122 93
Width: 600
GlyphClass: 2
Flags: W
LayerCount: 2
Fore
SplineSet
265 100 m 1,0,-1
 441 100 l 1,1,2
 456 154 456 154 502 154 c 0,3,4
 519 154 519 154 530.5 143.5 c 128,-1,5
 542 133 542 133 542 117 c 0,6,7
 542 108 542 108 538 88 c 2,8,-1
 519 0 l 1,9,-1
 85 0 l 1,10,-1
 103 83 l 1,11,-1
 417 337 l 1,12,-1
 269 337 l 1,13,-1
 267 328 l 2,14,15
 260 295 260 295 248 283 c 0,16,17
 227 262 227 262 203 262 c 0,18,19
 186 262 186 262 174.5 272.5 c 128,-1,20
 163 283 163 283 163 299 c 0,21,22
 163 310 163 310 167 328 c 2,23,-1
 190 437 l 1,24,-1
 599 437 l 1,25,-1
 582 356 l 1,26,-1
 265 100 l 1,0,-1
EndSplineSet
EndChar

StartChar: braceleft
Encoding: 123 123 94
Width: 600
GlyphClass: 2
Flags: W
LayerCount: 2
Fore
SplineSet
451 485 m 2,0,-1
 418 328 l 2,1,2
 411 295 411 295 401 277.5 c 128,-1,3
 391 260 391 260 370 240 c 1,4,5
 386 214 386 214 386 194 c 0,6,7
 386 177 386 177 378 142 c 2,8,-1
 345 -15 l 2,9,10
 343 -27 343 -27 343 -30 c 0,11,12
 343 -42 343 -42 349 -46.5 c 128,-1,13
 355 -51 355 -51 373 -52 c 0,14,15
 392 -53 392 -53 402.5 -63.5 c 128,-1,16
 413 -74 413 -74 413 -91 c 0,17,18
 413 -117 413 -117 393.5 -135 c 128,-1,19
 374 -153 374 -153 345 -153 c 0,20,21
 301 -153 301 -153 271 -123 c 128,-1,22
 241 -93 241 -93 241 -48 c 0,23,24
 241 -36 241 -36 244 -22 c 2,25,-1
 280 151 l 2,26,27
 283 161 283 161 283 169 c 0,28,29
 283 186 283 186 256 189 c 0,30,31
 217 193 217 193 217 227 c 0,32,33
 217 253 217 253 233.5 270 c 128,-1,34
 250 287 250 287 278 290 c 0,35,36
 298 292 298 292 306 299.5 c 128,-1,37
 314 307 314 307 318 328 c 2,38,-1
 353 492 l 2,39,40
 364 545 364 545 411 584 c 128,-1,41
 458 623 458 623 511 623 c 0,42,43
 532 623 532 623 544 612.5 c 128,-1,44
 556 602 556 602 556 583 c 0,45,46
 556 560 556 560 538 542 c 128,-1,47
 520 524 520 524 495 522 c 0,48,49
 475 522 475 522 465.5 514 c 128,-1,50
 456 506 456 506 451 485 c 2,0,-1
EndSplineSet
EndChar

StartChar: bar
Encoding: 124 124 95
Width: 600
GlyphClass: 2
Flags: W
LayerCount: 2
Fore
SplineSet
468 556 m 2,0,-1
 331 -87 l 2,1,2
 325 -119 325 -119 312 -132 c 0,3,4
 291 -153 291 -153 267 -153 c 0,5,6
 250 -153 250 -153 238.5 -142.5 c 128,-1,7
 227 -132 227 -132 227 -116 c 0,8,9
 227 -104 227 -104 231 -87 c 2,10,-1
 368 556 l 2,11,12
 374 588 374 588 387 601 c 0,13,14
 406 622 406 622 432 622 c 0,15,16
 449 622 449 622 460.5 611 c 128,-1,17
 472 600 472 600 472 584 c 0,18,19
 472 575 472 575 468 556 c 2,0,-1
EndSplineSet
EndChar

StartChar: braceright
Encoding: 125 125 96
Width: 600
GlyphClass: 2
Flags: W
LayerCount: 2
Fore
SplineSet
249 -15 m 2,0,-1
 282 142 l 2,1,2
 289 175 289 175 299 192.5 c 128,-1,3
 309 210 309 210 330 230 c 1,4,5
 314 256 314 256 314 276 c 0,6,7
 314 293 314 293 322 328 c 2,8,-1
 355 485 l 2,9,10
 357 497 357 497 357 500 c 0,11,12
 357 512 357 512 351 516.5 c 128,-1,13
 345 521 345 521 327 522 c 0,14,15
 287 525 287 525 287 562 c 0,16,17
 287 588 287 588 307 605.5 c 128,-1,18
 327 623 327 623 355 623 c 0,19,20
 399 623 399 623 429 593 c 128,-1,21
 459 563 459 563 459 518 c 0,22,23
 459 506 459 506 456 492 c 2,24,-1
 420 319 l 2,25,26
 417 308 417 308 417 301 c 0,27,28
 417 284 417 284 444 281 c 0,29,30
 483 277 483 277 483 243 c 0,31,32
 483 217 483 217 466.5 200 c 128,-1,33
 450 183 450 183 422 180 c 0,34,35
 403 178 403 178 395 170 c 128,-1,36
 387 162 387 162 382 142 c 2,37,-1
 347 -22 l 2,38,39
 336 -75 336 -75 289 -114 c 128,-1,40
 242 -153 242 -153 189 -153 c 0,41,42
 168 -153 168 -153 156 -142.5 c 128,-1,43
 144 -132 144 -132 144 -113 c 0,44,45
 144 -90 144 -90 162 -72 c 128,-1,46
 180 -54 180 -54 205 -52 c 0,47,48
 225 -52 225 -52 234.5 -44 c 128,-1,49
 244 -36 244 -36 249 -15 c 2,0,-1
EndSplineSet
EndChar

StartChar: asciitilde
Encoding: 126 126 97
Width: 600
GlyphClass: 2
Flags: W
LayerCount: 2
Fore
SplineSet
565 364 m 0,0,1
 582 364 582 364 594 352.5 c 128,-1,2
 606 341 606 341 606 324 c 0,3,4
 606 298 606 298 571 262 c 0,5,6
 523 214 523 214 493 196.5 c 128,-1,7
 463 179 463 179 428 179 c 0,8,9
 375 179 375 179 308 254 c 0,10,11
 282 281 282 281 271 281 c 0,12,13
 259 281 259 281 216 239 c 0,14,15
 191 215 191 215 180 208 c 128,-1,16
 169 201 169 201 156 201 c 0,17,18
 139 201 139 201 126.5 212.5 c 128,-1,19
 114 224 114 224 114 240 c 0,20,21
 114 271 114 271 169 322 c 0,22,23
 238 385 238 385 295 385 c 0,24,25
 327 385 327 385 351 369.5 c 128,-1,26
 375 354 375 354 416 307 c 0,27,28
 437 284 437 284 449 284 c 0,29,30
 465 284 465 284 508 330 c 0,31,32
 541 364 541 364 565 364 c 0,0,1
EndSplineSet
EndChar

StartChar: exclamdown
Encoding: 161 161 98
Width: 600
GlyphClass: 2
Flags: W
LayerCount: 2
Fore
SplineSet
197 -114 m 2,0,-1
 289 183 l 2,1,2
 305 232 305 232 349 232 c 0,3,4
 389 232 389 232 389 191 c 0,5,6
 389 186 389 186 388 183 c 1,7,-1
 354 -114 l 2,8,9
 348 -169 348 -169 326 -192 c 0,10,11
 296 -227 296 -227 252 -227 c 0,12,13
 223 -227 223 -227 204.5 -210 c 128,-1,14
 186 -193 186 -193 186 -167 c 0,15,16
 186 -152 186 -152 197 -114 c 2,0,-1
382 426 m 2,17,-1
 399 426 l 2,18,19
 423 426 423 426 438 411 c 128,-1,20
 453 396 453 396 453 373 c 0,21,22
 453 343 453 343 427.5 318.5 c 128,-1,23
 402 294 402 294 371 294 c 2,24,-1
 353 294 l 2,25,26
 330 294 330 294 315 308.5 c 128,-1,27
 300 323 300 323 300 346 c 0,28,29
 300 377 300 377 325 401.5 c 128,-1,30
 350 426 350 426 382 426 c 2,17,-1
EndSplineSet
EndChar

StartChar: cent
Encoding: 162 162 99
Width: 600
GlyphClass: 2
Flags: W
LayerCount: 2
Fore
SplineSet
372 99 m 1,0,-1
 356 22 l 2,1,2
 349 -10 349 -10 336 -23 c 0,3,4
 317 -44 317 -44 291 -44 c 0,5,6
 275 -44 275 -44 263 -33 c 128,-1,7
 251 -22 251 -22 251 -7 c 0,8,9
 251 2 251 2 255 22 c 2,10,-1
 273 103 l 1,11,12
 211 119 211 119 177.5 161.5 c 128,-1,13
 144 204 144 204 144 265 c 0,14,15
 144 351 144 351 206 423.5 c 128,-1,16
 268 496 268 496 361 517 c 1,17,-1
 377 594 l 2,18,19
 385 629 385 629 397 640 c 0,20,21
 416 661 416 661 442 661 c 0,22,23
 459 661 459 661 470.5 650 c 128,-1,24
 482 639 482 639 482 623 c 0,25,26
 482 614 482 614 477 594 c 2,27,-1
 463 527 l 1,28,29
 505 521 505 521 531 503 c 1,30,31
 543 507 543 507 552 507 c 0,32,33
 570 507 570 507 581.5 496.5 c 128,-1,34
 593 486 593 486 593 469 c 0,35,36
 593 461 593 461 589 441 c 2,37,-1
 580 399 l 2,38,39
 572 365 572 365 561 354 c 0,40,41
 542 333 542 333 516 333 c 0,42,43
 495 333 495 333 484 347 c 0,44,45
 478 354 478 354 477 384 c 0,46,47
 476 427 476 427 410 427 c 128,-1,48
 344 427 344 427 295 385.5 c 128,-1,49
 246 344 246 344 246 288 c 0,50,51
 246 248 246 248 275.5 222.5 c 128,-1,52
 305 197 305 197 351 197 c 0,53,54
 406 197 406 197 464 233 c 0,55,56
 483 245 483 245 501 245 c 0,57,58
 518 245 518 245 529.5 233 c 128,-1,59
 541 221 541 221 541 204 c 0,60,61
 541 170 541 170 494 141 c 128,-1,62
 447 112 447 112 372 99 c 1,0,-1
EndSplineSet
EndChar

StartChar: sterling
Encoding: 163 163 100
Width: 600
GlyphClass: 2
Flags: W
LayerCount: 2
Fore
SplineSet
366 243 m 2,0,-1
 320 243 l 1,1,2
 306 162 306 162 267 100 c 1,3,-1
 471 100 l 1,4,5
 488 146 488 146 530 146 c 0,6,7
 548 146 548 146 559.5 135.5 c 128,-1,8
 571 125 571 125 571 108 c 0,9,10
 571 66 571 66 539 34 c 0,11,12
 505 0 505 0 442 0 c 2,13,-1
 121 0 l 2,14,15
 90 0 90 0 77 9 c 128,-1,16
 64 18 64 18 64 40 c 0,17,18
 64 88 64 88 126 100 c 0,19,20
 159 103 159 103 183.5 140.5 c 128,-1,21
 208 178 208 178 219 243 c 1,22,-1
 150 243 l 2,23,24
 127 243 127 243 115 247 c 0,25,26
 93 255 93 255 93 283 c 0,27,28
 93 310 93 310 116 328 c 0,29,30
 133 343 133 343 172 343 c 2,31,-1
 216 343 l 1,32,33
 212 367 212 367 212 385 c 0,34,35
 212 474 212 474 274 536 c 128,-1,36
 336 598 336 598 425 598 c 0,37,38
 479 598 479 598 521 569.5 c 128,-1,39
 563 541 563 541 563 505 c 0,40,41
 563 482 563 482 543.5 463 c 128,-1,42
 524 444 524 444 501 444 c 0,43,44
 488 444 488 444 481.5 448.5 c 128,-1,45
 475 453 475 453 461 472 c 0,46,47
 444 498 444 498 404 498 c 128,-1,48
 364 498 364 498 339.5 473.5 c 128,-1,49
 315 449 315 449 315 409 c 0,50,51
 315 390 315 390 318 355 c 2,52,-1
 319 343 l 1,53,-1
 387 343 l 2,54,55
 410 343 410 343 422 339 c 0,56,57
 444 331 444 331 444 303 c 0,58,59
 444 278 444 278 421 258 c 0,60,61
 402 243 402 243 366 243 c 2,0,-1
EndSplineSet
EndChar

StartChar: fraction
Encoding: 8260 8260 101
Width: 600
GlyphClass: 2
Flags: W
LayerCount: 2
Fore
SplineSet
628 398 m 2,0,-1
 137 119 l 2,1,2
 107 102 107 102 91 102 c 128,-1,3
 75 102 75 102 63.5 114 c 128,-1,4
 52 126 52 126 52 143 c 0,5,6
 52 163 52 163 62.5 175.5 c 128,-1,7
 73 188 73 188 101 204 c 2,8,-1
 591 483 l 2,9,10
 620 500 620 500 637 500 c 0,11,12
 653 500 653 500 664.5 488 c 128,-1,13
 676 476 676 476 676 460 c 0,14,15
 676 441 676 441 665.5 427.5 c 128,-1,16
 655 414 655 414 628 398 c 2,0,-1
EndSplineSet
EndChar

StartChar: yen
Encoding: 165 165 102
Width: 600
GlyphClass: 2
Flags: W
LayerCount: 2
Fore
SplineSet
375 348 m 1,0,-1
 498 481 l 1,1,2
 467 490 467 490 467 520 c 0,3,4
 467 545 467 545 490 565 c 0,5,6
 507 580 507 580 545 580 c 2,7,-1
 636 580 l 2,8,9
 662 580 662 580 671 576 c 0,10,11
 693 569 693 569 693 540 c 0,12,13
 693 515 693 515 670 495 c 0,14,15
 652 480 652 480 618 480 c 2,16,-1
 616 480 l 1,17,-1
 435 281 l 1,18,-1
 507 281 l 2,19,20
 533 281 533 281 533 259 c 0,21,22
 533 244 533 244 522.5 234.5 c 128,-1,23
 512 225 512 225 495 225 c 2,24,-1
 398 225 l 1,25,-1
 391 191 l 1,26,-1
 488 191 l 2,27,28
 514 191 514 191 514 170 c 0,29,30
 514 154 514 154 503.5 144.5 c 128,-1,31
 493 135 493 135 476 135 c 2,32,-1
 379 135 l 1,33,-1
 372 100 l 1,34,-1
 418 100 l 2,35,36
 444 100 444 100 453 96 c 0,37,38
 475 88 475 88 475 61 c 0,39,40
 475 35 475 35 452 15 c 0,41,42
 433 0 433 0 397 0 c 2,43,-1
 204 0 l 2,44,45
 173 0 173 0 160 9 c 128,-1,46
 147 18 147 18 147 40 c 0,47,48
 147 66 147 66 170 86 c 0,49,50
 188 100 188 100 225 100 c 2,51,-1
 272 100 l 1,52,-1
 279 135 l 1,53,-1
 182 135 l 2,54,55
 156 135 156 135 156 157 c 0,56,57
 156 172 156 172 166.5 181.5 c 128,-1,58
 177 191 177 191 194 191 c 2,59,-1
 291 191 l 1,60,-1
 298 225 l 1,61,-1
 201 225 l 2,62,63
 176 225 176 225 176 247 c 0,64,65
 176 262 176 262 186.5 271.5 c 128,-1,66
 197 281 197 281 213 281 c 2,67,-1
 285 281 l 1,68,-1
 189 480 l 1,69,-1
 181 480 l 2,70,71
 133 480 133 480 133 520 c 0,72,73
 133 547 133 547 156 565 c 0,74,75
 173 580 173 580 211 580 c 2,76,-1
 303 580 l 2,77,78
 329 580 329 580 338 576 c 0,79,80
 360 568 360 568 360 541 c 0,81,82
 360 520 360 520 345.5 503 c 128,-1,83
 331 486 331 486 310 481 c 1,84,-1
 375 348 l 1,0,-1
EndSplineSet
EndChar

StartChar: florin
Encoding: 402 402 103
Width: 600
GlyphClass: 2
Flags: W
LayerCount: 2
Fore
SplineSet
440 404 m 1,0,-1
 497 404 l 2,1,2
 524 404 524 404 532 400 c 1,3,4
 555 393 555 393 555 365 c 128,-1,5
 555 337 555 337 532 319 c 0,6,7
 513 304 513 304 476 304 c 2,8,-1
 419 304 l 1,9,-1
 368 66 l 2,10,11
 351 -15 351 -15 288.5 -69 c 128,-1,12
 226 -123 226 -123 150 -123 c 0,13,14
 101 -123 101 -123 72 -108.5 c 128,-1,15
 43 -94 43 -94 43 -70 c 0,16,17
 43 -47 43 -47 62 -28 c 128,-1,18
 81 -9 81 -9 104 -9 c 0,19,20
 111 -9 111 -9 125 -15 c 0,21,22
 149 -23 149 -23 172 -23 c 0,23,24
 206 -23 206 -23 233 1.5 c 128,-1,25
 260 26 260 26 268 66 c 2,26,-1
 319 304 l 1,27,-1
 261 304 l 2,28,29
 230 304 230 304 217 313 c 128,-1,30
 204 322 204 322 204 344 c 0,31,32
 204 371 204 371 227 389 c 0,33,34
 244 404 244 404 283 404 c 2,35,-1
 340 404 l 1,36,-1
 352 459 l 2,37,38
 368 534 368 534 430 586 c 128,-1,39
 492 638 492 638 566 638 c 0,40,41
 615 638 615 638 643.5 624 c 128,-1,42
 672 610 672 610 672 587 c 0,43,44
 672 563 672 563 653.5 543.5 c 128,-1,45
 635 524 635 524 612 524 c 0,46,47
 603 524 603 524 589 529 c 0,48,49
 566 538 566 538 542 538 c 0,50,51
 511 538 511 538 485 514 c 128,-1,52
 459 490 459 490 451 456 c 2,53,-1
 440 404 l 1,0,-1
EndSplineSet
EndChar

StartChar: section
Encoding: 167 167 104
Width: 600
GlyphClass: 2
Flags: W
LayerCount: 2
Fore
SplineSet
536 493 m 1,0,-1
 392 493 l 2,1,2
 360 493 360 493 335 474.5 c 128,-1,3
 310 456 310 456 310 433 c 0,4,5
 310 398 310 398 397 342 c 2,6,-1
 478 291 l 2,7,8
 546 247 546 247 570 219 c 128,-1,9
 594 191 594 191 594 154 c 0,10,11
 594 102 594 102 558 62.5 c 128,-1,12
 522 23 522 23 464 10 c 1,13,14
 465 7 465 7 465 3 c 0,15,16
 465 -37 465 -37 444 -73 c 0,17,18
 386 -170 386 -170 276 -170 c 2,19,-1
 45 -170 l 1,20,-1
 72 -43 l 2,21,22
 84 12 84 12 128 12 c 0,23,24
 144 12 144 12 154 3 c 128,-1,25
 164 -6 164 -6 164 -20 c 0,26,27
 164 -27 164 -27 160 -43 c 2,28,-1
 152 -82 l 1,29,-1
 297 -82 l 2,30,31
 327 -82 327 -82 351.5 -63 c 128,-1,32
 376 -44 376 -44 376 -21 c 0,33,34
 376 14 376 14 291 69 c 2,35,-1
 198 130 l 2,36,37
 142 166 142 166 117.5 196 c 128,-1,38
 93 226 93 226 93 259 c 0,39,40
 93 309 93 309 128.5 348 c 128,-1,41
 164 387 164 387 223 402 c 1,42,43
 222 408 222 408 222 415 c 0,44,45
 222 437 222 437 236 466 c 128,-1,46
 250 495 250 495 270 518 c 0,47,48
 329 583 329 583 418 583 c 2,49,-1
 643 583 l 1,50,-1
 616 456 l 2,51,52
 604 401 604 401 560 401 c 0,53,54
 546 401 546 401 535.5 410 c 128,-1,55
 525 419 525 419 525 432 c 0,56,57
 525 446 525 446 528 456 c 2,58,-1
 536 493 l 1,0,-1
261 326 m 1,59,-1
 258 326 l 1,60,-1
 247 326 l 2,61,62
 224 325 224 325 208.5 313 c 128,-1,63
 193 301 193 301 193 284 c 0,64,65
 193 250 193 250 262 205 c 2,66,-1
 352 147 l 2,67,68
 410 106 410 106 425 88 c 1,69,-1
 433 88 l 1,70,-1
 443 88 l 2,71,72
 465 89 465 89 479.5 100 c 128,-1,73
 494 111 494 111 494 126 c 0,74,75
 494 162 494 162 417 214 c 2,76,-1
 329 271 l 2,77,78
 295 294 295 294 261 326 c 1,59,-1
EndSplineSet
EndChar

StartChar: currency
Encoding: 164 164 105
Width: 600
GlyphClass: 2
Flags: W
LayerCount: 2
Fore
SplineSet
213 388 m 1,0,-1
 188 420 l 2,1,2
 183 426 183 426 177 440.5 c 128,-1,3
 171 455 171 455 171 461 c 0,4,5
 171 482 171 482 191 500.5 c 128,-1,6
 211 519 211 519 234 519 c 0,7,8
 247 519 247 519 254 514.5 c 128,-1,9
 261 510 261 510 275 493 c 2,10,-1
 301 462 l 1,11,12
 357 488 357 488 403 488 c 0,13,14
 453 488 453 488 495 461 c 1,15,-1
 532 491 l 2,16,17
 564 517 564 517 585 517 c 0,18,19
 603 517 603 517 614.5 505.5 c 128,-1,20
 626 494 626 494 626 476 c 0,21,22
 626 461 626 461 618.5 449.5 c 128,-1,23
 611 438 611 438 589 420 c 2,24,-1
 551 388 l 1,25,26
 561 352 561 352 561 326 c 0,27,28
 561 264 561 264 510 196 c 1,29,-1
 535 162 l 2,30,31
 553 139 553 139 553 124 c 0,32,33
 553 102 553 102 532.5 83 c 128,-1,34
 512 64 512 64 488 64 c 0,35,36
 469 64 469 64 448 90 c 2,37,-1
 421 122 l 1,38,39
 367 97 367 97 320 97 c 0,40,41
 272 97 272 97 229 123 c 1,42,-1
 190 91 l 2,43,44
 169 73 169 73 159.5 68.5 c 128,-1,45
 150 64 150 64 137 64 c 0,46,47
 120 64 120 64 108 75.5 c 128,-1,48
 96 87 96 87 96 105 c 0,49,50
 96 120 96 120 103.5 131.5 c 128,-1,51
 111 143 111 143 133 162 c 2,52,-1
 173 196 l 1,53,54
 163 232 163 232 163 258 c 0,55,56
 163 319 163 319 213 388 c 1,0,-1
382 388 m 0,57,58
 337 388 337 388 301.5 352.5 c 128,-1,59
 266 317 266 317 266 273 c 0,60,61
 266 241 266 241 287.5 219 c 128,-1,62
 309 197 309 197 341 197 c 0,63,64
 386 197 386 197 422.5 233 c 128,-1,65
 459 269 459 269 459 313 c 0,66,67
 459 346 459 346 437.5 367 c 128,-1,68
 416 388 416 388 382 388 c 0,57,58
EndSplineSet
EndChar

StartChar: quotesingle
Encoding: 39 39 106
Width: 600
GlyphClass: 2
Flags: W
LayerCount: 2
Fore
SplineSet
364 602 m 1,0,-1
 492 602 l 1,1,-1
 407 348 l 2,2,3
 395 312 395 312 367 312 c 0,4,5
 357 312 357 312 350 318.5 c 128,-1,6
 343 325 343 325 343 335 c 0,7,8
 343 342 343 342 344 347 c 2,9,-1
 364 602 l 1,0,-1
EndSplineSet
EndChar

StartChar: quotedblleft
Encoding: 8220 8220 107
Width: 600
GlyphClass: 2
Flags: W
LayerCount: 2
Fore
SplineSet
558 602 m 1,0,-1
 583 395 l 1,1,-1
 583 387 l 2,2,3
 583 371 583 371 572 359.5 c 128,-1,4
 561 348 561 348 545 348 c 128,-1,5
 529 348 529 348 518 372 c 2,6,-1
 426 602 l 1,7,-1
 558 602 l 1,0,-1
358 602 m 1,8,-1
 383 395 l 1,9,-1
 383 387 l 2,10,11
 383 371 383 371 372 359.5 c 128,-1,12
 361 348 361 348 345 348 c 128,-1,13
 329 348 329 348 318 372 c 2,14,-1
 226 602 l 1,15,-1
 358 602 l 1,8,-1
EndSplineSet
EndChar

StartChar: guillemotleft
Encoding: 171 171 108
Width: 600
GlyphClass: 2
Flags: W
LayerCount: 2
Fore
SplineSet
222 218 m 1,0,-1
 343 77 l 2,1,2
 354 66 354 66 354 55 c 0,3,4
 354 42 354 42 341.5 31 c 128,-1,5
 329 20 329 20 314 20 c 0,6,7
 303 20 303 20 289 33 c 2,8,-1
 80 218 l 1,9,-1
 367 402 l 2,10,11
 387 415 387 415 398 415 c 0,12,13
 410 415 410 415 417.5 408.5 c 128,-1,14
 425 402 425 402 425 391 c 0,15,16
 425 374 425 374 403 358 c 2,17,-1
 222 218 l 1,0,-1
451 218 m 1,18,-1
 572 77 l 2,19,20
 583 64 583 64 583 54 c 0,21,22
 583 42 583 42 570.5 31 c 128,-1,23
 558 20 558 20 543 20 c 0,24,25
 532 20 532 20 518 33 c 2,26,-1
 309 218 l 1,27,-1
 596 402 l 2,28,29
 616 415 616 415 627 415 c 0,30,31
 639 415 639 415 646.5 408.5 c 128,-1,32
 654 402 654 402 654 391 c 0,33,34
 654 374 654 374 632 358 c 2,35,-1
 451 218 l 1,18,-1
EndSplineSet
EndChar

StartChar: guilsinglleft
Encoding: 8249 8249 109
Width: 600
GlyphClass: 2
Flags: W
LayerCount: 2
Fore
SplineSet
222 218 m 1,0,-1
 343 77 l 2,1,2
 354 64 354 64 354 55 c 0,3,4
 354 42 354 42 341.5 31 c 128,-1,5
 329 20 329 20 314 20 c 0,6,7
 303 20 303 20 289 33 c 2,8,-1
 80 218 l 1,9,-1
 367 402 l 2,10,11
 387 415 387 415 398 415 c 0,12,13
 410 415 410 415 417.5 408.5 c 128,-1,14
 425 402 425 402 425 391 c 0,15,16
 425 374 425 374 403 358 c 2,17,-1
 222 218 l 1,0,-1
EndSplineSet
EndChar

StartChar: guilsinglright
Encoding: 8250 8250 110
Width: 600
GlyphClass: 2
Flags: W
LayerCount: 2
Fore
SplineSet
476 217 m 1,0,-1
 355 358 l 2,1,2
 344 371 344 371 344 380 c 0,3,4
 344 393 344 393 356.5 404 c 128,-1,5
 369 415 369 415 384 415 c 0,6,7
 395 415 395 415 409 402 c 2,8,-1
 617 217 l 1,9,-1
 331 33 l 2,10,11
 311 20 311 20 300 20 c 0,12,13
 288 20 288 20 280.5 26.5 c 128,-1,14
 273 33 273 33 273 44 c 0,15,16
 273 61 273 61 295 77 c 2,17,-1
 476 217 l 1,0,-1
EndSplineSet
EndChar

StartChar: fi
Encoding: 64257 64257 111
Width: 600
GlyphClass: 3
Flags: W
LayerCount: 2
Fore
SplineSet
267 337 m 1,0,-1
 217 100 l 1,1,-1
 249 100 l 2,2,3
 273 100 273 100 284 96 c 0,4,5
 306 89 306 89 306 61 c 0,6,7
 306 35 306 35 283 15 c 0,8,9
 264 0 264 0 228 0 c 2,10,-1
 53 0 l 2,11,12
 22 0 22 0 9 9.5 c 128,-1,13
 -4 19 -4 19 -4 40 c 0,14,15
 -4 67 -4 67 19 85 c 0,16,17
 36 100 36 100 74 100 c 2,18,-1
 117 100 l 1,19,-1
 167 337 l 1,20,-1
 129 337 l 2,21,22
 105 337 105 337 94 341 c 0,23,24
 71 349 71 349 71 377 c 0,25,26
 71 404 71 404 95 423 c 0,27,28
 111 437 111 437 150 437 c 2,29,-1
 188 437 l 1,30,-1
 197 476 l 2,31,32
 210 539 210 539 258.5 581 c 128,-1,33
 307 623 307 623 366 623 c 0,34,35
 412 623 412 623 442 608 c 128,-1,36
 472 593 472 593 472 570 c 0,37,38
 472 546 472 546 453 527 c 128,-1,39
 434 508 434 508 411 508 c 0,40,41
 402 508 402 508 383 515 c 0,42,43
 361 524 361 524 346 524 c 0,44,45
 330 524 330 524 315.5 510 c 128,-1,46
 301 496 301 496 297 476 c 2,47,-1
 288 437 l 1,48,-1
 321 437 l 2,49,50
 345 437 345 437 356 433 c 0,51,52
 378 426 378 426 378 397 c 0,53,54
 378 372 378 372 355 352 c 0,55,56
 336 337 336 337 300 337 c 2,57,-1
 267 337 l 1,0,-1
610 437 m 1,58,-1
 539 100 l 1,59,-1
 575 100 l 2,60,61
 598 100 598 100 609 96 c 0,62,63
 631 89 631 89 631 61 c 0,64,65
 631 35 631 35 608 15 c 0,66,67
 590 0 590 0 554 0 c 2,68,-1
 379 0 l 2,69,70
 348 0 348 0 335 9.5 c 128,-1,71
 322 19 322 19 322 40 c 0,72,73
 322 67 322 67 345 85 c 0,74,75
 362 100 362 100 400 100 c 2,76,-1
 439 100 l 1,77,-1
 489 337 l 1,78,-1
 469 337 l 2,79,80
 439 337 439 337 426 346 c 128,-1,81
 413 355 413 355 413 377 c 0,82,83
 413 403 413 403 436 423 c 0,84,85
 454 437 454 437 491 437 c 2,86,-1
 610 437 l 1,58,-1
633 624 m 1,87,-1
 611 519 l 1,88,-1
 493 519 l 1,89,-1
 515 624 l 1,90,-1
 633 624 l 1,87,-1
EndSplineSet
Ligature2: "'liga' Standard Ligatures in Latin lookup 0 subtable" f i
EndChar

StartChar: fl
Encoding: 64258 64258 112
Width: 600
GlyphClass: 3
Flags: W
LayerCount: 2
Fore
SplineSet
263 337 m 1,0,-1
 213 100 l 1,1,-1
 245 100 l 2,2,3
 271 100 271 100 280 96 c 0,4,5
 302 89 302 89 302 60 c 0,6,7
 302 35 302 35 279 15 c 0,8,9
 260 0 260 0 224 0 c 2,10,-1
 48 0 l 2,11,12
 18 0 18 0 5 9 c 128,-1,13
 -8 18 -8 18 -8 40 c 0,14,15
 -8 65 -8 65 15 85 c 0,16,17
 32 100 32 100 70 100 c 2,18,-1
 113 100 l 1,19,-1
 163 337 l 1,20,-1
 126 337 l 2,21,22
 102 337 102 337 91 341 c 0,23,24
 68 350 68 350 68 377 c 128,-1,25
 68 404 68 404 92 422 c 0,26,27
 108 437 108 437 147 437 c 2,28,-1
 184 437 l 1,29,-1
 192 475 l 2,30,31
 205 537 205 537 254 580 c 128,-1,32
 303 623 303 623 360 623 c 0,33,34
 420 623 420 623 460 595 c 1,35,36
 480 623 480 623 515 623 c 2,37,-1
 645 623 l 1,38,-1
 534 100 l 1,39,-1
 571 100 l 2,40,41
 595 100 595 100 606 96 c 0,42,43
 616 93 616 93 622.5 82.5 c 128,-1,44
 629 72 629 72 629 61 c 0,45,46
 629 35 629 35 606 15 c 0,47,48
 587 0 587 0 550 0 c 2,49,-1
 374 0 l 2,50,51
 317 0 317 0 317 40 c 0,52,53
 317 67 317 67 340 85 c 0,54,55
 357 100 357 100 396 100 c 2,56,-1
 434 100 l 1,57,-1
 524 523 l 1,58,-1
 489 523 l 2,59,60
 470 523 470 523 457 535 c 1,61,62
 434 508 434 508 410 508 c 0,63,64
 401 508 401 508 383 514 c 0,65,66
 355 523 355 523 342 523 c 0,67,68
 304 523 304 523 292 475 c 2,69,-1
 284 437 l 1,70,-1
 317 437 l 2,71,72
 341 437 341 437 352 433 c 0,73,74
 374 426 374 426 374 398 c 0,75,76
 374 372 374 372 351 352 c 0,77,78
 332 337 332 337 296 337 c 2,79,-1
 263 337 l 1,0,-1
EndSplineSet
Ligature2: "'liga' Standard Ligatures in Latin lookup 0 subtable" f l
EndChar

StartChar: endash
Encoding: 8211 8211 113
Width: 600
GlyphClass: 2
Flags: W
LayerCount: 2
Fore
SplineSet
541 229 m 2,0,-1
 158 229 l 2,1,2
 127 229 127 229 114 238 c 128,-1,3
 101 247 101 247 101 269 c 0,4,5
 101 294 101 294 124 314 c 0,6,7
 141 329 141 329 179 329 c 2,8,-1
 562 329 l 2,9,10
 586 329 586 329 597 325 c 0,11,12
 606 322 606 322 612.5 311.5 c 128,-1,13
 619 301 619 301 619 290 c 0,14,15
 619 264 619 264 596 244 c 0,16,17
 578 229 578 229 541 229 c 2,0,-1
EndSplineSet
EndChar

StartChar: dagger
Encoding: 8224 8224 114
Width: 600
GlyphClass: 2
Flags: W
LayerCount: 2
Fore
SplineSet
421 337 m 1,0,-1
 344 -26 l 2,1,2
 338 -58 338 -58 325 -71 c 0,3,4
 306 -92 306 -92 280 -92 c 0,5,6
 263 -92 263 -92 251.5 -81.5 c 128,-1,7
 240 -71 240 -71 240 -55 c 0,8,9
 240 -47 240 -47 244 -26 c 2,10,-1
 321 337 l 1,11,-1
 231 337 l 2,12,13
 208 337 208 337 197 341 c 0,14,15
 175 348 175 348 175 377 c 0,16,17
 175 402 175 402 198 422 c 0,18,19
 217 437 217 437 253 437 c 2,20,-1
 343 437 l 1,21,-1
 368 556 l 2,22,23
 374 588 374 588 387 602 c 0,24,25
 409 622 409 622 432 622 c 0,26,27
 449 622 449 622 460.5 611 c 128,-1,28
 472 600 472 600 472 584 c 0,29,30
 472 577 472 577 468 556 c 2,31,-1
 443 437 l 1,32,-1
 532 437 l 2,33,34
 555 437 555 437 567 433 c 0,35,36
 589 426 589 426 589 397 c 0,37,38
 589 372 589 372 566 352 c 0,39,40
 547 337 547 337 510 337 c 2,41,-1
 421 337 l 1,0,-1
EndSplineSet
EndChar

StartChar: daggerdbl
Encoding: 8225 8225 115
Width: 600
GlyphClass: 2
Flags: W
LayerCount: 2
Fore
SplineSet
421 337 m 1,0,-1
 391 193 l 1,1,-1
 480 193 l 2,2,3
 504 193 504 193 515 189 c 0,4,5
 524 186 524 186 530.5 175.5 c 128,-1,6
 537 165 537 165 537 153 c 0,7,8
 537 127 537 127 514 107 c 0,9,10
 495 93 495 93 459 93 c 2,11,-1
 369 93 l 1,12,-1
 344 -26 l 2,13,14
 337 -59 337 -59 325 -71 c 0,15,16
 306 -92 306 -92 280 -92 c 0,17,18
 263 -92 263 -92 251.5 -81.5 c 128,-1,19
 240 -71 240 -71 240 -55 c 0,20,21
 240 -45 240 -45 244 -26 c 2,22,-1
 269 93 l 1,23,-1
 179 93 l 2,24,25
 156 93 156 93 145 97 c 0,26,27
 123 104 123 104 123 133 c 0,28,29
 123 158 123 158 146 178 c 0,30,31
 164 193 164 193 200 193 c 2,32,-1
 291 193 l 1,33,-1
 321 337 l 1,34,-1
 231 337 l 2,35,36
 208 337 208 337 197 341 c 0,37,38
 175 348 175 348 175 377 c 0,39,40
 175 402 175 402 198 422 c 0,41,42
 216 437 216 437 252 437 c 2,43,-1
 343 437 l 1,44,-1
 368 556 l 2,45,46
 374 589 374 589 387 602 c 0,47,48
 409 622 409 622 432 622 c 0,49,50
 449 622 449 622 460.5 611 c 128,-1,51
 472 600 472 600 472 584 c 0,52,53
 472 577 472 577 468 556 c 2,54,-1
 442 437 l 1,55,-1
 532 437 l 2,56,57
 555 437 555 437 567 433 c 0,58,59
 589 426 589 426 589 397 c 0,60,61
 589 372 589 372 566 352 c 0,62,63
 547 337 547 337 510 337 c 2,64,-1
 421 337 l 1,0,-1
EndSplineSet
EndChar

StartChar: periodcentered
Encoding: 183 183 116
Width: 600
GlyphClass: 2
Flags: W
LayerCount: 2
Fore
SplineSet
354 214 m 2,0,-1
 337 214 l 2,1,2
 313 214 313 214 298 229 c 128,-1,3
 283 244 283 244 283 267 c 0,4,5
 283 297 283 297 308.5 321.5 c 128,-1,6
 334 346 334 346 365 346 c 2,7,-1
 382 346 l 2,8,9
 406 346 406 346 421 331.5 c 128,-1,10
 436 317 436 317 436 294 c 0,11,12
 436 263 436 263 411 238.5 c 128,-1,13
 386 214 386 214 354 214 c 2,0,-1
EndSplineSet
EndChar

StartChar: paragraph
Encoding: 182 182 117
Width: 600
GlyphClass: 2
Flags: W
LayerCount: 2
Fore
SplineSet
575 505 m 1,0,-1
 447 -96 l 1,1,-1
 484 -96 l 2,2,3
 509 -96 509 -96 519 -103 c 128,-1,4
 529 -110 529 -110 529 -127 c 0,5,6
 529 -153 529 -153 503 -168 c 0,7,8
 493 -174 493 -174 467 -174 c 2,9,-1
 374 -174 l 2,10,11
 358 -174 358 -174 351 -166.5 c 128,-1,12
 344 -159 344 -159 341 -140 c 1,13,14
 328 -162 328 -162 318.5 -168 c 128,-1,15
 309 -174 309 -174 291 -174 c 2,16,-1
 154 -174 l 2,17,18
 108 -174 108 -174 108 -143 c 0,19,20
 108 -116 108 -116 135 -102 c 0,21,22
 146 -96 146 -96 171 -96 c 2,23,-1
 249 -96 l 1,24,-1
 309 185 l 1,25,26
 225 194 225 194 174 235 c 128,-1,27
 123 276 123 276 123 334 c 0,28,29
 123 349 123 349 126 361 c 2,30,-1
 135 407 l 2,31,32
 151 480 151 480 237 531.5 c 128,-1,33
 323 583 323 583 429 583 c 2,34,-1
 626 583 l 2,35,36
 672 583 672 583 672 552 c 0,37,38
 672 525 672 525 645 511 c 0,39,40
 635 505 635 505 610 505 c 2,41,-1
 575 505 l 1,0,-1
326 266 m 1,42,-1
 376 500 l 1,43,44
 326 491 326 491 290.5 464.5 c 128,-1,45
 255 438 255 438 248 405 c 2,46,-1
 239 361 l 2,47,48
 237 351 237 351 237 347 c 0,49,50
 237 286 237 286 326 266 c 1,42,-1
499 505 m 1,51,-1
 455 505 l 1,52,-1
 327 -96 l 1,53,54
 343 -104 343 -104 344 -124 c 1,55,56
 355 -104 355 -104 371 -96 c 1,57,-1
 499 505 l 1,51,-1
EndSplineSet
EndChar

StartChar: bullet
Encoding: 8226 8226 118
Width: 600
GlyphClass: 2
Flags: W
LayerCount: 2
Fore
SplineSet
395 453 m 0,0,1
 449 453 449 453 483 420 c 128,-1,2
 517 387 517 387 517 334 c 0,3,4
 517 265 517 265 460 209.5 c 128,-1,5
 403 154 403 154 331 154 c 0,6,7
 279 154 279 154 245 187.5 c 128,-1,8
 211 221 211 221 211 273 c 0,9,10
 211 342 211 342 267.5 397.5 c 128,-1,11
 324 453 324 453 395 453 c 0,0,1
EndSplineSet
EndChar

StartChar: quotesinglbase
Encoding: 8218 8218 119
Width: 600
GlyphClass: 2
Flags: W
LayerCount: 2
Fore
SplineSet
246 134 m 1,0,-1
 379 134 l 1,1,-1
 181 -134 l 2,2,3
 163 -158 163 -158 144 -158 c 0,4,5
 133 -158 133 -158 125.5 -151.5 c 128,-1,6
 118 -145 118 -145 118 -136 c 128,-1,7
 118 -127 118 -127 126 -111 c 2,8,-1
 246 134 l 1,0,-1
EndSplineSet
EndChar

StartChar: quotedblbase
Encoding: 8222 8222 120
Width: 600
GlyphClass: 2
Flags: W
LayerCount: 2
Fore
SplineSet
186 134 m 1,0,-1
 319 134 l 1,1,-1
 129 -96 l 2,2,3
 109 -120 109 -120 91 -120 c 0,4,5
 81 -120 81 -120 73.5 -113.5 c 128,-1,6
 66 -107 66 -107 66 -98 c 0,7,8
 66 -87 66 -87 74 -73 c 2,9,-1
 186 134 l 1,0,-1
387 134 m 1,10,-1
 519 134 l 1,11,-1
 329 -96 l 2,12,13
 309 -120 309 -120 291 -120 c 0,14,15
 281 -120 281 -120 273.5 -113.5 c 128,-1,16
 266 -107 266 -107 266 -98 c 0,17,18
 266 -87 266 -87 274 -73 c 2,19,-1
 387 134 l 1,10,-1
EndSplineSet
EndChar

StartChar: quotedblright
Encoding: 8221 8221 121
Width: 600
GlyphClass: 2
Flags: W
LayerCount: 2
Fore
SplineSet
286 602 m 1,0,-1
 419 602 l 1,1,-1
 229 372 l 2,2,3
 209 348 209 348 191 348 c 0,4,5
 181 348 181 348 173.5 354.5 c 128,-1,6
 166 361 166 361 166 370 c 0,7,8
 166 381 166 381 174 395 c 2,9,-1
 286 602 l 1,0,-1
487 602 m 1,10,-1
 619 602 l 1,11,-1
 429 372 l 2,12,13
 409 348 409 348 391 348 c 0,14,15
 381 348 381 348 373.5 354.5 c 128,-1,16
 366 361 366 361 366 370 c 0,17,18
 366 381 366 381 374 395 c 2,19,-1
 487 602 l 1,10,-1
EndSplineSet
EndChar

StartChar: guillemotright
Encoding: 187 187 122
Width: 600
GlyphClass: 2
Flags: W
LayerCount: 2
Fore
SplineSet
476 217 m 1,0,-1
 355 358 l 2,1,2
 344 369 344 369 344 380 c 0,3,4
 344 393 344 393 356.5 404 c 128,-1,5
 369 415 369 415 384 415 c 0,6,7
 395 415 395 415 409 402 c 2,8,-1
 617 217 l 1,9,-1
 331 33 l 2,10,11
 311 20 311 20 300 20 c 0,12,13
 288 20 288 20 280.5 26.5 c 128,-1,14
 273 33 273 33 273 44 c 0,15,16
 273 61 273 61 295 77 c 2,17,-1
 476 217 l 1,0,-1
246 217 m 1,18,-1
 125 358 l 2,19,20
 114 371 114 371 114 381 c 0,21,22
 114 393 114 393 126.5 404 c 128,-1,23
 139 415 139 415 154 415 c 0,24,25
 165 415 165 415 179 402 c 2,26,-1
 387 217 l 1,27,-1
 101 33 l 2,28,29
 81 20 81 20 70 20 c 0,30,31
 58 20 58 20 50.5 26.5 c 128,-1,32
 43 33 43 33 43 44 c 0,33,34
 43 61 43 61 65 77 c 2,35,-1
 246 217 l 1,18,-1
EndSplineSet
EndChar

StartChar: ellipsis
Encoding: 8230 8230 123
Width: 600
GlyphClass: 2
Flags: W
LayerCount: 2
Fore
SplineSet
105 -15 m 2,0,-1
 88 -15 l 2,1,2
 64 -15 64 -15 49 0 c 128,-1,3
 34 15 34 15 34 38 c 0,4,5
 34 68 34 68 59.5 92.5 c 128,-1,6
 85 117 85 117 116 117 c 2,7,-1
 133 117 l 2,8,9
 157 117 157 117 172 102.5 c 128,-1,10
 187 88 187 88 187 65 c 0,11,12
 187 34 187 34 162 9.5 c 128,-1,13
 137 -15 137 -15 105 -15 c 2,0,-1
305 -15 m 2,14,-1
 288 -15 l 2,15,16
 264 -15 264 -15 249 0 c 128,-1,17
 234 15 234 15 234 38 c 0,18,19
 234 68 234 68 259.5 92.5 c 128,-1,20
 285 117 285 117 316 117 c 2,21,-1
 333 117 l 2,22,23
 357 117 357 117 372 102.5 c 128,-1,24
 387 88 387 88 387 65 c 0,25,26
 387 34 387 34 362 9.5 c 128,-1,27
 337 -15 337 -15 305 -15 c 2,14,-1
505 -15 m 2,28,-1
 488 -15 l 2,29,30
 464 -15 464 -15 449 0 c 128,-1,31
 434 15 434 15 434 38 c 0,32,33
 434 68 434 68 459.5 92.5 c 128,-1,34
 485 117 485 117 516 117 c 2,35,-1
 533 117 l 2,36,37
 557 117 557 117 572 102.5 c 128,-1,38
 587 88 587 88 587 65 c 0,39,40
 587 34 587 34 562 9.5 c 128,-1,41
 537 -15 537 -15 505 -15 c 2,28,-1
EndSplineSet
EndChar

StartChar: perthousand
Encoding: 8240 8240 124
Width: 600
GlyphClass: 2
Flags: W
LayerCount: 2
Fore
SplineSet
549 377 m 2,0,-1
 159 259 l 2,1,2
 146 255 146 255 138 255 c 0,3,4
 129 255 129 255 122.5 262.5 c 128,-1,5
 116 270 116 270 116 281 c 0,6,7
 116 308 116 308 153 319 c 2,8,-1
 542 436 l 2,9,10
 555 440 555 440 563 440 c 0,11,12
 572 440 572 440 578.5 432.5 c 128,-1,13
 585 425 585 425 585 415 c 0,14,15
 585 389 585 389 549 377 c 2,0,-1
247 618 m 0,16,17
 288 618 288 618 314.5 592 c 128,-1,18
 341 566 341 566 341 526 c 0,19,20
 341 472 341 472 297 429 c 128,-1,21
 253 386 253 386 197 386 c 0,22,23
 157 386 157 386 130.5 412 c 128,-1,24
 104 438 104 438 104 478 c 0,25,26
 104 532 104 532 148 575 c 128,-1,27
 192 618 192 618 247 618 c 0,16,17
235 560 m 0,28,29
 207 560 207 560 185 538.5 c 128,-1,30
 163 517 163 517 163 490 c 0,31,32
 163 470 163 470 176.5 457 c 128,-1,33
 190 444 190 444 209 444 c 0,34,35
 237 444 237 444 259.5 465.5 c 128,-1,36
 282 487 282 487 282 514 c 0,37,38
 282 534 282 534 268.5 547 c 128,-1,39
 255 560 255 560 235 560 c 0,28,29
263 232 m 0,40,41
 304 232 304 232 330.5 206 c 128,-1,42
 357 180 357 180 357 139 c 0,43,44
 357 85 357 85 313 42.5 c 128,-1,45
 269 0 269 0 213 0 c 0,46,47
 173 0 173 0 146.5 26 c 128,-1,48
 120 52 120 52 120 92 c 0,49,50
 120 146 120 146 164 189 c 128,-1,51
 208 232 208 232 263 232 c 0,40,41
251 174 m 0,52,53
 223 174 223 174 201 152.5 c 128,-1,54
 179 131 179 131 179 104 c 0,55,56
 179 84 179 84 192.5 71 c 128,-1,57
 206 58 206 58 225 58 c 0,58,59
 253 58 253 58 275.5 79.5 c 128,-1,60
 298 101 298 101 298 128 c 0,61,62
 298 148 298 148 284.5 161 c 128,-1,63
 271 174 271 174 251 174 c 0,52,53
533 232 m 0,64,65
 574 232 574 232 600.5 206 c 128,-1,66
 627 180 627 180 627 139 c 0,67,68
 627 85 627 85 583 42.5 c 128,-1,69
 539 0 539 0 483 0 c 0,70,71
 443 0 443 0 416.5 26 c 128,-1,72
 390 52 390 52 390 92 c 0,73,74
 390 146 390 146 434 189 c 128,-1,75
 478 232 478 232 533 232 c 0,64,65
521 174 m 0,76,77
 493 174 493 174 471 152.5 c 128,-1,78
 449 131 449 131 449 104 c 0,79,80
 449 84 449 84 462.5 71 c 128,-1,81
 476 58 476 58 495 58 c 0,82,83
 523 58 523 58 545.5 79.5 c 128,-1,84
 568 101 568 101 568 128 c 0,85,86
 568 148 568 148 554.5 161 c 128,-1,87
 541 174 541 174 521 174 c 0,76,77
EndSplineSet
EndChar

StartChar: questiondown
Encoding: 191 191 125
Width: 600
GlyphClass: 2
Flags: W
LayerCount: 2
Fore
SplineSet
477 -89 m 2,0,-1
 460 -168 l 1,1,2
 378 -203 378 -203 334.5 -215 c 128,-1,3
 291 -227 291 -227 242 -227 c 0,4,5
 162 -227 162 -227 116 -187.5 c 128,-1,6
 70 -148 70 -148 70 -79 c 0,7,8
 70 7 70 7 131 62 c 0,9,10
 180 104 180 104 277 143 c 1,11,12
 295 197 295 197 339 197 c 0,13,14
 356 197 356 197 367.5 186 c 128,-1,15
 379 175 379 175 379 159 c 0,16,17
 379 150 379 150 375 131 c 2,18,-1
 363 75 l 1,19,20
 251 35 251 35 211.5 8 c 128,-1,21
 172 -19 172 -19 172 -57 c 0,22,23
 172 -90 172 -90 196 -108.5 c 128,-1,24
 220 -127 220 -127 263 -127 c 0,25,26
 320 -127 320 -127 374 -103 c 1,27,-1
 377 -89 l 2,28,29
 384 -56 384 -56 396 -43 c 0,30,31
 416 -23 416 -23 441 -23 c 0,32,33
 458 -23 458 -23 469.5 -33.5 c 128,-1,34
 481 -44 481 -44 481 -60 c 0,35,36
 481 -72 481 -72 477 -89 c 2,0,-1
370 386 m 2,37,-1
 388 386 l 2,38,39
 412 386 412 386 427 371 c 128,-1,40
 442 356 442 356 442 333 c 0,41,42
 442 303 442 303 416.5 278.5 c 128,-1,43
 391 254 391 254 360 254 c 2,44,-1
 342 254 l 2,45,46
 319 254 319 254 304 268.5 c 128,-1,47
 289 283 289 283 289 306 c 0,48,49
 289 337 289 337 314 361.5 c 128,-1,50
 339 386 339 386 370 386 c 2,37,-1
EndSplineSet
EndChar

StartChar: grave
Encoding: 96 96 126
Width: 600
GlyphClass: 2
Flags: W
LayerCount: 2
Fore
SplineSet
338 680 m 2,0,-1
 448 569 l 2,1,2
 464 554 464 554 464 540 c 0,3,4
 464 523 464 523 449.5 509.5 c 128,-1,5
 435 496 435 496 418 496 c 0,6,7
 406 496 406 496 390 512 c 2,8,-1
 280 624 l 2,9,10
 264 639 264 639 264 652 c 0,11,12
 264 669 264 669 278 682.5 c 128,-1,13
 292 696 292 696 310 696 c 0,14,15
 323 696 323 696 338 680 c 2,0,-1
EndSplineSet
EndChar

StartChar: acute
Encoding: 180 180 127
Width: 600
GlyphClass: 2
Flags: W
LayerCount: 2
Fore
SplineSet
585 624 m 2,0,-1
 427 512 l 2,1,2
 405 496 405 496 392 496 c 0,3,4
 378 496 378 496 370 504 c 128,-1,5
 362 512 362 512 362 526 c 0,6,7
 362 547 362 547 393 569 c 2,8,-1
 551 680 l 2,9,10
 573 696 573 696 586 696 c 128,-1,11
 599 696 599 696 607.5 688 c 128,-1,12
 616 680 616 680 616 667 c 0,13,14
 616 645 616 645 585 624 c 2,0,-1
EndSplineSet
EndChar

StartChar: circumflex
Encoding: 710 710 128
Width: 600
GlyphClass: 2
Flags: W
LayerCount: 2
Fore
SplineSet
430 607 m 1,0,-1
 296 510 l 2,1,2
 277 497 277 497 265 497 c 128,-1,3
 253 497 253 497 245 505 c 128,-1,4
 237 513 237 513 237 525 c 0,5,6
 237 538 237 538 243 545.5 c 128,-1,7
 249 553 249 553 269 567 c 2,8,-1
 449 696 l 1,9,-1
 573 567 l 2,10,11
 590 550 590 550 590 540 c 0,12,13
 590 524 590 524 577 510.5 c 128,-1,14
 564 497 564 497 547 497 c 0,15,16
 534 497 534 497 522 510 c 2,17,-1
 430 607 l 1,0,-1
EndSplineSet
EndChar

StartChar: tilde
Encoding: 732 732 129
Width: 600
GlyphClass: 2
Flags: W
LayerCount: 2
Fore
SplineSet
592 656 m 0,0,1
 603 656 603 656 611 649 c 128,-1,2
 619 642 619 642 619 633 c 0,3,4
 619 616 619 616 590 584 c 0,5,6
 533 523 533 523 487 523 c 0,7,8
 455 523 455 523 397 566 c 0,9,10
 369 587 369 587 352 587 c 0,11,12
 339 587 339 587 327.5 579 c 128,-1,13
 316 571 316 571 287 541 c 0,14,15
 273 526 273 526 258 526 c 0,16,17
 247 526 247 526 240 532.5 c 128,-1,18
 233 539 233 539 233 549 c 0,19,20
 233 572 233 572 273 611 c 0,21,22
 321 656 321 656 365 656 c 0,23,24
 393 656 393 656 447 618 c 0,25,26
 485 592 485 592 499 592 c 0,27,28
 510 592 510 592 518 597.5 c 128,-1,29
 526 603 526 603 547 626 c 0,30,31
 574 656 574 656 592 656 c 0,0,1
EndSplineSet
EndChar

StartChar: macron
Encoding: 175 175 130
Width: 600
GlyphClass: 2
Flags: W
LayerCount: 2
Fore
SplineSet
311 626 m 2,0,-1
 555 626 l 2,1,2
 580 626 580 626 590 618.5 c 128,-1,3
 600 611 600 611 600 593 c 0,4,5
 600 573 600 573 582.5 559.5 c 128,-1,6
 565 546 565 546 538 546 c 2,7,-1
 294 546 l 2,8,9
 269 546 269 546 259 553 c 128,-1,10
 249 560 249 560 249 579 c 0,11,12
 249 600 249 600 266 613 c 128,-1,13
 283 626 283 626 311 626 c 2,0,-1
EndSplineSet
EndChar

StartChar: breve
Encoding: 728 728 131
Width: 600
GlyphClass: 2
Flags: W
LayerCount: 2
Fore
SplineSet
306 687 m 0,0,1
 331 687 331 687 330 650 c 0,2,3
 330 614 330 614 354.5 592.5 c 128,-1,4
 379 571 379 571 421 571 c 0,5,6
 462 571 462 571 496 592 c 128,-1,7
 530 613 530 613 544 647 c 0,8,9
 555 670 555 670 563.5 678.5 c 128,-1,10
 572 687 572 687 587 687 c 0,11,12
 614 687 614 687 614 660 c 0,13,14
 614 627 614 627 578 584 c 0,15,16
 508 503 508 503 407 503 c 0,17,18
 345 503 345 503 303 539.5 c 128,-1,19
 261 576 261 576 261 630 c 0,20,21
 261 656 261 656 273.5 671.5 c 128,-1,22
 286 687 286 687 306 687 c 0,0,1
EndSplineSet
EndChar

StartChar: dotaccent
Encoding: 729 729 132
Width: 600
GlyphClass: 2
Flags: W
LayerCount: 2
Fore
SplineSet
439 654 m 0,0,1
 461 654 461 654 474.5 640.5 c 128,-1,2
 488 627 488 627 488 606 c 0,3,4
 488 578 488 578 465 556 c 128,-1,5
 442 534 442 534 413 534 c 0,6,7
 393 534 393 534 379 548 c 128,-1,8
 365 562 365 562 365 582 c 0,9,10
 365 610 365 610 387.5 632 c 128,-1,11
 410 654 410 654 439 654 c 0,0,1
EndSplineSet
EndChar

StartChar: dieresis
Encoding: 168 168 133
Width: 600
GlyphClass: 2
Flags: W
LayerCount: 2
Fore
SplineSet
335 654 m 0,0,1
 357 654 357 654 370.5 640.5 c 128,-1,2
 384 627 384 627 384 606 c 0,3,4
 384 578 384 578 361 556 c 128,-1,5
 338 534 338 534 309 534 c 0,6,7
 289 534 289 534 275 548 c 128,-1,8
 261 562 261 562 261 582 c 0,9,10
 261 609 261 609 284 631.5 c 128,-1,11
 307 654 307 654 335 654 c 0,0,1
543 654 m 0,12,13
 565 654 565 654 578.5 640.5 c 128,-1,14
 592 627 592 627 592 606 c 0,15,16
 592 578 592 578 569 556 c 128,-1,17
 546 534 546 534 517 534 c 0,18,19
 497 534 497 534 483 548 c 128,-1,20
 469 562 469 562 469 582 c 0,21,22
 469 609 469 609 492 631.5 c 128,-1,23
 515 654 515 654 543 654 c 0,12,13
EndSplineSet
EndChar

StartChar: ring
Encoding: 730 730 134
Width: 600
GlyphClass: 2
Flags: W
LayerCount: 2
Fore
SplineSet
453 727 m 0,0,1
 497 727 497 727 525.5 699.5 c 128,-1,2
 554 672 554 672 554 629 c 0,3,4
 554 574 554 574 507 530 c 128,-1,5
 460 486 460 486 402 486 c 0,6,7
 359 486 359 486 331 513.5 c 128,-1,8
 303 541 303 541 303 584 c 0,9,10
 303 638 303 638 350 682.5 c 128,-1,11
 397 727 397 727 453 727 c 0,0,1
442 674 m 0,12,13
 410 674 410 674 383.5 649.5 c 128,-1,14
 357 625 357 625 357 595 c 0,15,16
 357 571 357 571 373 555.5 c 128,-1,17
 389 540 389 540 414 540 c 0,18,19
 446 540 446 540 473 564.5 c 128,-1,20
 500 589 500 589 500 618 c 0,21,22
 500 643 500 643 484 658.5 c 128,-1,23
 468 674 468 674 442 674 c 0,12,13
EndSplineSet
EndChar

StartChar: cedilla
Encoding: 184 184 135
Width: 600
GlyphClass: 2
Flags: W
LayerCount: 2
Fore
SplineSet
262 0 m 1,0,-1
 332 0 l 1,1,-1
 323 -41 l 1,2,3
 355 -48 355 -48 368 -63 c 128,-1,4
 381 -78 381 -78 381 -108 c 0,5,6
 381 -158 381 -158 343 -193.5 c 128,-1,7
 305 -229 305 -229 251 -229 c 0,8,9
 203 -229 203 -229 164 -205 c 0,10,11
 143 -192 143 -192 143 -174 c 0,12,13
 143 -157 143 -157 156.5 -144 c 128,-1,14
 170 -131 170 -131 187 -131 c 0,15,16
 195 -131 195 -131 213 -142 c 0,17,18
 240 -159 240 -159 267 -159 c 0,19,20
 309 -159 309 -159 309 -128 c 0,21,22
 309 -100 309 -100 263 -100 c 0,23,24
 252 -100 252 -100 240 -102 c 1,25,-1
 262 0 l 1,0,-1
EndSplineSet
EndChar

StartChar: hungarumlaut
Encoding: 733 733 136
Width: 600
GlyphClass: 2
Flags: W
LayerCount: 2
Fore
SplineSet
423 622 m 2,0,-1
 298 512 l 2,1,2
 279 496 279 496 265 496 c 0,3,4
 254 496 254 496 245.5 505 c 128,-1,5
 237 514 237 514 237 526 c 0,6,7
 237 537 237 537 242 544 c 128,-1,8
 247 551 247 551 267 569 c 2,9,-1
 392 679 l 2,10,11
 411 694 411 694 425 694 c 0,12,13
 436 694 436 694 444 686 c 128,-1,14
 452 678 452 678 452 665 c 0,15,16
 452 654 452 654 447 646.5 c 128,-1,17
 442 639 442 639 423 622 c 2,0,-1
587 622 m 2,18,-1
 462 512 l 2,19,20
 444 496 444 496 429 496 c 0,21,22
 418 496 418 496 409.5 505 c 128,-1,23
 401 514 401 514 401 526 c 0,24,25
 401 537 401 537 405.5 543.5 c 128,-1,26
 410 550 410 550 431 569 c 2,27,-1
 557 679 l 2,28,29
 573 694 573 694 589 694 c 0,30,31
 600 694 600 694 608 685.5 c 128,-1,32
 616 677 616 677 616 665 c 0,33,34
 616 654 616 654 611 647 c 128,-1,35
 606 640 606 640 587 622 c 2,18,-1
EndSplineSet
EndChar

StartChar: ogonek
Encoding: 731 731 137
Width: 600
GlyphClass: 2
Flags: W
LayerCount: 2
Fore
SplineSet
329 0 m 1,0,-1
 427 0 l 1,1,2
 341 -51 341 -51 318 -84 c 0,3,4
 303 -104 303 -104 303 -117 c 0,5,6
 303 -132 303 -132 322 -132 c 0,7,8
 338 -132 338 -132 378 -114 c 0,9,10
 391 -108 391 -108 402 -108 c 0,11,12
 416 -108 416 -108 424.5 -116.5 c 128,-1,13
 433 -125 433 -125 433 -138 c 0,14,15
 433 -163 433 -163 409 -178 c 0,16,17
 360 -208 360 -208 299 -208 c 0,18,19
 263 -208 263 -208 242.5 -190.5 c 128,-1,20
 222 -173 222 -173 222 -142 c 0,21,22
 222 -60 222 -60 329 0 c 1,0,-1
EndSplineSet
EndChar

StartChar: caron
Encoding: 711 711 138
Width: 600
GlyphClass: 2
Flags: W
LayerCount: 2
Fore
SplineSet
425 586 m 1,0,-1
 558 682 l 2,1,2
 578 696 578 696 589 696 c 0,3,4
 601 696 601 696 609 688 c 128,-1,5
 617 680 617 680 617 667 c 0,6,7
 617 648 617 648 596 632 c 0,8,9
 594 631 594 631 585 625 c 2,10,-1
 407 497 l 1,11,-1
 281 625 l 2,12,13
 264 643 264 643 264 653 c 0,14,15
 264 670 264 670 277 683 c 128,-1,16
 290 696 290 696 307 696 c 0,17,18
 319 696 319 696 332 682 c 2,19,-1
 425 586 l 1,0,-1
EndSplineSet
EndChar

StartChar: emdash
Encoding: 8212 8212 139
Width: 600
GlyphClass: 2
Flags: W
LayerCount: 2
Fore
SplineSet
612 229 m 2,0,-1
 87 229 l 2,1,2
 56 229 56 229 43 238 c 128,-1,3
 30 247 30 247 30 269 c 0,4,5
 30 294 30 294 53 314 c 0,6,7
 70 329 70 329 108 329 c 2,8,-1
 633 329 l 2,9,10
 657 329 657 329 668 325 c 0,11,12
 677 322 677 322 683.5 311.5 c 128,-1,13
 690 301 690 301 690 290 c 0,14,15
 690 264 690 264 667 244 c 0,16,17
 650 229 650 229 612 229 c 2,0,-1
EndSplineSet
EndChar

StartChar: AE
Encoding: 198 198 140
Width: 600
GlyphClass: 2
Flags: W
LayerCount: 2
Fore
SplineSet
75 100 m 1,0,-1
 271 483 l 1,1,-1
 257 483 l 2,2,3
 226 483 226 483 213.5 492 c 128,-1,4
 201 501 201 501 201 523 c 0,5,6
 201 548 201 548 224 569 c 0,7,8
 242 583 242 583 279 583 c 2,9,-1
 717 583 l 1,10,-1
 682 418 l 2,11,12
 675 385 675 385 663 373 c 0,13,14
 642 352 642 352 617 352 c 0,15,16
 601 352 601 352 589.5 363 c 128,-1,17
 578 374 578 374 578 389 c 0,18,19
 578 401 578 401 582 418 c 2,20,-1
 596 483 l 1,21,-1
 470 483 l 1,22,-1
 440 342 l 1,23,-1
 459 342 l 1,24,25
 475 397 475 397 521 397 c 0,26,27
 537 397 537 397 549 386 c 128,-1,28
 561 375 561 375 561 360 c 0,29,30
 561 351 561 351 556 331 c 2,31,-1
 540 253 l 2,32,33
 533 220 533 220 521 208 c 0,34,35
 500 187 500 187 476 187 c 0,36,37
 459 187 459 187 447.5 198 c 128,-1,38
 436 209 436 209 436 225 c 0,39,40
 436 233 436 233 438 243 c 1,41,-1
 419 243 l 1,42,-1
 389 100 l 1,43,-1
 535 100 l 1,44,-1
 540 123 l 2,45,46
 548 156 548 156 560 168 c 0,47,48
 579 189 579 189 604 189 c 0,49,50
 622 189 622 189 633.5 178.5 c 128,-1,51
 645 168 645 168 645 151 c 0,52,53
 645 142 645 142 640 123 c 2,54,-1
 614 0 l 1,55,-1
 266 0 l 2,56,57
 219 0 219 0 219 41 c 0,58,59
 219 64 219 64 237 82 c 128,-1,60
 255 100 255 100 280 100 c 2,61,-1
 289 100 l 1,62,-1
 301 158 l 1,63,-1
 208 158 l 1,64,-1
 178 100 l 1,65,66
 211 96 211 96 211 65 c 0,67,68
 211 36 211 36 191.5 18 c 128,-1,69
 172 0 172 0 141 0 c 2,70,-1
 47 0 l 2,71,72
 16 0 16 0 3 9.5 c 128,-1,73
 -10 19 -10 19 -10 40 c 0,74,75
 -10 67 -10 67 13 85 c 0,76,77
 30 100 30 100 68 100 c 2,78,-1
 75 100 l 1,0,-1
322 259 m 1,79,-1
 367 471 l 1,80,-1
 258 259 l 1,81,-1
 322 259 l 1,79,-1
EndSplineSet
EndChar

StartChar: ordfeminine
Encoding: 170 170 141
Width: 600
GlyphClass: 2
Flags: W
LayerCount: 2
Fore
SplineSet
415 284 m 1,0,-1
 417 295 l 1,1,2
 358 273 358 273 305 273 c 0,3,4
 257 273 257 273 226 296 c 128,-1,5
 195 319 195 319 195 354 c 0,6,7
 195 385 195 385 223 419 c 0,8,9
 280 487 280 487 396 487 c 0,10,11
 422 487 422 487 457 482 c 1,12,-1
 459 490 l 1,13,-1
 459 496 l 2,14,15
 458 517 458 517 406 517 c 0,16,17
 375 517 375 517 326 506 c 0,18,19
 304 501 304 501 296 501 c 0,20,21
 283 501 283 501 274.5 510 c 128,-1,22
 266 519 266 519 266 532 c 0,23,24
 266 561 266 561 292 572 c 0,25,26
 309 580 309 580 350 587.5 c 128,-1,27
 391 595 391 595 420 595 c 0,28,29
 476 595 476 595 507.5 573.5 c 128,-1,30
 539 552 539 552 539 515 c 0,31,32
 539 499 539 499 537 490 c 2,33,-1
 509 362 l 1,34,-1
 516 362 l 2,35,36
 540 362 540 362 549.5 355 c 128,-1,37
 559 348 559 348 559 331 c 0,38,39
 559 310 559 310 543 297 c 128,-1,40
 527 284 527 284 500 284 c 2,41,-1
 415 284 l 1,0,-1
436 383 m 1,42,-1
 442 410 l 1,43,44
 405 417 405 417 377 417 c 0,45,46
 343 417 343 417 315.5 402.5 c 128,-1,47
 288 388 288 388 288 370 c 0,48,49
 288 363 288 363 299 357.5 c 128,-1,50
 310 352 310 352 326 352 c 0,51,52
 381 352 381 352 436 383 c 1,42,-1
471 182 m 2,53,-1
 215 182 l 2,54,55
 188 182 188 182 179 186.5 c 128,-1,56
 170 191 170 191 170 204 c 0,57,58
 170 236 170 236 183 247.5 c 128,-1,59
 196 259 196 259 232 259 c 2,60,-1
 486 259 l 2,61,62
 511 259 511 259 521 252.5 c 128,-1,63
 531 246 531 246 531 229 c 0,64,65
 531 209 531 209 513 193 c 0,66,67
 500 182 500 182 471 182 c 2,53,-1
EndSplineSet
EndChar

StartChar: Lslash
Encoding: 321 321 142
Width: 600
GlyphClass: 2
Flags: W
LayerCount: 2
Fore
SplineSet
359 483 m 1,0,-1
 333 359 l 1,1,-1
 431 411 l 2,2,3
 460 426 460 426 476 426 c 0,4,5
 491 426 491 426 502 414.5 c 128,-1,6
 513 403 513 403 513 388 c 0,7,8
 513 367 513 367 502 353.5 c 128,-1,9
 491 340 491 340 462 325 c 2,10,-1
 308 244 l 1,11,-1
 278 100 l 1,12,-1
 492 100 l 1,13,-1
 512 191 l 2,14,15
 525 258 525 258 576 258 c 0,16,17
 593 258 593 258 604.5 247 c 128,-1,18
 616 236 616 236 616 220 c 0,19,20
 616 212 616 212 612 191 c 2,21,-1
 571 0 l 1,22,-1
 100 0 l 2,23,24
 69 0 69 0 56 9 c 128,-1,25
 43 18 43 18 43 40 c 0,26,27
 43 67 43 67 66 85 c 0,28,29
 83 100 83 100 121 100 c 2,30,-1
 178 100 l 1,31,-1
 199 203 l 1,32,-1
 139 171 l 2,33,34
 110 156 110 156 94 156 c 0,35,36
 79 156 79 156 67.5 167.5 c 128,-1,37
 56 179 56 179 56 195 c 0,38,39
 56 216 56 216 67 229.5 c 128,-1,40
 78 243 78 243 107 258 c 2,41,-1
 224 318 l 1,42,-1
 259 483 l 1,43,-1
 202 483 l 2,44,45
 171 483 171 483 158 492 c 128,-1,46
 145 501 145 501 145 523 c 0,47,48
 145 548 145 548 168 569 c 0,49,50
 186 583 186 583 224 583 c 2,51,-1
 437 583 l 2,52,53
 461 583 461 583 472 579 c 0,54,55
 494 572 494 572 494 543 c 0,56,57
 494 516 494 516 471 498 c 0,58,59
 452 483 452 483 415 483 c 2,60,-1
 359 483 l 1,0,-1
EndSplineSet
EndChar

StartChar: Oslash
Encoding: 216 216 143
Width: 600
GlyphClass: 2
Flags: W
LayerCount: 2
Fore
SplineSet
165 28 m 1,0,-1
 97 -40 l 2,1,2
 78 -59 78 -59 68 -64.5 c 128,-1,3
 58 -70 58 -70 44 -70 c 0,4,5
 27 -70 27 -70 15.5 -59.5 c 128,-1,6
 4 -49 4 -49 4 -33 c 0,7,8
 4 -11 4 -11 35 19 c 2,9,-1
 108 92 l 1,10,11
 75 149 75 149 75 220 c 0,12,13
 75 314 75 314 125 402 c 128,-1,14
 175 490 175 490 257 543.5 c 128,-1,15
 339 597 339 597 427 597 c 0,16,17
 504 597 504 597 566 549 c 1,18,-1
 624 607 l 2,19,20
 655 638 655 638 678 638 c 0,21,22
 695 638 695 638 706 627 c 128,-1,23
 717 616 717 616 717 600 c 0,24,25
 717 579 717 579 687 548 c 2,26,-1
 621 483 l 1,27,28
 649 433 649 433 649 365 c 0,29,30
 649 294 649 294 621 225 c 128,-1,31
 593 156 593 156 542 102 c 0,32,33
 490 48 490 48 425 17 c 128,-1,34
 360 -14 360 -14 298 -14 c 0,35,36
 222 -14 222 -14 165 28 c 1,0,-1
538 400 m 1,37,-1
 244 107 l 1,38,39
 278 86 278 86 319 86 c 0,40,41
 406 86 406 86 476 165 c 128,-1,42
 546 244 546 244 546 342 c 0,43,44
 546 373 546 373 538 400 c 1,37,-1
190 174 m 1,45,-1
 487 471 l 1,46,47
 450 497 450 497 405 497 c 0,48,49
 319 497 319 497 248.5 418 c 128,-1,50
 178 339 178 339 178 243 c 0,51,52
 178 209 178 209 190 174 c 1,45,-1
EndSplineSet
EndChar

StartChar: OE
Encoding: 338 338 144
Width: 600
GlyphClass: 2
Flags: W
LayerCount: 2
Fore
SplineSet
418 243 m 1,0,-1
 387 100 l 1,1,-1
 534 100 l 1,2,-1
 539 122 l 2,3,4
 545 155 545 155 558 168 c 0,5,6
 578 188 578 188 603 188 c 0,7,8
 620 188 620 188 631 177.5 c 128,-1,9
 642 167 642 167 642 151 c 0,10,11
 642 142 642 142 638 122 c 2,12,-1
 612 0 l 1,13,-1
 259 0 l 2,14,15
 157 0 157 0 95.5 60 c 128,-1,16
 34 120 34 120 34 220 c 0,17,18
 34 367 34 367 137.5 475 c 128,-1,19
 241 583 241 583 383 583 c 2,20,-1
 717 583 l 1,21,-1
 682 418 l 2,22,23
 675 385 675 385 663 372 c 0,24,25
 641 352 641 352 617 352 c 0,26,27
 601 352 601 352 589.5 363 c 128,-1,28
 578 374 578 374 578 389 c 0,29,30
 578 396 578 396 582 418 c 2,31,-1
 596 483 l 1,32,-1
 469 483 l 1,33,-1
 439 342 l 1,34,-1
 457 342 l 1,35,36
 472 397 472 397 519 397 c 0,37,38
 536 397 536 397 547.5 386 c 128,-1,39
 559 375 559 375 559 359 c 0,40,41
 559 350 559 350 554 331 c 2,42,-1
 538 253 l 2,43,44
 531 221 531 221 519 208 c 0,45,46
 498 187 498 187 473 187 c 0,47,48
 457 187 457 187 445.5 198 c 128,-1,49
 434 209 434 209 434 225 c 0,50,51
 434 229 434 229 436 243 c 1,52,-1
 418 243 l 1,0,-1
287 100 m 1,53,-1
 369 483 l 1,54,55
 282 482 282 482 227 434 c 0,56,57
 186 398 186 398 161.5 347.5 c 128,-1,58
 137 297 137 297 137 248 c 128,-1,59
 137 199 137 199 157.5 163 c 128,-1,60
 178 127 178 127 213 112 c 0,61,62
 241 100 241 100 287 100 c 1,53,-1
EndSplineSet
EndChar

StartChar: ordmasculine
Encoding: 186 186 145
Width: 600
GlyphClass: 2
Flags: W
LayerCount: 2
Fore
SplineSet
427 595 m 0,0,1
 488 595 488 595 527 558 c 128,-1,2
 566 521 566 521 566 463 c 0,3,4
 566 388 566 388 503.5 330.5 c 128,-1,5
 441 273 441 273 359 273 c 0,6,7
 298 273 298 273 258.5 309 c 128,-1,8
 219 345 219 345 219 400 c 0,9,10
 219 474 219 474 283.5 534.5 c 128,-1,11
 348 595 348 595 427 595 c 0,0,1
411 517 m 0,12,13
 370 517 370 517 335 485.5 c 128,-1,14
 300 454 300 454 300 416 c 0,15,16
 300 389 300 389 322 370 c 128,-1,17
 344 351 344 351 375 351 c 0,18,19
 417 351 417 351 451 380 c 128,-1,20
 485 409 485 409 485 445 c 0,21,22
 485 476 485 476 464 496.5 c 128,-1,23
 443 517 443 517 411 517 c 0,12,13
467 182 m 2,24,-1
 212 182 l 2,25,26
 168 182 168 182 168 213 c 0,27,28
 168 233 168 233 186 248 c 0,29,30
 201 259 201 259 229 259 c 2,31,-1
 484 259 l 2,32,33
 508 259 508 259 518 252 c 128,-1,34
 528 245 528 245 528 229 c 0,35,36
 528 209 528 209 510 193 c 0,37,38
 497 182 497 182 467 182 c 2,24,-1
EndSplineSet
EndChar

StartChar: ae
Encoding: 230 230 146
Width: 600
GlyphClass: 2
Flags: W
LayerCount: 2
Fore
SplineSet
647 172 m 1,0,-1
 397 172 l 1,1,2
 399 125 399 125 413.5 104.5 c 128,-1,3
 428 84 428 84 459 84 c 0,4,5
 487 84 487 84 531 101 c 128,-1,6
 575 118 575 118 592 118 c 0,7,8
 608 118 608 118 618 107.5 c 128,-1,9
 628 97 628 97 628 80 c 0,10,11
 628 46 628 46 599 26 c 0,12,13
 575 9 575 9 526 -3.5 c 128,-1,14
 477 -16 477 -16 437 -16 c 0,15,16
 387 -16 387 -16 346 16 c 1,17,18
 327 -1 327 -1 305 -1 c 0,19,20
 284 -1 284 -1 272 16 c 1,21,22
 214 -16 214 -16 156 -16 c 0,23,24
 89 -16 89 -16 51.5 16.5 c 128,-1,25
 14 49 14 49 14 106 c 0,26,27
 14 182 14 182 64 221 c 0,28,29
 100 249 100 249 155 267.5 c 128,-1,30
 210 286 210 286 256 286 c 0,31,32
 272 286 272 286 315 281 c 1,33,-1
 319 301 l 2,34,35
 320 305 320 305 320 314 c 0,36,37
 318 350 318 350 282 350 c 0,38,39
 263 350 263 350 187 329 c 0,40,41
 175 325 175 325 163 325 c 0,42,43
 147 325 147 325 136 336.5 c 128,-1,44
 125 348 125 348 125 365 c 0,45,46
 125 406 125 406 170 424 c 0,47,48
 194 432 194 432 238 441 c 128,-1,49
 282 450 282 450 302 450 c 0,50,51
 369 450 369 450 406 394 c 1,52,53
 471 450 471 450 531 450 c 0,54,55
 590 450 590 450 627.5 405 c 128,-1,56
 665 360 665 360 665 290 c 0,57,58
 665 258 665 258 657 218 c 2,59,-1
 647 172 l 1,0,-1
283 130 m 1,60,-1
 295 189 l 1,61,62
 266 197 266 197 241 197 c 0,63,64
 209 197 209 197 176 187 c 128,-1,65
 143 177 143 177 130 164 c 0,66,67
 117 149 117 149 117 130 c 0,68,69
 117 108 117 108 133 96 c 128,-1,70
 149 84 149 84 177 84 c 0,71,72
 217 84 217 84 283 130 c 1,60,-1
417 258 m 1,73,-1
 557 258 l 1,74,75
 558 268 558 268 558 280 c 0,76,77
 558 312 558 312 544.5 331 c 128,-1,78
 531 350 531 350 507 350 c 0,79,80
 468 350 468 350 440 307 c 0,81,82
 429 291 429 291 417 258 c 1,73,-1
EndSplineSet
EndChar

StartChar: dotlessi
Encoding: 305 305 147
Width: 600
GlyphClass: 2
Flags: W
LayerCount: 2
Fore
SplineSet
443 437 m 1,0,-1
 372 100 l 1,1,-1
 493 100 l 2,2,3
 517 100 517 100 528 96 c 0,4,5
 550 89 550 89 550 60 c 0,6,7
 550 35 550 35 527 15 c 0,8,9
 508 0 508 0 472 0 c 2,10,-1
 129 0 l 2,11,12
 98 0 98 0 85 9 c 128,-1,13
 72 18 72 18 72 40 c 0,14,15
 72 65 72 65 95 85 c 0,16,17
 112 100 112 100 150 100 c 2,18,-1
 272 100 l 1,19,-1
 322 337 l 1,20,-1
 244 337 l 2,21,22
 212 337 212 337 199 346 c 128,-1,23
 186 355 186 355 186 377 c 0,24,25
 186 404 186 404 209 422 c 0,26,27
 226 437 226 437 265 437 c 2,28,-1
 443 437 l 1,0,-1
EndSplineSet
EndChar

StartChar: lslash
Encoding: 322 322 148
Width: 600
GlyphClass: 2
Flags: W
LayerCount: 2
Fore
SplineSet
483 624 m 1,0,-1
 435 399 l 1,1,-1
 474 419 l 2,2,3
 501 435 501 435 519 435 c 0,4,5
 534 435 534 435 545.5 423 c 128,-1,6
 557 411 557 411 557 395 c 0,7,8
 557 374 557 374 546 360 c 128,-1,9
 535 346 535 346 506 332 c 2,10,-1
 410 283 l 1,11,-1
 371 100 l 1,12,-1
 493 100 l 2,13,14
 517 100 517 100 528 96 c 0,15,16
 550 89 550 89 550 61 c 0,17,18
 550 35 550 35 527 15 c 0,19,20
 508 0 508 0 472 0 c 2,21,-1
 129 0 l 2,22,23
 72 0 72 0 72 40 c 0,24,25
 72 67 72 67 95 85 c 0,26,27
 112 100 112 100 150 100 c 2,28,-1
 272 100 l 1,29,-1
 302 243 l 1,30,-1
 264 223 l 2,31,32
 236 209 236 209 220 209 c 128,-1,33
 204 209 204 209 193 220.5 c 128,-1,34
 182 232 182 232 182 249 c 0,35,36
 182 269 182 269 193.5 283 c 128,-1,37
 205 297 205 297 233 312 c 2,38,-1
 327 359 l 1,39,-1
 362 524 l 1,40,-1
 286 524 l 2,41,42
 255 524 255 524 242 533 c 128,-1,43
 229 542 229 542 229 564 c 0,44,45
 229 591 229 591 253 610 c 0,46,47
 271 624 271 624 308 624 c 2,48,-1
 483 624 l 1,0,-1
EndSplineSet
EndChar

StartChar: oslash
Encoding: 248 248 149
Width: 600
GlyphClass: 2
Flags: W
LayerCount: 2
Fore
SplineSet
634 402 m 2,0,-1
 583 359 l 1,1,2
 609 313 609 313 609 260 c 0,3,4
 609 152 609 152 514 68 c 128,-1,5
 419 -16 419 -16 297 -16 c 0,6,7
 230 -16 230 -16 174 14 c 1,8,-1
 106 -44 l 2,9,10
 76 -70 76 -70 56 -70 c 0,11,12
 39 -70 39 -70 28 -59.5 c 128,-1,13
 17 -49 17 -49 17 -32 c 0,14,15
 17 -8 17 -8 52 22 c 2,16,-1
 111 72 l 1,17,18
 83 118 83 118 83 174 c 0,19,20
 83 281 83 281 177.5 365.5 c 128,-1,21
 272 450 272 450 392 450 c 0,22,23
 469 450 469 450 521 419 c 1,24,-1
 580 468 l 2,25,26
 610 494 610 494 630 494 c 0,27,28
 647 494 647 494 658 483.5 c 128,-1,29
 669 473 669 473 669 456 c 0,30,31
 669 431 669 431 634 402 c 2,0,-1
496 286 m 1,32,-1
 266 91 l 1,33,34
 290 84 290 84 316 84 c 0,35,36
 393 84 393 84 450 131 c 128,-1,37
 507 178 507 178 507 241 c 0,38,39
 507 265 507 265 496 286 c 1,32,-1
197 145 m 1,40,-1
 430 342 l 1,41,42
 398 350 398 350 374 350 c 0,43,44
 299 350 299 350 242 302.5 c 128,-1,45
 185 255 185 255 185 192 c 0,46,47
 185 169 185 169 197 145 c 1,40,-1
EndSplineSet
EndChar

StartChar: oe
Encoding: 339 339 150
Width: 600
GlyphClass: 2
Flags: W
LayerCount: 2
Fore
SplineSet
648 171 m 1,0,-1
 397 171 l 1,1,2
 397 84 397 84 461 84 c 0,3,4
 496 84 496 84 564 112 c 0,5,6
 577 117 577 117 590 117 c 0,7,8
 606 117 606 117 617 105.5 c 128,-1,9
 628 94 628 94 628 77 c 0,10,11
 628 40 628 40 593 21 c 0,12,13
 565 6 565 6 517.5 -5 c 128,-1,14
 470 -16 470 -16 434 -16 c 0,15,16
 352 -16 352 -16 315 58 c 1,17,18
 246 -16 246 -16 169 -16 c 0,19,20
 107 -16 107 -16 67.5 31 c 128,-1,21
 28 78 28 78 28 152 c 0,22,23
 28 257 28 257 97 350 c 0,24,25
 169 450 169 450 268 450 c 0,26,27
 343 450 343 450 382 370 c 1,28,29
 452 450 452 450 532 450 c 0,30,31
 591 450 591 450 628.5 405.5 c 128,-1,32
 666 361 666 361 666 291 c 0,33,34
 666 256 666 256 658 216 c 2,35,-1
 648 171 l 1,0,-1
247 349 m 0,36,37
 204 349 204 349 167.5 294.5 c 128,-1,38
 131 240 131 240 131 175 c 0,39,40
 131 132 131 132 146.5 108 c 128,-1,41
 162 84 162 84 190 84 c 0,42,43
 233 84 233 84 269.5 138.5 c 128,-1,44
 306 193 306 193 306 258 c 0,45,46
 306 301 306 301 290.5 325 c 128,-1,47
 275 349 275 349 247 349 c 0,36,37
559 257 m 1,48,-1
 559 263 l 2,49,50
 559 349 559 349 509 349 c 0,51,52
 470 349 470 349 443 306 c 0,53,54
 433 291 433 291 418 257 c 1,55,-1
 559 257 l 1,48,-1
EndSplineSet
EndChar

StartChar: germandbls
Encoding: 223 223 151
Width: 600
GlyphClass: 2
Flags: W
LayerCount: 2
Fore
SplineSet
116 100 m 1,0,-1
 196 478 l 2,1,2
 209 542 209 542 266.5 582.5 c 128,-1,3
 324 623 324 623 400 623 c 0,4,5
 466 623 466 623 506 586.5 c 128,-1,6
 546 550 546 550 546 490 c 0,7,8
 546 421 546 421 489 365 c 1,9,10
 569 309 569 309 569 214 c 0,11,12
 569 126 569 126 511 53 c 0,13,14
 454 -16 454 -16 370 -16 c 0,15,16
 325 -16 325 -16 298.5 8 c 128,-1,17
 272 32 272 32 272 74 c 0,18,19
 272 109 272 109 291 132.5 c 128,-1,20
 310 156 310 156 338 156 c 0,21,22
 354 156 354 156 364.5 147 c 128,-1,23
 375 138 375 138 375 125 c 2,24,-1
 375 113 l 2,25,26
 375 84 375 84 399 84 c 0,27,28
 425 84 425 84 446 117 c 128,-1,29
 467 150 467 150 467 191 c 0,30,31
 467 249 467 249 418 281 c 0,32,33
 395 297 395 297 342 303 c 0,34,35
 317 306 317 306 306.5 315 c 128,-1,36
 296 324 296 324 296 342 c 0,37,38
 296 367 296 367 313.5 383 c 128,-1,39
 331 399 331 399 360 402 c 0,40,41
 402 407 402 407 423 425 c 0,42,43
 444 446 444 446 444 470 c 0,44,45
 444 495 444 495 427 509 c 128,-1,46
 410 523 410 523 380 523 c 0,47,48
 305 523 305 523 293 461 c 2,49,-1
 216 100 l 1,50,51
 250 94 250 94 250 63 c 0,52,53
 250 26 250 26 216 7 c 0,54,55
 203 0 203 0 171 0 c 2,56,-1
 78 0 l 2,57,58
 48 0 48 0 35 9 c 128,-1,59
 22 18 22 18 22 40 c 0,60,61
 22 65 22 65 45 85 c 0,62,63
 62 100 62 100 100 100 c 2,64,-1
 116 100 l 1,0,-1
EndSplineSet
EndChar

StartChar: Adieresis
Encoding: 196 196 152
Width: 600
GlyphClass: 2
Flags: W
LayerCount: 2
Fore
SplineSet
450 158 m 1,0,-1
 212 158 l 1,1,-1
 176 100 l 1,2,-1
 199 100 l 2,3,4
 223 100 223 100 234 96 c 0,5,6
 256 89 256 89 256 60 c 0,7,8
 256 35 256 35 233 15 c 0,9,10
 216 0 216 0 178 0 c 2,11,-1
 46 0 l 2,12,13
 15 0 15 0 2 9 c 128,-1,14
 -11 18 -11 18 -11 40 c 0,15,16
 -11 67 -11 67 12 85 c 0,17,18
 31 100 31 100 68 100 c 1,19,-1
 304 483 l 1,20,-1
 241 483 l 2,21,22
 210 483 210 483 197 492 c 128,-1,23
 184 501 184 501 184 523 c 0,24,25
 184 549 184 549 207 569 c 0,26,27
 224 583 224 583 262 583 c 2,28,-1
 478 583 l 1,29,-1
 575 100 l 1,30,31
 599 100 599 100 611 96 c 0,32,33
 633 88 633 88 633 60 c 0,34,35
 633 33 633 33 610 15 c 0,36,37
 593 0 593 0 555 0 c 2,38,-1
 416 0 l 2,39,40
 386 0 386 0 373 9 c 128,-1,41
 360 18 360 18 360 40 c 0,42,43
 360 65 360 65 383 85 c 0,44,45
 400 100 400 100 438 100 c 2,46,-1
 461 100 l 1,47,-1
 450 158 l 1,0,-1
430 258 m 1,48,-1
 392 450 l 1,49,-1
 273 258 l 1,50,-1
 430 258 l 1,48,-1
348 800 m 0,51,52
 369 800 369 800 383 786 c 128,-1,53
 397 772 397 772 397 751 c 0,54,55
 397 723 397 723 374.5 700.5 c 128,-1,56
 352 678 352 678 323 678 c 0,57,58
 304 678 304 678 289.5 693 c 128,-1,59
 275 708 275 708 275 727 c 0,60,61
 275 754 275 754 298 777 c 128,-1,62
 321 800 321 800 348 800 c 0,51,52
556 800 m 0,63,64
 577 800 577 800 591 786 c 128,-1,65
 605 772 605 772 605 751 c 0,66,67
 605 723 605 723 582.5 700.5 c 128,-1,68
 560 678 560 678 531 678 c 0,69,70
 512 678 512 678 497.5 693 c 128,-1,71
 483 708 483 708 483 727 c 0,72,73
 483 754 483 754 506 777 c 128,-1,74
 529 800 529 800 556 800 c 0,63,64
EndSplineSet
EndChar

StartChar: Aacute
Encoding: 193 193 153
Width: 600
GlyphClass: 2
Flags: W
LayerCount: 2
Fore
SplineSet
450 158 m 1,0,-1
 212 158 l 1,1,-1
 176 100 l 1,2,-1
 199 100 l 2,3,4
 223 100 223 100 234 96 c 0,5,6
 256 89 256 89 256 60 c 0,7,8
 256 35 256 35 233 15 c 0,9,10
 216 0 216 0 178 0 c 2,11,-1
 46 0 l 2,12,13
 15 0 15 0 2 9 c 128,-1,14
 -11 18 -11 18 -11 40 c 0,15,16
 -11 67 -11 67 12 85 c 0,17,18
 31 100 31 100 68 100 c 1,19,-1
 304 483 l 1,20,-1
 241 483 l 2,21,22
 210 483 210 483 197 492 c 128,-1,23
 184 501 184 501 184 523 c 0,24,25
 184 549 184 549 207 569 c 0,26,27
 224 583 224 583 262 583 c 2,28,-1
 478 583 l 1,29,-1
 575 100 l 1,30,31
 599 100 599 100 611 96 c 0,32,33
 633 88 633 88 633 60 c 0,34,35
 633 33 633 33 610 15 c 0,36,37
 593 0 593 0 555 0 c 2,38,-1
 416 0 l 2,39,40
 386 0 386 0 373 9 c 128,-1,41
 360 18 360 18 360 40 c 0,42,43
 360 65 360 65 383 85 c 0,44,45
 400 100 400 100 438 100 c 2,46,-1
 461 100 l 1,47,-1
 450 158 l 1,0,-1
430 258 m 1,48,-1
 392 450 l 1,49,-1
 273 258 l 1,50,-1
 430 258 l 1,48,-1
573 767 m 2,51,-1
 416 656 l 2,52,53
 393 640 393 640 381 640 c 0,54,55
 368 640 368 640 359.5 648 c 128,-1,56
 351 656 351 656 351 669 c 0,57,58
 351 691 351 691 382 712 c 2,59,-1
 539 824 l 2,60,61
 561 839 561 839 575 839 c 0,62,63
 588 839 588 839 596.5 831 c 128,-1,64
 605 823 605 823 605 810 c 0,65,66
 605 790 605 790 573 767 c 2,51,-1
EndSplineSet
EndChar

StartChar: Agrave
Encoding: 192 192 154
Width: 600
GlyphClass: 2
Flags: W
LayerCount: 2
Fore
SplineSet
450 158 m 1,0,-1
 212 158 l 1,1,-1
 176 100 l 1,2,-1
 199 100 l 2,3,4
 223 100 223 100 234 96 c 0,5,6
 256 89 256 89 256 60 c 0,7,8
 256 35 256 35 233 15 c 0,9,10
 216 0 216 0 178 0 c 2,11,-1
 46 0 l 2,12,13
 15 0 15 0 2 9 c 128,-1,14
 -11 18 -11 18 -11 40 c 0,15,16
 -11 67 -11 67 12 85 c 0,17,18
 31 100 31 100 68 100 c 1,19,-1
 304 483 l 1,20,-1
 241 483 l 2,21,22
 210 483 210 483 197 492 c 128,-1,23
 184 501 184 501 184 523 c 0,24,25
 184 549 184 549 207 569 c 0,26,27
 224 583 224 583 262 583 c 2,28,-1
 478 583 l 1,29,-1
 575 100 l 1,30,31
 599 100 599 100 611 96 c 0,32,33
 633 88 633 88 633 60 c 0,34,35
 633 33 633 33 610 15 c 0,36,37
 593 0 593 0 555 0 c 2,38,-1
 416 0 l 2,39,40
 386 0 386 0 373 9 c 128,-1,41
 360 18 360 18 360 40 c 0,42,43
 360 65 360 65 383 85 c 0,44,45
 400 100 400 100 438 100 c 2,46,-1
 461 100 l 1,47,-1
 450 158 l 1,0,-1
430 258 m 1,48,-1
 392 450 l 1,49,-1
 273 258 l 1,50,-1
 430 258 l 1,48,-1
385 824 m 2,51,-1
 495 712 l 2,52,53
 511 696 511 696 511 683 c 0,54,55
 511 667 511 667 496.5 653.5 c 128,-1,56
 482 640 482 640 465 640 c 0,57,58
 452 640 452 640 437 656 c 2,59,-1
 327 767 l 2,60,61
 311 782 311 782 311 794 c 0,62,63
 311 812 311 812 325 825.5 c 128,-1,64
 339 839 339 839 356 839 c 0,65,66
 370 839 370 839 385 824 c 2,51,-1
EndSplineSet
EndChar

StartChar: Acircumflex
Encoding: 194 194 155
Width: 600
GlyphClass: 2
Flags: W
LayerCount: 2
Fore
SplineSet
450 158 m 1,0,-1
 212 158 l 1,1,-1
 176 100 l 1,2,-1
 199 100 l 2,3,4
 223 100 223 100 234 96 c 0,5,6
 256 89 256 89 256 60 c 0,7,8
 256 35 256 35 233 15 c 0,9,10
 216 0 216 0 178 0 c 2,11,-1
 46 0 l 2,12,13
 15 0 15 0 2 9 c 128,-1,14
 -11 18 -11 18 -11 40 c 0,15,16
 -11 67 -11 67 12 85 c 0,17,18
 31 100 31 100 68 100 c 1,19,-1
 304 483 l 1,20,-1
 241 483 l 2,21,22
 210 483 210 483 197 492 c 128,-1,23
 184 501 184 501 184 523 c 0,24,25
 184 549 184 549 207 569 c 0,26,27
 224 583 224 583 262 583 c 2,28,-1
 478 583 l 1,29,-1
 575 100 l 1,30,31
 599 100 599 100 611 96 c 0,32,33
 633 88 633 88 633 60 c 0,34,35
 633 33 633 33 610 15 c 0,36,37
 593 0 593 0 555 0 c 2,38,-1
 416 0 l 2,39,40
 386 0 386 0 373 9 c 128,-1,41
 360 18 360 18 360 40 c 0,42,43
 360 65 360 65 383 85 c 0,44,45
 400 100 400 100 438 100 c 2,46,-1
 461 100 l 1,47,-1
 450 158 l 1,0,-1
430 258 m 1,48,-1
 392 450 l 1,49,-1
 273 258 l 1,50,-1
 430 258 l 1,48,-1
444 750 m 1,51,-1
 310 653 l 2,52,53
 292 640 292 640 279 640 c 0,54,55
 267 640 267 640 259 648 c 128,-1,56
 251 656 251 656 251 668 c 0,57,58
 251 681 251 681 257 689 c 128,-1,59
 263 697 263 697 283 711 c 2,60,-1
 463 839 l 1,61,-1
 586 711 l 1,62,-1
 591 706 l 2,63,64
 604 694 604 694 604 683 c 0,65,66
 604 667 604 667 590.5 653.5 c 128,-1,67
 577 640 577 640 561 640 c 0,68,69
 548 640 548 640 535 653 c 2,70,-1
 444 750 l 1,51,-1
EndSplineSet
EndChar

StartChar: Abreve
Encoding: 258 258 156
Width: 600
GlyphClass: 2
Flags: W
LayerCount: 2
Fore
SplineSet
450 158 m 1,0,-1
 212 158 l 1,1,-1
 176 100 l 1,2,-1
 199 100 l 2,3,4
 223 100 223 100 234 96 c 0,5,6
 256 89 256 89 256 60 c 0,7,8
 256 35 256 35 233 15 c 0,9,10
 216 0 216 0 178 0 c 2,11,-1
 46 0 l 2,12,13
 15 0 15 0 2 9 c 128,-1,14
 -11 18 -11 18 -11 40 c 0,15,16
 -11 67 -11 67 12 85 c 0,17,18
 31 100 31 100 68 100 c 1,19,-1
 304 483 l 1,20,-1
 241 483 l 2,21,22
 210 483 210 483 197 492 c 128,-1,23
 184 501 184 501 184 523 c 0,24,25
 184 549 184 549 207 569 c 0,26,27
 224 583 224 583 262 583 c 2,28,-1
 478 583 l 1,29,-1
 575 100 l 1,30,31
 599 100 599 100 611 96 c 0,32,33
 633 88 633 88 633 60 c 0,34,35
 633 33 633 33 610 15 c 0,36,37
 593 0 593 0 555 0 c 2,38,-1
 416 0 l 2,39,40
 386 0 386 0 373 9 c 128,-1,41
 360 18 360 18 360 40 c 0,42,43
 360 65 360 65 383 85 c 0,44,45
 400 100 400 100 438 100 c 2,46,-1
 461 100 l 1,47,-1
 450 158 l 1,0,-1
430 258 m 1,48,-1
 392 450 l 1,49,-1
 273 258 l 1,50,-1
 430 258 l 1,48,-1
289 831 m 0,51,52
 304 831 304 831 309.5 823.5 c 128,-1,53
 315 816 315 816 317 791 c 0,54,55
 319 767 319 767 323.5 757.5 c 128,-1,56
 328 748 328 748 341 738 c 0,57,58
 370 714 370 714 409 714 c 0,59,60
 450 714 450 714 483.5 735.5 c 128,-1,61
 517 757 517 757 529 791 c 0,62,63
 537 813 537 813 546.5 822 c 128,-1,64
 556 831 556 831 572 831 c 0,65,66
 597 831 597 831 597 803 c 0,67,68
 597 747 597 747 532.5 697 c 128,-1,69
 468 647 468 647 396 647 c 0,70,71
 334 647 334 647 290 685 c 128,-1,72
 246 723 246 723 246 777 c 0,73,74
 246 800 246 800 258 815.5 c 128,-1,75
 270 831 270 831 289 831 c 0,51,52
EndSplineSet
EndChar

StartChar: Atilde
Encoding: 195 195 157
Width: 600
GlyphClass: 2
Flags: W
LayerCount: 2
Fore
SplineSet
450 158 m 1,0,-1
 212 158 l 1,1,-1
 176 100 l 1,2,-1
 199 100 l 2,3,4
 223 100 223 100 234 96 c 0,5,6
 256 89 256 89 256 60 c 0,7,8
 256 35 256 35 233 15 c 0,9,10
 216 0 216 0 178 0 c 2,11,-1
 46 0 l 2,12,13
 15 0 15 0 2 9 c 128,-1,14
 -11 18 -11 18 -11 40 c 0,15,16
 -11 67 -11 67 12 85 c 0,17,18
 31 100 31 100 68 100 c 1,19,-1
 304 483 l 1,20,-1
 241 483 l 2,21,22
 210 483 210 483 197 492 c 128,-1,23
 184 501 184 501 184 523 c 0,24,25
 184 549 184 549 207 569 c 0,26,27
 224 583 224 583 262 583 c 2,28,-1
 478 583 l 1,29,-1
 575 100 l 1,30,31
 599 100 599 100 611 96 c 0,32,33
 633 88 633 88 633 60 c 0,34,35
 633 33 633 33 610 15 c 0,36,37
 593 0 593 0 555 0 c 2,38,-1
 416 0 l 2,39,40
 386 0 386 0 373 9 c 128,-1,41
 360 18 360 18 360 40 c 0,42,43
 360 65 360 65 383 85 c 0,44,45
 400 100 400 100 438 100 c 2,46,-1
 461 100 l 1,47,-1
 450 158 l 1,0,-1
430 258 m 1,48,-1
 392 450 l 1,49,-1
 273 258 l 1,50,-1
 430 258 l 1,48,-1
606 799 m 0,51,52
 617 799 617 799 625 792 c 128,-1,53
 633 785 633 785 633 776 c 0,54,55
 633 760 633 760 604 728 c 0,56,57
 547 667 547 667 501 667 c 0,58,59
 469 667 469 667 412 709 c 0,60,61
 382 730 382 730 366 730 c 0,62,63
 352 730 352 730 340.5 721.5 c 128,-1,64
 329 713 329 713 298 682 c 0,65,66
 288 670 288 670 272 670 c 0,67,68
 261 670 261 670 254 676.5 c 128,-1,69
 247 683 247 683 247 693 c 0,70,71
 247 714 247 714 283 751 c 0,72,73
 333 799 333 799 379 799 c 0,74,75
 408 799 408 799 461 762 c 0,76,77
 499 736 499 736 513 736 c 0,78,79
 525 736 525 736 533.5 742.5 c 128,-1,80
 542 749 542 749 566 775 c 0,81,82
 588 799 588 799 606 799 c 0,51,52
EndSplineSet
EndChar

StartChar: Aring
Encoding: 197 197 158
Width: 600
GlyphClass: 2
Flags: W
LayerCount: 2
Fore
SplineSet
450 158 m 1,0,-1
 212 158 l 1,1,-1
 176 100 l 1,2,-1
 199 100 l 2,3,4
 223 100 223 100 234 96 c 0,5,6
 256 89 256 89 256 60 c 0,7,8
 256 35 256 35 233 15 c 0,9,10
 216 0 216 0 178 0 c 2,11,-1
 46 0 l 2,12,13
 15 0 15 0 2 9 c 128,-1,14
 -11 18 -11 18 -11 40 c 0,15,16
 -11 67 -11 67 12 85 c 0,17,18
 31 100 31 100 68 100 c 1,19,-1
 304 483 l 1,20,-1
 241 483 l 2,21,22
 210 483 210 483 197 492 c 128,-1,23
 184 501 184 501 184 523 c 0,24,25
 184 549 184 549 207 569 c 0,26,27
 224 583 224 583 262 583 c 2,28,-1
 478 583 l 1,29,-1
 575 100 l 1,30,31
 599 100 599 100 611 96 c 0,32,33
 633 88 633 88 633 60 c 0,34,35
 633 33 633 33 610 15 c 0,36,37
 593 0 593 0 555 0 c 2,38,-1
 416 0 l 2,39,40
 386 0 386 0 373 9 c 128,-1,41
 360 18 360 18 360 40 c 0,42,43
 360 65 360 65 383 85 c 0,44,45
 400 100 400 100 438 100 c 2,46,-1
 461 100 l 1,47,-1
 450 158 l 1,0,-1
430 258 m 1,48,-1
 392 450 l 1,49,-1
 273 258 l 1,50,-1
 430 258 l 1,48,-1
469 871 m 0,51,52
 511 871 511 871 539 844 c 128,-1,53
 567 817 567 817 567 776 c 0,54,55
 567 722 567 722 528 682 c 0,56,57
 478 630 478 630 416 630 c 0,58,59
 375 630 375 630 346.5 658 c 128,-1,60
 318 686 318 686 318 726 c 0,61,62
 318 781 318 781 365 826 c 128,-1,63
 412 871 412 871 469 871 c 0,51,52
456 817 m 0,64,65
 424 817 424 817 398 792.5 c 128,-1,66
 372 768 372 768 372 738 c 0,67,68
 372 715 372 715 388 699.5 c 128,-1,69
 404 684 404 684 428 684 c 0,70,71
 460 684 460 684 486.5 708.5 c 128,-1,72
 513 733 513 733 513 762 c 0,73,74
 513 787 513 787 497.5 802 c 128,-1,75
 482 817 482 817 456 817 c 0,64,65
EndSplineSet
EndChar

StartChar: Aogonek
Encoding: 260 260 159
Width: 600
GlyphClass: 2
Flags: W
LayerCount: 2
Fore
SplineSet
478 583 m 1,0,-1
 575 100 l 1,1,2
 599 100 599 100 611 96 c 0,3,4
 633 88 633 88 633 60 c 0,5,6
 633 40 633 40 620.5 25.5 c 128,-1,7
 608 11 608 11 578 -2 c 0,8,9
 531 -23 531 -23 500 -55 c 128,-1,10
 469 -87 469 -87 469 -114 c 0,11,12
 469 -130 469 -130 486 -130 c 0,13,14
 500 -130 500 -130 539 -114 c 0,15,16
 551 -108 551 -108 562 -108 c 0,17,18
 576 -108 576 -108 584.5 -117 c 128,-1,19
 593 -126 593 -126 593 -140 c 0,20,21
 593 -163 593 -163 570 -178 c 0,22,23
 524 -208 524 -208 464 -208 c 0,24,25
 428 -208 428 -208 407.5 -188.5 c 128,-1,26
 387 -169 387 -169 387 -135 c 0,27,28
 387 -70 387 -70 446 -31 c 0,29,30
 474 -13 474 -13 500 0 c 1,31,-1
 416 0 l 2,32,33
 386 0 386 0 373 9 c 128,-1,34
 360 18 360 18 360 40 c 0,35,36
 360 65 360 65 383 85 c 0,37,38
 400 100 400 100 438 100 c 2,39,-1
 461 100 l 1,40,-1
 450 158 l 1,41,-1
 212 158 l 1,42,-1
 176 100 l 1,43,-1
 199 100 l 2,44,45
 223 100 223 100 234 96 c 0,46,47
 256 89 256 89 256 60 c 0,48,49
 256 35 256 35 233 15 c 0,50,51
 216 0 216 0 178 0 c 2,52,-1
 46 0 l 2,53,54
 15 0 15 0 2 9 c 128,-1,55
 -11 18 -11 18 -11 40 c 0,56,57
 -11 67 -11 67 12 85 c 0,58,59
 31 100 31 100 68 100 c 1,60,-1
 304 483 l 1,61,-1
 241 483 l 2,62,63
 210 483 210 483 197 492 c 128,-1,64
 184 501 184 501 184 523 c 0,65,66
 184 549 184 549 207 569 c 0,67,68
 224 583 224 583 262 583 c 2,69,-1
 478 583 l 1,0,-1
430 258 m 1,70,-1
 392 450 l 1,71,-1
 273 258 l 1,72,-1
 430 258 l 1,70,-1
EndSplineSet
EndChar

StartChar: Ccedilla
Encoding: 199 199 160
Width: 600
GlyphClass: 2
Flags: W
LayerCount: 2
Fore
SplineSet
334 -14 m 1,0,-1
 328 -42 l 1,1,2
 359 -48 359 -48 372.5 -63.5 c 128,-1,3
 386 -79 386 -79 386 -109 c 0,4,5
 386 -158 386 -158 348 -193.5 c 128,-1,6
 310 -229 310 -229 258 -229 c 0,7,8
 215 -229 215 -229 181.5 -212.5 c 128,-1,9
 148 -196 148 -196 148 -174 c 0,10,11
 148 -157 148 -157 161.5 -144 c 128,-1,12
 175 -131 175 -131 192 -131 c 0,13,14
 200 -131 200 -131 218 -142 c 0,15,16
 243 -159 243 -159 272 -159 c 0,17,18
 314 -159 314 -159 314 -128 c 0,19,20
 314 -100 314 -100 273 -100 c 0,21,22
 263 -100 263 -100 246 -102 c 1,23,-1
 265 -9 l 1,24,25
 222 0 222 0 190 15 c 0,26,27
 138 39 138 39 109 87 c 128,-1,28
 80 135 80 135 80 195 c 0,29,30
 80 222 80 222 86 249 c 2,31,-1
 100 315 l 2,32,33
 126 435 126 435 221 516 c 128,-1,34
 316 597 316 597 432 597 c 0,35,36
 502 597 502 597 567 563 c 2,37,-1
 576 559 l 1,38,39
 600 583 600 583 623 583 c 0,40,41
 640 583 640 583 651.5 572 c 128,-1,42
 663 561 663 561 663 545 c 0,43,44
 663 534 663 534 659 517 c 2,45,-1
 641 433 l 2,46,47
 634 401 634 401 622 388 c 0,48,49
 603 367 603 367 577 367 c 0,50,51
 559 367 559 367 548 378 c 128,-1,52
 537 389 537 389 538 406 c 2,53,-1
 539 425 l 2,54,55
 541 454 541 454 503.5 475.5 c 128,-1,56
 466 497 466 497 415 497 c 0,57,58
 338 497 338 497 277 445.5 c 128,-1,59
 216 394 216 394 200 315 c 2,60,-1
 186 251 l 2,61,62
 182 234 182 234 182 214 c 0,63,64
 182 155 182 155 226.5 120.5 c 128,-1,65
 271 86 271 86 347 86 c 0,66,67
 419 86 419 86 463 109 c 0,68,69
 478 118 478 118 508 143 c 0,70,71
 528 159 528 159 547 159 c 0,72,73
 564 159 564 159 576 147 c 128,-1,74
 588 135 588 135 588 118 c 0,75,76
 588 79 588 79 518 36 c 0,77,78
 452 -7 452 -7 334 -14 c 1,0,-1
EndSplineSet
EndChar

StartChar: Cacute
Encoding: 262 262 161
Width: 600
GlyphClass: 2
Flags: W
LayerCount: 2
Fore
SplineSet
567 563 m 2,0,-1
 576 559 l 1,1,2
 600 583 600 583 623 583 c 0,3,4
 640 583 640 583 651.5 572 c 128,-1,5
 663 561 663 561 663 545 c 0,6,7
 663 534 663 534 659 517 c 2,8,-1
 641 433 l 2,9,10
 633 399 633 399 622 388 c 0,11,12
 603 367 603 367 577 367 c 0,13,14
 559 367 559 367 548 378 c 128,-1,15
 537 389 537 389 538 406 c 2,16,-1
 539 425 l 2,17,18
 540 453 540 453 502.5 475 c 128,-1,19
 465 497 465 497 415 497 c 0,20,21
 338 497 338 497 277 445.5 c 128,-1,22
 216 394 216 394 200 315 c 2,23,-1
 186 251 l 2,24,25
 182 234 182 234 182 214 c 0,26,27
 182 155 182 155 226.5 120.5 c 128,-1,28
 271 86 271 86 347 86 c 0,29,30
 419 86 419 86 463 109 c 0,31,32
 478 118 478 118 508 143 c 0,33,34
 528 159 528 159 547 159 c 0,35,36
 564 159 564 159 576 147 c 128,-1,37
 588 135 588 135 588 118 c 0,38,39
 588 90 588 90 550 59 c 0,40,41
 463 -14 463 -14 324 -14 c 0,42,43
 213 -14 213 -14 146.5 43 c 128,-1,44
 80 100 80 100 80 195 c 0,45,46
 80 222 80 222 86 249 c 2,47,-1
 100 315 l 2,48,49
 126 435 126 435 221 516 c 128,-1,50
 316 597 316 597 432 597 c 0,51,52
 502 597 502 597 567 563 c 2,0,-1
609 767 m 1,53,-1
 459 656 l 2,54,55
 433 640 433 640 424 640 c 0,56,57
 411 640 411 640 402.5 648 c 128,-1,58
 394 656 394 656 394 669 c 0,59,60
 394 690 394 690 424 712 c 2,61,-1
 575 824 l 2,62,63
 595 839 595 839 609 839 c 128,-1,64
 623 839 623 839 631.5 831 c 128,-1,65
 640 823 640 823 640 810 c 0,66,67
 640 789 640 789 616 772 c 2,68,-1
 609 767 l 1,53,-1
EndSplineSet
EndChar

StartChar: Ccaron
Encoding: 268 268 162
Width: 600
GlyphClass: 2
Flags: W
LayerCount: 2
Fore
SplineSet
567 563 m 2,0,-1
 576 559 l 1,1,2
 600 583 600 583 623 583 c 0,3,4
 640 583 640 583 651.5 572 c 128,-1,5
 663 561 663 561 663 545 c 0,6,7
 663 534 663 534 659 517 c 2,8,-1
 641 433 l 2,9,10
 633 399 633 399 622 388 c 0,11,12
 603 367 603 367 577 367 c 0,13,14
 559 367 559 367 548 378 c 128,-1,15
 537 389 537 389 538 406 c 2,16,-1
 539 425 l 2,17,18
 540 453 540 453 502.5 475 c 128,-1,19
 465 497 465 497 415 497 c 0,20,21
 338 497 338 497 277 445.5 c 128,-1,22
 216 394 216 394 200 315 c 2,23,-1
 186 251 l 2,24,25
 182 234 182 234 182 214 c 0,26,27
 182 155 182 155 226.5 120.5 c 128,-1,28
 271 86 271 86 347 86 c 0,29,30
 419 86 419 86 463 109 c 0,31,32
 478 118 478 118 508 143 c 0,33,34
 528 159 528 159 547 159 c 0,35,36
 564 159 564 159 576 147 c 128,-1,37
 588 135 588 135 588 118 c 0,38,39
 588 90 588 90 550 59 c 0,40,41
 463 -14 463 -14 324 -14 c 0,42,43
 213 -14 213 -14 146.5 43 c 128,-1,44
 80 100 80 100 80 195 c 0,45,46
 80 222 80 222 86 249 c 2,47,-1
 100 315 l 2,48,49
 126 435 126 435 221 516 c 128,-1,50
 316 597 316 597 432 597 c 0,51,52
 502 597 502 597 567 563 c 2,0,-1
451 729 m 1,53,-1
 578 826 l 2,54,55
 596 839 596 839 609 839 c 0,56,57
 620 839 620 839 628.5 830.5 c 128,-1,58
 637 822 637 822 637 811 c 0,59,60
 637 790 637 790 612 773 c 2,61,-1
 605 768 l 1,62,-1
 432 640 l 1,63,-1
 304 768 l 2,64,65
 287 785 287 785 287 797 c 0,66,67
 287 811 287 811 301.5 825 c 128,-1,68
 316 839 316 839 331 839 c 0,69,70
 342 839 342 839 355 826 c 2,71,-1
 451 729 l 1,53,-1
EndSplineSet
EndChar

StartChar: Dcaron
Encoding: 270 270 163
Width: 600
GlyphClass: 2
Flags: W
LayerCount: 2
Fore
SplineSet
96 100 m 1,0,-1
 177 483 l 1,1,2
 126 483 126 483 126 523 c 0,3,4
 126 548 126 548 149 569 c 0,5,6
 167 583 167 583 204 583 c 2,7,-1
 417 583 l 2,8,9
 509 583 509 583 565.5 524 c 128,-1,10
 622 465 622 465 622 369 c 0,11,12
 622 334 622 334 615 305 c 2,13,-1
 605 258 l 2,14,15
 582 148 582 148 497 75 c 0,16,17
 410 0 410 0 285 0 c 2,18,-1
 80 0 l 2,19,20
 49 0 49 0 36 9.5 c 128,-1,21
 23 19 23 19 23 40 c 0,22,23
 23 65 23 65 46 85 c 0,24,25
 64 100 64 100 96 100 c 1,0,-1
196 100 m 1,26,-1
 306 100 l 2,27,28
 386 100 386 100 440 144 c 0,29,30
 490 187 490 187 506 261 c 2,31,-1
 516 307 l 2,32,33
 520 326 520 326 520 350 c 0,34,35
 520 420 520 420 475 457 c 0,36,37
 446 483 446 483 387 483 c 2,38,-1
 277 483 l 1,39,-1
 196 100 l 1,26,-1
411 729 m 1,40,-1
 538 826 l 2,41,42
 556 839 556 839 569 839 c 0,43,44
 580 839 580 839 588.5 830.5 c 128,-1,45
 597 822 597 822 597 811 c 0,46,47
 597 790 597 790 572 773 c 2,48,-1
 565 768 l 1,49,-1
 392 640 l 1,50,-1
 264 768 l 2,51,52
 247 785 247 785 247 797 c 0,53,54
 247 811 247 811 261.5 825 c 128,-1,55
 276 839 276 839 291 839 c 0,56,57
 302 839 302 839 315 826 c 2,58,-1
 411 729 l 1,40,-1
EndSplineSet
EndChar

StartChar: Edieresis
Encoding: 203 203 164
Width: 600
GlyphClass: 2
Flags: W
LayerCount: 2
Fore
SplineSet
246 243 m 1,0,-1
 216 100 l 1,1,-1
 471 100 l 1,2,-1
 483 152 l 2,3,4
 489 185 489 185 502 198 c 0,5,6
 520 219 520 219 546 219 c 0,7,8
 563 219 563 219 575 208.5 c 128,-1,9
 587 198 587 198 587 182 c 0,10,11
 587 176 587 176 583 152 c 2,12,-1
 550 0 l 1,13,-1
 80 0 l 2,14,15
 23 0 23 0 23 40 c 0,16,17
 23 67 23 67 46 85 c 0,18,19
 63 100 63 100 101 100 c 2,20,-1
 116 100 l 1,21,-1
 197 483 l 1,22,-1
 182 483 l 2,23,24
 151 483 151 483 138 492 c 128,-1,25
 125 501 125 501 125 523 c 0,26,27
 125 550 125 550 149 569 c 0,28,29
 165 583 165 583 204 583 c 2,30,-1
 652 583 l 1,31,-1
 620 433 l 2,32,33
 613 399 613 399 601 387 c 0,34,35
 582 366 582 366 556 366 c 0,36,37
 539 366 539 366 527.5 377 c 128,-1,38
 516 388 516 388 516 404 c 0,39,40
 516 416 516 416 520 433 c 2,41,-1
 531 483 l 1,42,-1
 297 483 l 1,43,-1
 267 342 l 1,44,-1
 352 342 l 1,45,-1
 353 349 l 2,46,47
 360 383 360 383 372 395 c 0,48,49
 393 416 393 416 417 416 c 0,50,51
 434 416 434 416 445.5 405 c 128,-1,52
 457 394 457 394 457 378 c 0,53,54
 457 369 457 369 453 349 c 2,55,-1
 428 236 l 2,56,57
 421 203 421 203 409 190 c 0,58,59
 389 170 389 170 365 170 c 0,60,61
 348 170 348 170 336.5 180.5 c 128,-1,62
 325 191 325 191 325 207 c 0,63,64
 325 217 325 217 329 236 c 2,65,-1
 331 243 l 1,66,-1
 246 243 l 1,0,-1
356 800 m 0,67,68
 377 800 377 800 391 786 c 128,-1,69
 405 772 405 772 405 751 c 0,70,71
 405 723 405 723 382.5 700.5 c 128,-1,72
 360 678 360 678 331 678 c 0,73,74
 312 678 312 678 297.5 693 c 128,-1,75
 283 708 283 708 283 727 c 0,76,77
 283 754 283 754 306 777 c 128,-1,78
 329 800 329 800 356 800 c 0,67,68
564 800 m 0,79,80
 585 800 585 800 599 786 c 128,-1,81
 613 772 613 772 613 751 c 0,82,83
 613 723 613 723 590.5 700.5 c 128,-1,84
 568 678 568 678 539 678 c 0,85,86
 520 678 520 678 505.5 693 c 128,-1,87
 491 708 491 708 491 727 c 0,88,89
 491 754 491 754 514 777 c 128,-1,90
 537 800 537 800 564 800 c 0,79,80
EndSplineSet
EndChar

StartChar: Eacute
Encoding: 201 201 165
Width: 600
GlyphClass: 2
Flags: W
LayerCount: 2
Fore
SplineSet
246 243 m 1,0,-1
 216 100 l 1,1,-1
 471 100 l 1,2,-1
 483 152 l 2,3,4
 489 185 489 185 502 198 c 0,5,6
 520 219 520 219 546 219 c 0,7,8
 563 219 563 219 575 208.5 c 128,-1,9
 587 198 587 198 587 182 c 0,10,11
 587 176 587 176 583 152 c 2,12,-1
 550 0 l 1,13,-1
 80 0 l 2,14,15
 23 0 23 0 23 40 c 0,16,17
 23 67 23 67 46 85 c 0,18,19
 63 100 63 100 101 100 c 2,20,-1
 116 100 l 1,21,-1
 197 483 l 1,22,-1
 182 483 l 2,23,24
 151 483 151 483 138 492 c 128,-1,25
 125 501 125 501 125 523 c 0,26,27
 125 550 125 550 149 569 c 0,28,29
 165 583 165 583 204 583 c 2,30,-1
 652 583 l 1,31,-1
 620 433 l 2,32,33
 613 399 613 399 601 387 c 0,34,35
 582 366 582 366 556 366 c 0,36,37
 539 366 539 366 527.5 377 c 128,-1,38
 516 388 516 388 516 404 c 0,39,40
 516 416 516 416 520 433 c 2,41,-1
 531 483 l 1,42,-1
 297 483 l 1,43,-1
 267 342 l 1,44,-1
 352 342 l 1,45,-1
 353 349 l 2,46,47
 360 383 360 383 372 395 c 0,48,49
 393 416 393 416 417 416 c 0,50,51
 434 416 434 416 445.5 405 c 128,-1,52
 457 394 457 394 457 378 c 0,53,54
 457 369 457 369 453 349 c 2,55,-1
 428 236 l 2,56,57
 421 203 421 203 409 190 c 0,58,59
 389 170 389 170 365 170 c 0,60,61
 348 170 348 170 336.5 180.5 c 128,-1,62
 325 191 325 191 325 207 c 0,63,64
 325 217 325 217 329 236 c 2,65,-1
 331 243 l 1,66,-1
 246 243 l 1,0,-1
581 767 m 2,67,-1
 424 656 l 2,68,69
 402 640 402 640 388 640 c 0,70,71
 375 640 375 640 366.5 648 c 128,-1,72
 358 656 358 656 358 669 c 0,73,74
 358 690 358 690 390 712 c 2,75,-1
 547 824 l 2,76,77
 568 839 568 839 582 839 c 0,78,79
 595 839 595 839 603.5 831 c 128,-1,80
 612 823 612 823 612 810 c 0,81,82
 612 788 612 788 581 767 c 2,67,-1
EndSplineSet
EndChar

StartChar: Egrave
Encoding: 200 200 166
Width: 600
GlyphClass: 2
Flags: W
LayerCount: 2
Fore
SplineSet
246 243 m 1,0,-1
 216 100 l 1,1,-1
 471 100 l 1,2,-1
 483 152 l 2,3,4
 489 185 489 185 502 198 c 0,5,6
 521 219 521 219 546 219 c 0,7,8
 563 219 563 219 575 208.5 c 128,-1,9
 587 198 587 198 587 182 c 0,10,11
 587 176 587 176 583 152 c 2,12,-1
 550 0 l 1,13,-1
 80 0 l 2,14,15
 49 0 49 0 36 9.5 c 128,-1,16
 23 19 23 19 23 40 c 0,17,18
 23 67 23 67 46 85 c 0,19,20
 63 100 63 100 101 100 c 2,21,-1
 116 100 l 1,22,-1
 197 483 l 1,23,-1
 182 483 l 2,24,25
 151 483 151 483 138 492 c 128,-1,26
 125 501 125 501 125 523 c 0,27,28
 125 548 125 548 149 569 c 0,29,30
 165 583 165 583 204 583 c 2,31,-1
 652 583 l 1,32,-1
 620 433 l 2,33,34
 613 399 613 399 601 387 c 0,35,36
 582 366 582 366 556 366 c 0,37,38
 539 366 539 366 527.5 377 c 128,-1,39
 516 388 516 388 516 404 c 0,40,41
 516 416 516 416 520 433 c 2,42,-1
 531 483 l 1,43,-1
 297 483 l 1,44,-1
 267 342 l 1,45,-1
 352 342 l 1,46,-1
 353 349 l 2,47,48
 360 383 360 383 372 395 c 0,49,50
 393 416 393 416 417 416 c 0,51,52
 434 416 434 416 445.5 405.5 c 128,-1,53
 457 395 457 395 457 379 c 0,54,55
 457 373 457 373 453 349 c 2,56,-1
 428 236 l 2,57,58
 421 203 421 203 409 190 c 0,59,60
 389 170 389 170 365 170 c 0,61,62
 348 170 348 170 336.5 180.5 c 128,-1,63
 325 191 325 191 325 207 c 0,64,65
 325 217 325 217 329 236 c 2,66,-1
 331 243 l 1,67,-1
 246 243 l 1,0,-1
386 824 m 2,68,-1
 496 712 l 2,69,70
 512 697 512 697 512 683 c 0,71,72
 512 667 512 667 497.5 653.5 c 128,-1,73
 483 640 483 640 466 640 c 0,74,75
 454 640 454 640 438 656 c 2,76,-1
 328 767 l 2,77,78
 312 783 312 783 312 795 c 0,79,80
 312 812 312 812 326 825.5 c 128,-1,81
 340 839 340 839 358 839 c 0,82,83
 371 839 371 839 386 824 c 2,68,-1
EndSplineSet
EndChar

StartChar: Ecircumflex
Encoding: 202 202 167
Width: 600
GlyphClass: 2
Flags: W
LayerCount: 2
Fore
SplineSet
246 243 m 1,0,-1
 216 100 l 1,1,-1
 471 100 l 1,2,-1
 483 152 l 2,3,4
 489 185 489 185 502 198 c 0,5,6
 521 219 521 219 546 219 c 0,7,8
 563 219 563 219 575 208.5 c 128,-1,9
 587 198 587 198 587 182 c 0,10,11
 587 176 587 176 583 152 c 2,12,-1
 550 0 l 1,13,-1
 80 0 l 2,14,15
 49 0 49 0 36 9.5 c 128,-1,16
 23 19 23 19 23 40 c 0,17,18
 23 67 23 67 46 85 c 0,19,20
 63 100 63 100 101 100 c 2,21,-1
 116 100 l 1,22,-1
 197 483 l 1,23,-1
 182 483 l 2,24,25
 151 483 151 483 138 492 c 128,-1,26
 125 501 125 501 125 523 c 0,27,28
 125 548 125 548 149 569 c 0,29,30
 165 583 165 583 204 583 c 2,31,-1
 652 583 l 1,32,-1
 620 433 l 2,33,34
 613 399 613 399 601 387 c 0,35,36
 582 366 582 366 556 366 c 0,37,38
 539 366 539 366 527.5 377 c 128,-1,39
 516 388 516 388 516 404 c 0,40,41
 516 416 516 416 520 433 c 2,42,-1
 531 483 l 1,43,-1
 297 483 l 1,44,-1
 267 342 l 1,45,-1
 352 342 l 1,46,-1
 353 349 l 2,47,48
 360 383 360 383 372 395 c 0,49,50
 393 416 393 416 417 416 c 0,51,52
 434 416 434 416 445.5 405.5 c 128,-1,53
 457 395 457 395 457 379 c 0,54,55
 457 373 457 373 453 349 c 2,56,-1
 428 236 l 2,57,58
 421 203 421 203 409 190 c 0,59,60
 389 170 389 170 365 170 c 0,61,62
 348 170 348 170 336.5 180.5 c 128,-1,63
 325 191 325 191 325 207 c 0,64,65
 325 217 325 217 329 236 c 2,66,-1
 331 243 l 1,67,-1
 246 243 l 1,0,-1
452 750 m 1,68,-1
 318 653 l 2,69,70
 298 640 298 640 287 640 c 0,71,72
 275 640 275 640 267 648 c 128,-1,73
 259 656 259 656 259 669 c 0,74,75
 259 681 259 681 265 688.5 c 128,-1,76
 271 696 271 696 291 711 c 2,77,-1
 471 839 l 1,78,-1
 594 711 l 2,79,80
 599 706 599 706 602 704 c 0,81,82
 612 694 612 694 612 683 c 0,83,84
 612 667 612 667 598.5 653.5 c 128,-1,85
 585 640 585 640 569 640 c 0,86,87
 556 640 556 640 543 653 c 2,88,-1
 452 750 l 1,68,-1
EndSplineSet
EndChar

StartChar: Ecaron
Encoding: 282 282 168
Width: 600
GlyphClass: 2
Flags: W
LayerCount: 2
Fore
SplineSet
246 243 m 1,0,-1
 216 100 l 1,1,-1
 471 100 l 1,2,-1
 483 152 l 2,3,4
 489 185 489 185 502 198 c 0,5,6
 520 219 520 219 546 219 c 0,7,8
 563 219 563 219 575 208.5 c 128,-1,9
 587 198 587 198 587 182 c 0,10,11
 587 176 587 176 583 152 c 2,12,-1
 550 0 l 1,13,-1
 80 0 l 2,14,15
 23 0 23 0 23 40 c 0,16,17
 23 67 23 67 46 85 c 0,18,19
 63 100 63 100 101 100 c 2,20,-1
 116 100 l 1,21,-1
 197 483 l 1,22,-1
 182 483 l 2,23,24
 151 483 151 483 138 492 c 128,-1,25
 125 501 125 501 125 523 c 0,26,27
 125 550 125 550 149 569 c 0,28,29
 165 583 165 583 204 583 c 2,30,-1
 652 583 l 1,31,-1
 620 433 l 2,32,33
 613 399 613 399 601 387 c 0,34,35
 582 366 582 366 556 366 c 0,36,37
 539 366 539 366 527.5 377 c 128,-1,38
 516 388 516 388 516 404 c 0,39,40
 516 416 516 416 520 433 c 2,41,-1
 531 483 l 1,42,-1
 297 483 l 1,43,-1
 267 342 l 1,44,-1
 352 342 l 1,45,-1
 353 349 l 2,46,47
 360 383 360 383 372 395 c 0,48,49
 393 416 393 416 417 416 c 0,50,51
 434 416 434 416 445.5 405 c 128,-1,52
 457 394 457 394 457 378 c 0,53,54
 457 369 457 369 453 349 c 2,55,-1
 428 236 l 2,56,57
 421 203 421 203 409 190 c 0,58,59
 389 170 389 170 365 170 c 0,60,61
 348 170 348 170 336.5 180.5 c 128,-1,62
 325 191 325 191 325 207 c 0,63,64
 325 217 325 217 329 236 c 2,65,-1
 331 243 l 1,66,-1
 246 243 l 1,0,-1
431 729 m 1,67,-1
 558 826 l 2,68,69
 576 839 576 839 589 839 c 0,70,71
 600 839 600 839 608.5 830.5 c 128,-1,72
 617 822 617 822 617 811 c 0,73,74
 617 790 617 790 592 773 c 2,75,-1
 585 768 l 1,76,-1
 412 640 l 1,77,-1
 284 768 l 2,78,79
 267 785 267 785 267 797 c 0,80,81
 267 811 267 811 281.5 825 c 128,-1,82
 296 839 296 839 311 839 c 0,83,84
 322 839 322 839 335 826 c 2,85,-1
 431 729 l 1,67,-1
EndSplineSet
EndChar

StartChar: Edotaccent
Encoding: 278 278 169
Width: 600
GlyphClass: 2
Flags: W
LayerCount: 2
Fore
SplineSet
246 243 m 1,0,-1
 216 100 l 1,1,-1
 471 100 l 1,2,-1
 483 152 l 2,3,4
 489 185 489 185 502 198 c 0,5,6
 520 219 520 219 546 219 c 0,7,8
 563 219 563 219 575 208.5 c 128,-1,9
 587 198 587 198 587 182 c 0,10,11
 587 176 587 176 583 152 c 2,12,-1
 550 0 l 1,13,-1
 80 0 l 2,14,15
 23 0 23 0 23 40 c 0,16,17
 23 67 23 67 46 85 c 0,18,19
 63 100 63 100 101 100 c 2,20,-1
 116 100 l 1,21,-1
 197 483 l 1,22,-1
 182 483 l 2,23,24
 151 483 151 483 138 492 c 128,-1,25
 125 501 125 501 125 523 c 0,26,27
 125 550 125 550 149 569 c 0,28,29
 165 583 165 583 204 583 c 2,30,-1
 652 583 l 1,31,-1
 620 433 l 2,32,33
 613 399 613 399 601 387 c 0,34,35
 582 366 582 366 556 366 c 0,36,37
 539 366 539 366 527.5 377 c 128,-1,38
 516 388 516 388 516 404 c 0,39,40
 516 416 516 416 520 433 c 2,41,-1
 531 483 l 1,42,-1
 297 483 l 1,43,-1
 267 342 l 1,44,-1
 352 342 l 1,45,-1
 353 349 l 2,46,47
 360 383 360 383 372 395 c 0,48,49
 393 416 393 416 417 416 c 0,50,51
 434 416 434 416 445.5 405 c 128,-1,52
 457 394 457 394 457 378 c 0,53,54
 457 369 457 369 453 349 c 2,55,-1
 428 236 l 2,56,57
 421 203 421 203 409 190 c 0,58,59
 389 170 389 170 365 170 c 0,60,61
 348 170 348 170 336.5 180.5 c 128,-1,62
 325 191 325 191 325 207 c 0,63,64
 325 217 325 217 329 236 c 2,65,-1
 331 243 l 1,66,-1
 246 243 l 1,0,-1
444 793 m 0,67,68
 465 793 465 793 479 779 c 128,-1,69
 493 765 493 765 493 744 c 0,70,71
 493 716 493 716 470.5 693.5 c 128,-1,72
 448 671 448 671 419 671 c 0,73,74
 400 671 400 671 385.5 686 c 128,-1,75
 371 701 371 701 371 720 c 0,76,77
 371 747 371 747 394 770 c 128,-1,78
 417 793 417 793 444 793 c 0,67,68
EndSplineSet
EndChar

StartChar: Eogonek
Encoding: 280 280 170
Width: 600
GlyphClass: 2
Flags: W
LayerCount: 2
Fore
SplineSet
246 243 m 1,0,-1
 216 100 l 1,1,-1
 471 100 l 1,2,-1
 483 152 l 2,3,4
 489 185 489 185 502 198 c 0,5,6
 520 219 520 219 546 219 c 0,7,8
 563 219 563 219 575 208.5 c 128,-1,9
 587 198 587 198 587 182 c 0,10,11
 587 176 587 176 583 152 c 2,12,-1
 550 0 l 1,13,14
 503 -21 503 -21 474 -46 c 0,15,16
 433 -83 433 -83 433 -114 c 0,17,18
 433 -130 433 -130 450 -130 c 0,19,20
 464 -130 464 -130 503 -114 c 0,21,22
 515 -108 515 -108 526 -108 c 0,23,24
 540 -108 540 -108 548.5 -117 c 128,-1,25
 557 -126 557 -126 557 -140 c 0,26,27
 557 -163 557 -163 534 -178 c 0,28,29
 488 -208 488 -208 428 -208 c 0,30,31
 392 -208 392 -208 371.5 -188.5 c 128,-1,32
 351 -169 351 -169 351 -135 c 0,33,34
 351 -70 351 -70 410 -31 c 0,35,36
 438 -13 438 -13 464 0 c 1,37,-1
 80 0 l 2,38,39
 23 0 23 0 23 40 c 0,40,41
 23 67 23 67 46 85 c 0,42,43
 63 100 63 100 101 100 c 2,44,-1
 116 100 l 1,45,-1
 197 483 l 1,46,-1
 182 483 l 2,47,48
 151 483 151 483 138 492 c 128,-1,49
 125 501 125 501 125 523 c 0,50,51
 125 550 125 550 149 569 c 0,52,53
 165 583 165 583 204 583 c 2,54,-1
 652 583 l 1,55,-1
 620 433 l 2,56,57
 613 399 613 399 601 387 c 0,58,59
 582 366 582 366 556 366 c 0,60,61
 539 366 539 366 527.5 377 c 128,-1,62
 516 388 516 388 516 404 c 0,63,64
 516 416 516 416 520 433 c 2,65,-1
 531 483 l 1,66,-1
 297 483 l 1,67,-1
 267 342 l 1,68,-1
 352 342 l 1,69,-1
 353 349 l 2,70,71
 360 383 360 383 372 395 c 0,72,73
 393 416 393 416 417 416 c 0,74,75
 434 416 434 416 445.5 405 c 128,-1,76
 457 394 457 394 457 378 c 0,77,78
 457 369 457 369 453 349 c 2,79,-1
 428 236 l 2,80,81
 421 203 421 203 409 190 c 0,82,83
 389 170 389 170 365 170 c 0,84,85
 348 170 348 170 336.5 180.5 c 128,-1,86
 325 191 325 191 325 207 c 0,87,88
 325 217 325 217 329 236 c 2,89,-1
 331 243 l 1,90,-1
 246 243 l 1,0,-1
EndSplineSet
EndChar

StartChar: Gbreve
Encoding: 286 286 171
Width: 600
GlyphClass: 2
Flags: W
LayerCount: 2
Fore
SplineSet
588 180 m 1,0,-1
 560 48 l 1,1,2
 485 12 485 12 436 -1 c 128,-1,3
 387 -14 387 -14 327 -14 c 0,4,5
 216 -14 216 -14 149 32 c 0,6,7
 79 79 79 79 79 184 c 0,8,9
 79 217 79 217 86 246 c 2,10,-1
 101 317 l 2,11,12
 126 437 126 437 228 520 c 0,13,14
 323 597 323 597 444 597 c 0,15,16
 526 597 526 597 583 565 c 1,17,18
 604 597 604 597 630 597 c 0,19,20
 646 597 646 597 656.5 586.5 c 128,-1,21
 667 576 667 576 667 560 c 0,22,23
 667 550 667 550 663 531 c 2,24,-1
 646 453 l 2,25,26
 639 420 639 420 627 408 c 0,27,28
 608 387 608 387 582 387 c 0,29,30
 559 387 559 387 551 402 c 0,31,32
 546 409 546 409 544 440 c 0,33,34
 542 466 542 466 510 481.5 c 128,-1,35
 478 497 478 497 423 497 c 0,36,37
 340 497 340 497 278.5 447.5 c 128,-1,38
 217 398 217 398 201 317 c 2,39,-1
 187 253 l 2,40,41
 181 224 181 224 181 199 c 0,42,43
 181 145 181 145 223 115.5 c 128,-1,44
 265 86 265 86 342 86 c 0,45,46
 411 86 411 86 474 111 c 1,47,-1
 488 180 l 1,48,-1
 389 180 l 2,49,50
 358 180 358 180 345 189 c 128,-1,51
 332 198 332 198 332 220 c 0,52,53
 332 246 332 246 355 266 c 0,54,55
 372 280 372 280 410 280 c 2,56,-1
 585 280 l 2,57,58
 608 280 608 280 620 276 c 0,59,60
 642 269 642 269 642 241 c 0,61,62
 642 195 642 195 588 180 c 1,0,-1
329 831 m 0,63,64
 344 831 344 831 349.5 823.5 c 128,-1,65
 355 816 355 816 357 791 c 0,66,67
 359 767 359 767 363.5 757.5 c 128,-1,68
 368 748 368 748 381 738 c 0,69,70
 409 714 409 714 449 714 c 0,71,72
 490 714 490 714 523.5 735.5 c 128,-1,73
 557 757 557 757 569 791 c 0,74,75
 577 813 577 813 586.5 822 c 128,-1,76
 596 831 596 831 612 831 c 0,77,78
 637 831 637 831 637 803 c 0,79,80
 637 747 637 747 572.5 697 c 128,-1,81
 508 647 508 647 436 647 c 0,82,83
 374 647 374 647 330 685 c 128,-1,84
 286 723 286 723 286 777 c 0,85,86
 286 800 286 800 298 815.5 c 128,-1,87
 310 831 310 831 329 831 c 0,63,64
EndSplineSet
EndChar

StartChar: Idieresis
Encoding: 207 207 172
Width: 600
GlyphClass: 2
Flags: W
LayerCount: 2
Fore
SplineSet
453 483 m 1,0,-1
 372 100 l 1,1,-1
 472 100 l 2,2,3
 496 100 496 100 507 96 c 0,4,5
 529 89 529 89 529 61 c 0,6,7
 529 35 529 35 506 15 c 0,8,9
 488 0 488 0 451 0 c 2,10,-1
 150 0 l 2,11,12
 119 0 119 0 106 9 c 128,-1,13
 93 18 93 18 93 40 c 0,14,15
 93 65 93 65 116 85 c 0,16,17
 133 100 133 100 171 100 c 2,18,-1
 272 100 l 1,19,-1
 353 483 l 1,20,-1
 252 483 l 2,21,22
 221 483 221 483 208.5 492 c 128,-1,23
 196 501 196 501 196 523 c 0,24,25
 196 550 196 550 219 568 c 0,26,27
 236 583 236 583 274 583 c 2,28,-1
 575 583 l 2,29,30
 599 583 599 583 610 579 c 0,31,32
 619 576 619 576 625.5 565.5 c 128,-1,33
 632 555 632 555 632 544 c 0,34,35
 632 516 632 516 609 498 c 0,36,37
 590 483 590 483 554 483 c 2,38,-1
 453 483 l 1,0,-1
365 800 m 0,39,40
 386 800 386 800 400 786 c 128,-1,41
 414 772 414 772 414 751 c 0,42,43
 414 723 414 723 391.5 700.5 c 128,-1,44
 369 678 369 678 340 678 c 0,45,46
 321 678 321 678 306.5 693 c 128,-1,47
 292 708 292 708 292 727 c 0,48,49
 292 754 292 754 315 777 c 128,-1,50
 338 800 338 800 365 800 c 0,39,40
573 800 m 0,51,52
 594 800 594 800 608 786 c 128,-1,53
 622 772 622 772 622 751 c 0,54,55
 622 723 622 723 599.5 700.5 c 128,-1,56
 577 678 577 678 548 678 c 0,57,58
 529 678 529 678 514.5 693 c 128,-1,59
 500 708 500 708 500 727 c 0,60,61
 500 754 500 754 523 777 c 128,-1,62
 546 800 546 800 573 800 c 0,51,52
EndSplineSet
EndChar

StartChar: Iacute
Encoding: 205 205 173
Width: 600
GlyphClass: 2
Flags: W
LayerCount: 2
Fore
SplineSet
453 483 m 1,0,-1
 372 100 l 1,1,-1
 472 100 l 2,2,3
 496 100 496 100 507 96 c 0,4,5
 529 89 529 89 529 61 c 0,6,7
 529 35 529 35 506 15 c 0,8,9
 488 0 488 0 451 0 c 2,10,-1
 150 0 l 2,11,12
 119 0 119 0 106 9 c 128,-1,13
 93 18 93 18 93 40 c 0,14,15
 93 65 93 65 116 85 c 0,16,17
 133 100 133 100 171 100 c 2,18,-1
 272 100 l 1,19,-1
 353 483 l 1,20,-1
 252 483 l 2,21,22
 221 483 221 483 208.5 492 c 128,-1,23
 196 501 196 501 196 523 c 0,24,25
 196 550 196 550 219 568 c 0,26,27
 236 583 236 583 274 583 c 2,28,-1
 575 583 l 2,29,30
 599 583 599 583 610 579 c 0,31,32
 619 576 619 576 625.5 565.5 c 128,-1,33
 632 555 632 555 632 544 c 0,34,35
 632 516 632 516 609 498 c 0,36,37
 590 483 590 483 554 483 c 2,38,-1
 453 483 l 1,0,-1
569 767 m 1,39,-1
 419 656 l 2,40,41
 393 640 393 640 384 640 c 0,42,43
 371 640 371 640 362.5 648 c 128,-1,44
 354 656 354 656 354 669 c 0,45,46
 354 690 354 690 384 712 c 2,47,-1
 535 824 l 2,48,49
 555 839 555 839 569 839 c 128,-1,50
 583 839 583 839 591.5 831 c 128,-1,51
 600 823 600 823 600 810 c 0,52,53
 600 789 600 789 576 772 c 2,54,-1
 569 767 l 1,39,-1
EndSplineSet
EndChar

StartChar: Igrave
Encoding: 204 204 174
Width: 600
GlyphClass: 2
Flags: W
LayerCount: 2
Fore
SplineSet
453 483 m 1,0,-1
 372 100 l 1,1,-1
 472 100 l 2,2,3
 496 100 496 100 507 96 c 0,4,5
 529 89 529 89 529 61 c 0,6,7
 529 35 529 35 506 15 c 0,8,9
 488 0 488 0 451 0 c 2,10,-1
 150 0 l 2,11,12
 119 0 119 0 106 9 c 128,-1,13
 93 18 93 18 93 40 c 0,14,15
 93 65 93 65 116 85 c 0,16,17
 133 100 133 100 171 100 c 2,18,-1
 272 100 l 1,19,-1
 353 483 l 1,20,-1
 252 483 l 2,21,22
 221 483 221 483 208.5 492 c 128,-1,23
 196 501 196 501 196 523 c 0,24,25
 196 550 196 550 219 568 c 0,26,27
 236 583 236 583 274 583 c 2,28,-1
 575 583 l 2,29,30
 599 583 599 583 610 579 c 0,31,32
 619 576 619 576 625.5 565.5 c 128,-1,33
 632 555 632 555 632 544 c 0,34,35
 632 516 632 516 609 498 c 0,36,37
 590 483 590 483 554 483 c 2,38,-1
 453 483 l 1,0,-1
395 824 m 2,39,-1
 505 712 l 2,40,41
 521 697 521 697 521 683 c 0,42,43
 521 667 521 667 506.5 653.5 c 128,-1,44
 492 640 492 640 475 640 c 0,45,46
 462 640 462 640 447 656 c 2,47,-1
 337 767 l 2,48,49
 321 782 321 782 321 795 c 0,50,51
 321 812 321 812 335 825.5 c 128,-1,52
 349 839 349 839 367 839 c 0,53,54
 380 839 380 839 395 824 c 2,39,-1
EndSplineSet
EndChar

StartChar: Icircumflex
Encoding: 206 206 175
Width: 600
GlyphClass: 2
Flags: W
LayerCount: 2
Fore
SplineSet
453 483 m 1,0,-1
 372 100 l 1,1,-1
 472 100 l 2,2,3
 496 100 496 100 507 96 c 0,4,5
 529 89 529 89 529 61 c 0,6,7
 529 35 529 35 506 15 c 0,8,9
 488 0 488 0 451 0 c 2,10,-1
 150 0 l 2,11,12
 119 0 119 0 106 9 c 128,-1,13
 93 18 93 18 93 40 c 0,14,15
 93 65 93 65 116 85 c 0,16,17
 133 100 133 100 171 100 c 2,18,-1
 272 100 l 1,19,-1
 353 483 l 1,20,-1
 252 483 l 2,21,22
 221 483 221 483 208.5 492 c 128,-1,23
 196 501 196 501 196 523 c 0,24,25
 196 550 196 550 219 568 c 0,26,27
 236 583 236 583 274 583 c 2,28,-1
 575 583 l 2,29,30
 599 583 599 583 610 579 c 0,31,32
 619 576 619 576 625.5 565.5 c 128,-1,33
 632 555 632 555 632 544 c 0,34,35
 632 516 632 516 609 498 c 0,36,37
 590 483 590 483 554 483 c 2,38,-1
 453 483 l 1,0,-1
461 750 m 1,39,-1
 326 653 l 2,40,41
 307 640 307 640 296 640 c 0,42,43
 284 640 284 640 276 648 c 128,-1,44
 268 656 268 656 268 668 c 0,45,46
 268 681 268 681 274 688.5 c 128,-1,47
 280 696 280 696 300 711 c 2,48,-1
 480 839 l 1,49,-1
 603 711 l 2,50,51
 620 693 620 693 620 683 c 0,52,53
 620 666 620 666 607 653 c 128,-1,54
 594 640 594 640 577 640 c 0,55,56
 565 640 565 640 552 653 c 2,57,-1
 461 750 l 1,39,-1
EndSplineSet
EndChar

StartChar: Idotaccent
Encoding: 304 304 176
Width: 600
GlyphClass: 2
Flags: W
LayerCount: 2
Fore
SplineSet
453 483 m 1,0,-1
 372 100 l 1,1,-1
 472 100 l 2,2,3
 496 100 496 100 507 96 c 0,4,5
 529 89 529 89 529 61 c 0,6,7
 529 35 529 35 506 15 c 0,8,9
 488 0 488 0 451 0 c 2,10,-1
 150 0 l 2,11,12
 119 0 119 0 106 9 c 128,-1,13
 93 18 93 18 93 40 c 0,14,15
 93 65 93 65 116 85 c 0,16,17
 133 100 133 100 171 100 c 2,18,-1
 272 100 l 1,19,-1
 353 483 l 1,20,-1
 252 483 l 2,21,22
 221 483 221 483 208.5 492 c 128,-1,23
 196 501 196 501 196 523 c 0,24,25
 196 550 196 550 219 568 c 0,26,27
 236 583 236 583 274 583 c 2,28,-1
 575 583 l 2,29,30
 599 583 599 583 610 579 c 0,31,32
 619 576 619 576 625.5 565.5 c 128,-1,33
 632 555 632 555 632 544 c 0,34,35
 632 516 632 516 609 498 c 0,36,37
 590 483 590 483 554 483 c 2,38,-1
 453 483 l 1,0,-1
464 793 m 0,39,40
 485 793 485 793 499 779 c 128,-1,41
 513 765 513 765 513 744 c 0,42,43
 513 716 513 716 490.5 693.5 c 128,-1,44
 468 671 468 671 439 671 c 0,45,46
 420 671 420 671 405.5 686 c 128,-1,47
 391 701 391 701 391 720 c 0,48,49
 391 747 391 747 414 770 c 128,-1,50
 437 793 437 793 464 793 c 0,39,40
EndSplineSet
EndChar

StartChar: Lacute
Encoding: 313 313 177
Width: 600
GlyphClass: 2
Flags: W
LayerCount: 2
Fore
SplineSet
358 483 m 1,0,-1
 277 100 l 1,1,-1
 492 100 l 1,2,-1
 512 192 l 2,3,4
 518 225 518 225 531 238 c 0,5,6
 550 259 550 259 576 259 c 0,7,8
 593 259 593 259 604.5 248 c 128,-1,9
 616 237 616 237 616 221 c 0,10,11
 616 212 616 212 612 192 c 2,12,-1
 571 0 l 1,13,-1
 99 0 l 2,14,15
 68 0 68 0 55 9.5 c 128,-1,16
 42 19 42 19 42 40 c 0,17,18
 42 67 42 67 65 85 c 0,19,20
 82 100 82 100 120 100 c 2,21,-1
 177 100 l 1,22,-1
 258 483 l 1,23,-1
 202 483 l 2,24,25
 171 483 171 483 158 492 c 128,-1,26
 145 501 145 501 145 523 c 0,27,28
 145 549 145 549 168 569 c 0,29,30
 186 583 186 583 223 583 c 2,31,-1
 436 583 l 2,32,33
 460 583 460 583 471 579 c 0,34,35
 493 572 493 572 493 543 c 0,36,37
 493 516 493 516 470 498 c 0,38,39
 451 483 451 483 415 483 c 2,40,-1
 358 483 l 1,0,-1
529 767 m 1,41,-1
 379 656 l 2,42,43
 353 640 353 640 344 640 c 0,44,45
 331 640 331 640 322.5 648 c 128,-1,46
 314 656 314 656 314 669 c 0,47,48
 314 690 314 690 344 712 c 2,49,-1
 495 824 l 2,50,51
 515 839 515 839 529 839 c 128,-1,52
 543 839 543 839 551.5 831 c 128,-1,53
 560 823 560 823 560 810 c 0,54,55
 560 789 560 789 536 772 c 2,56,-1
 529 767 l 1,41,-1
EndSplineSet
EndChar

StartChar: Lcaron
Encoding: 317 317 178
Width: 600
GlyphClass: 2
Flags: W
LayerCount: 2
Fore
SplineSet
358 483 m 1,0,-1
 277 100 l 1,1,-1
 492 100 l 1,2,-1
 512 192 l 2,3,4
 518 225 518 225 531 238 c 0,5,6
 550 259 550 259 576 259 c 0,7,8
 593 259 593 259 604.5 248 c 128,-1,9
 616 237 616 237 616 221 c 0,10,11
 616 212 616 212 612 192 c 2,12,-1
 571 0 l 1,13,-1
 99 0 l 2,14,15
 68 0 68 0 55 9.5 c 128,-1,16
 42 19 42 19 42 40 c 0,17,18
 42 67 42 67 65 85 c 0,19,20
 82 100 82 100 120 100 c 2,21,-1
 177 100 l 1,22,-1
 258 483 l 1,23,-1
 202 483 l 2,24,25
 171 483 171 483 158 492 c 128,-1,26
 145 501 145 501 145 523 c 0,27,28
 145 549 145 549 168 569 c 0,29,30
 186 583 186 583 223 583 c 2,31,-1
 436 583 l 2,32,33
 460 583 460 583 471 579 c 0,34,35
 493 572 493 572 493 543 c 0,36,37
 493 516 493 516 470 498 c 0,38,39
 451 483 451 483 415 483 c 2,40,-1
 358 483 l 1,0,-1
659 531 m 1,41,-1
 556 404 l 2,42,43
 535 379 535 379 513 379 c 0,44,45
 502 379 502 379 493.5 387.5 c 128,-1,46
 485 396 485 396 485 407 c 0,47,48
 485 422 485 422 505 446 c 2,49,-1
 609 574 l 2,50,51
 627 598 627 598 651 598 c 0,52,53
 663 598 663 598 671.5 589.5 c 128,-1,54
 680 581 680 581 680 570 c 0,55,56
 680 553 680 553 665 537 c 2,57,-1
 659 531 l 1,41,-1
EndSplineSet
EndChar

StartChar: Nacute
Encoding: 323 323 179
Width: 600
GlyphClass: 2
Flags: W
LayerCount: 2
Fore
SplineSet
256 394 m 1,0,-1
 194 100 l 1,1,-1
 229 100 l 2,2,3
 252 100 252 100 263 96 c 0,4,5
 285 89 285 89 285 61 c 0,6,7
 285 35 285 35 262 15 c 0,8,9
 244 0 244 0 207 0 c 2,10,-1
 78 0 l 2,11,12
 47 0 47 0 34 9 c 128,-1,13
 21 18 21 18 21 40 c 0,14,15
 21 65 21 65 44 85 c 0,16,17
 62 100 62 100 94 100 c 1,18,-1
 175 483 l 1,19,-1
 160 483 l 2,20,21
 129 483 129 483 116.5 492 c 128,-1,22
 104 501 104 501 104 523 c 0,23,24
 104 548 104 548 127 568 c 0,25,26
 144 583 144 583 182 583 c 2,27,-1
 296 583 l 1,28,-1
 471 191 l 1,29,-1
 533 483 l 1,30,-1
 498 483 l 2,31,32
 467 483 467 483 454.5 492 c 128,-1,33
 442 501 442 501 442 523 c 0,34,35
 442 548 442 548 465 569 c 0,36,37
 482 583 482 583 519 583 c 2,38,-1
 649 583 l 2,39,40
 673 583 673 583 684 579 c 0,41,42
 706 572 706 572 706 543 c 0,43,44
 706 518 706 518 683 498 c 0,45,46
 666 483 666 483 633 483 c 1,47,-1
 530 0 l 1,48,-1
 432 0 l 1,49,-1
 256 394 l 1,0,-1
569 767 m 1,50,-1
 419 656 l 2,51,52
 393 640 393 640 384 640 c 0,53,54
 371 640 371 640 362.5 648 c 128,-1,55
 354 656 354 656 354 669 c 0,56,57
 354 690 354 690 384 712 c 2,58,-1
 535 824 l 2,59,60
 555 839 555 839 569 839 c 128,-1,61
 583 839 583 839 591.5 831 c 128,-1,62
 600 823 600 823 600 810 c 0,63,64
 600 789 600 789 576 772 c 2,65,-1
 569 767 l 1,50,-1
EndSplineSet
EndChar

StartChar: Ncaron
Encoding: 327 327 180
Width: 600
GlyphClass: 2
Flags: W
LayerCount: 2
Fore
SplineSet
256 394 m 1,0,-1
 194 100 l 1,1,-1
 229 100 l 2,2,3
 252 100 252 100 263 96 c 0,4,5
 285 89 285 89 285 61 c 0,6,7
 285 35 285 35 262 15 c 0,8,9
 244 0 244 0 207 0 c 2,10,-1
 78 0 l 2,11,12
 47 0 47 0 34 9 c 128,-1,13
 21 18 21 18 21 40 c 0,14,15
 21 65 21 65 44 85 c 0,16,17
 62 100 62 100 94 100 c 1,18,-1
 175 483 l 1,19,-1
 160 483 l 2,20,21
 129 483 129 483 116.5 492 c 128,-1,22
 104 501 104 501 104 523 c 0,23,24
 104 548 104 548 127 568 c 0,25,26
 144 583 144 583 182 583 c 2,27,-1
 296 583 l 1,28,-1
 471 191 l 1,29,-1
 533 483 l 1,30,-1
 498 483 l 2,31,32
 467 483 467 483 454.5 492 c 128,-1,33
 442 501 442 501 442 523 c 0,34,35
 442 548 442 548 465 569 c 0,36,37
 482 583 482 583 519 583 c 2,38,-1
 649 583 l 2,39,40
 673 583 673 583 684 579 c 0,41,42
 706 572 706 572 706 543 c 0,43,44
 706 518 706 518 683 498 c 0,45,46
 666 483 666 483 633 483 c 1,47,-1
 530 0 l 1,48,-1
 432 0 l 1,49,-1
 256 394 l 1,0,-1
431 729 m 1,50,-1
 558 826 l 2,51,52
 576 839 576 839 589 839 c 0,53,54
 600 839 600 839 608.5 830.5 c 128,-1,55
 617 822 617 822 617 811 c 0,56,57
 617 790 617 790 592 773 c 2,58,-1
 585 768 l 1,59,-1
 412 640 l 1,60,-1
 284 768 l 2,61,62
 267 785 267 785 267 797 c 0,63,64
 267 811 267 811 281.5 825 c 128,-1,65
 296 839 296 839 311 839 c 0,66,67
 322 839 322 839 335 826 c 2,68,-1
 431 729 l 1,50,-1
EndSplineSet
EndChar

StartChar: Ntilde
Encoding: 209 209 181
Width: 600
GlyphClass: 2
Flags: W
LayerCount: 2
Fore
SplineSet
380 730 m 0,0,1
 366 730 366 730 354.5 722 c 128,-1,2
 343 714 343 714 314 684 c 0,3,4
 301 670 301 670 286 670 c 0,5,6
 275 670 275 670 268 676.5 c 128,-1,7
 261 683 261 683 261 693 c 0,8,9
 261 716 261 716 299 753 c 0,10,11
 348 799 348 799 393 799 c 0,12,13
 422 799 422 799 476 762 c 0,14,15
 512 736 512 736 528 736 c 0,16,17
 539 736 539 736 547 741.5 c 128,-1,18
 555 747 555 747 576 770 c 0,19,20
 603 799 603 799 621 799 c 0,21,22
 632 799 632 799 640 792 c 128,-1,23
 648 785 648 785 648 776 c 0,24,25
 648 758 648 758 619 728 c 0,26,27
 562 667 562 667 516 667 c 0,28,29
 482 667 482 667 426 709 c 0,30,31
 398 730 398 730 380 730 c 0,0,1
256 394 m 1,32,-1
 194 100 l 1,33,-1
 229 100 l 2,34,35
 252 100 252 100 263 96 c 0,36,37
 285 89 285 89 285 61 c 0,38,39
 285 35 285 35 262 15 c 0,40,41
 244 0 244 0 207 0 c 2,42,-1
 78 0 l 2,43,44
 47 0 47 0 34 9 c 128,-1,45
 21 18 21 18 21 40 c 0,46,47
 21 65 21 65 44 85 c 0,48,49
 62 100 62 100 94 100 c 1,50,-1
 175 483 l 1,51,-1
 160 483 l 2,52,53
 129 483 129 483 116.5 492 c 128,-1,54
 104 501 104 501 104 523 c 0,55,56
 104 548 104 548 127 568 c 0,57,58
 144 583 144 583 182 583 c 2,59,-1
 296 583 l 1,60,-1
 471 191 l 1,61,-1
 533 483 l 1,62,-1
 498 483 l 2,63,64
 467 483 467 483 454.5 492 c 128,-1,65
 442 501 442 501 442 523 c 0,66,67
 442 548 442 548 465 569 c 0,68,69
 482 583 482 583 519 583 c 2,70,-1
 649 583 l 2,71,72
 673 583 673 583 684 579 c 0,73,74
 706 572 706 572 706 543 c 0,75,76
 706 518 706 518 683 498 c 0,77,78
 666 483 666 483 633 483 c 1,79,-1
 530 0 l 1,80,-1
 432 0 l 1,81,-1
 256 394 l 1,32,-1
EndSplineSet
EndChar

StartChar: Odieresis
Encoding: 214 214 182
Width: 600
GlyphClass: 2
Flags: W
LayerCount: 2
Fore
SplineSet
426 597 m 0,0,1
 522 597 522 597 585.5 531 c 128,-1,2
 649 465 649 465 649 366 c 0,3,4
 649 215 649 215 541 102 c 0,5,6
 489 48 489 48 424 17 c 128,-1,7
 359 -14 359 -14 297 -14 c 0,8,9
 202 -14 202 -14 138.5 53 c 128,-1,10
 75 120 75 120 75 220 c 0,11,12
 75 289 75 289 103.5 358.5 c 128,-1,13
 132 428 132 428 182 481 c 0,14,15
 233 534 233 534 299 565.5 c 128,-1,16
 365 597 365 597 426 597 c 0,0,1
405 497 m 0,17,18
 319 497 319 497 248.5 418 c 128,-1,19
 178 339 178 339 178 243 c 0,20,21
 178 175 178 175 217.5 130.5 c 128,-1,22
 257 86 257 86 317 86 c 0,23,24
 405 86 405 86 475.5 165 c 128,-1,25
 546 244 546 244 546 342 c 0,26,27
 546 409 546 409 506 453 c 128,-1,28
 466 497 466 497 405 497 c 0,17,18
364 800 m 0,29,30
 385 800 385 800 399 786 c 128,-1,31
 413 772 413 772 413 751 c 0,32,33
 413 723 413 723 390.5 700.5 c 128,-1,34
 368 678 368 678 339 678 c 0,35,36
 320 678 320 678 305.5 693 c 128,-1,37
 291 708 291 708 291 727 c 0,38,39
 291 754 291 754 314 777 c 128,-1,40
 337 800 337 800 364 800 c 0,29,30
572 800 m 0,41,42
 593 800 593 800 607 786 c 128,-1,43
 621 772 621 772 621 751 c 0,44,45
 621 723 621 723 598.5 700.5 c 128,-1,46
 576 678 576 678 547 678 c 0,47,48
 528 678 528 678 513.5 693 c 128,-1,49
 499 708 499 708 499 727 c 0,50,51
 499 754 499 754 522 777 c 128,-1,52
 545 800 545 800 572 800 c 0,41,42
EndSplineSet
EndChar

StartChar: Oacute
Encoding: 211 211 183
Width: 600
GlyphClass: 2
Flags: W
LayerCount: 2
Fore
SplineSet
426 597 m 0,0,1
 522 597 522 597 585.5 531 c 128,-1,2
 649 465 649 465 649 366 c 0,3,4
 649 215 649 215 541 102 c 0,5,6
 489 48 489 48 424 17 c 128,-1,7
 359 -14 359 -14 297 -14 c 0,8,9
 202 -14 202 -14 138.5 53 c 128,-1,10
 75 120 75 120 75 220 c 0,11,12
 75 289 75 289 103.5 358.5 c 128,-1,13
 132 428 132 428 182 481 c 0,14,15
 233 534 233 534 299 565.5 c 128,-1,16
 365 597 365 597 426 597 c 0,0,1
405 497 m 0,17,18
 319 497 319 497 248.5 418 c 128,-1,19
 178 339 178 339 178 243 c 0,20,21
 178 175 178 175 217.5 130.5 c 128,-1,22
 257 86 257 86 317 86 c 0,23,24
 405 86 405 86 475.5 165 c 128,-1,25
 546 244 546 244 546 342 c 0,26,27
 546 409 546 409 506 453 c 128,-1,28
 466 497 466 497 405 497 c 0,17,18
587 767 m 2,29,-1
 429 656 l 2,30,31
 408 640 408 640 394 640 c 128,-1,32
 380 640 380 640 372 648 c 128,-1,33
 364 656 364 656 364 670 c 0,34,35
 364 691 364 691 395 712 c 2,36,-1
 552 824 l 2,37,38
 575 839 575 839 588 839 c 128,-1,39
 601 839 601 839 609.5 831 c 128,-1,40
 618 823 618 823 618 810 c 0,41,42
 618 789 618 789 587 767 c 2,29,-1
EndSplineSet
EndChar

StartChar: Ograve
Encoding: 210 210 184
Width: 600
GlyphClass: 2
Flags: W
LayerCount: 2
Fore
SplineSet
426 597 m 0,0,1
 522 597 522 597 585.5 531 c 128,-1,2
 649 465 649 465 649 366 c 0,3,4
 649 215 649 215 541 102 c 0,5,6
 489 48 489 48 424 17 c 128,-1,7
 359 -14 359 -14 297 -14 c 0,8,9
 202 -14 202 -14 138.5 53 c 128,-1,10
 75 120 75 120 75 220 c 0,11,12
 75 289 75 289 103.5 358.5 c 128,-1,13
 132 428 132 428 182 481 c 0,14,15
 233 534 233 534 299 565.5 c 128,-1,16
 365 597 365 597 426 597 c 0,0,1
405 497 m 0,17,18
 319 497 319 497 248.5 418 c 128,-1,19
 178 339 178 339 178 243 c 0,20,21
 178 175 178 175 217.5 130.5 c 128,-1,22
 257 86 257 86 317 86 c 0,23,24
 405 86 405 86 475.5 165 c 128,-1,25
 546 244 546 244 546 342 c 0,26,27
 546 409 546 409 506 453 c 128,-1,28
 466 497 466 497 405 497 c 0,17,18
398 824 m 2,29,-1
 508 712 l 2,30,31
 524 697 524 697 524 683 c 0,32,33
 524 667 524 667 509.5 653.5 c 128,-1,34
 495 640 495 640 478 640 c 0,35,36
 465 640 465 640 450 656 c 2,37,-1
 340 767 l 2,38,39
 324 782 324 782 324 795 c 0,40,41
 324 812 324 812 338 825.5 c 128,-1,42
 352 839 352 839 370 839 c 0,43,44
 383 839 383 839 398 824 c 2,29,-1
EndSplineSet
EndChar

